<?xml version="1.0" encoding="UTF-8" standalone="no"?>
<!-- Created with Inkscape (http://www.inkscape.org/) -->

<svg
   xmlns:dc="http://purl.org/dc/elements/1.1/"
   xmlns:cc="http://creativecommons.org/ns#"
   xmlns:rdf="http://www.w3.org/1999/02/22-rdf-syntax-ns#"
   xmlns:svg="http://www.w3.org/2000/svg"
   xmlns="http://www.w3.org/2000/svg"
   xmlns:sodipodi="http://sodipodi.sourceforge.net/DTD/sodipodi-0.dtd"
   xmlns:inkscape="http://www.inkscape.org/namespaces/inkscape"
   width="100.10215mm"
   height="27.295809mm"
   viewBox="0 0 354.69266 96.71743"
   id="svg3688"
   version="1.1"
   inkscape:version="0.91 r13725"
   sodipodi:docname="logo-white.svg"
   inkscape:export-filename="D:\Designs\Pixela\logo-white.png"
   inkscape:export-xdpi="100"
   inkscape:export-ydpi="100">
  <defs
     id="defs3690" />
  <sodipodi:namedview
     id="base"
     pagecolor="#5f5f5f"
     bordercolor="#666666"
     borderopacity="1.0"
     inkscape:pageopacity="0"
     inkscape:pageshadow="2"
     inkscape:zoom="1.4"
     inkscape:cx="326.96279"
     inkscape:cy="54.667442"
     inkscape:document-units="px"
     inkscape:current-layer="layer1"
     showgrid="false"
     fit-margin-top="0"
     fit-margin-left="0"
     fit-margin-right="0"
     fit-margin-bottom="0"
     inkscape:window-width="1920"
     inkscape:window-height="1017"
     inkscape:window-x="1912"
     inkscape:window-y="-8"
     inkscape:window-maximized="1" />
  <metadata
     id="metadata3693">
    <rdf:RDF>
      <cc:Work
         rdf:about="">
        <dc:format>image/svg+xml</dc:format>
        <dc:type
           rdf:resource="http://purl.org/dc/dcmitype/StillImage" />
        <dc:title></dc:title>
      </cc:Work>
    </rdf:RDF>
  </metadata>
  <g
     inkscape:label="Capa 1"
     inkscape:groupmode="layer"
     id="layer1"
     transform="translate(60.203474,-168.58305)">
    <g
       transform="translate(-34.403791,-8.4756541)"
       id="g7118">
      <path
         d="m 7.2488113,178.00294 -33.0484943,0 0,94.42428 19.6942046,0 0,-31.4298 13.3542897,0 c 21.1780147,0 34.9369797,-11.87048 34.9369797,-30.89022 0,-19.28953 -13.758965,-32.10426 -34.9369797,-32.10426 z m -1.2140263,45.99811 -12.1402634,0 0,-27.9226 12.1402634,0 c 9.712211,0 16.456801,4.04675 16.456801,14.02875 0,10.11688 -6.74459,13.89385 -16.456801,13.89385 z"
         style="font-style:normal;font-variant:normal;font-weight:800;font-stretch:normal;font-size:medium;line-height:125%;font-family:'Visby CF';-inkscape-font-specification:'Visby CF Ultra-Bold';letter-spacing:-4.02801943px;word-spacing:0px;fill:#ffffff;fill-opacity:1;stroke:none;stroke-width:1px;stroke-linecap:butt;stroke-linejoin:miter;stroke-opacity:1"
         id="path7096"
         inkscape:connector-curvature="0" />
      <path
         inkscape:connector-curvature="0"
         id="path7116"
         d="m 69.265089,177.0587 -19.289529,0 0,16.4568 19.289529,0 0,-16.4568 z"
         style="font-style:normal;font-variant:normal;font-weight:800;font-stretch:normal;font-size:medium;line-height:125%;font-family:'Visby CF';-inkscape-font-specification:'Visby CF Ultra-Bold';letter-spacing:-4.02801943px;word-spacing:0px;fill:#ffdc05;fill-opacity:1;stroke:none;stroke-width:1px;stroke-linecap:butt;stroke-linejoin:miter;stroke-opacity:1" />
      <path
         inkscape:connector-curvature="0"
         id="path7098"
         d="m 69.265089,202.28347 -19.289529,0 0,70.14375 19.289529,0 0,-70.14375 z"
         style="font-style:normal;font-variant:normal;font-weight:800;font-stretch:normal;font-size:medium;line-height:125%;font-family:'Visby CF';-inkscape-font-specification:'Visby CF Ultra-Bold';letter-spacing:-4.02801943px;word-spacing:0px;fill:#ffffff;fill-opacity:1;stroke:none;stroke-width:1px;stroke-linecap:butt;stroke-linejoin:miter;stroke-opacity:1" />
      <path
         d="m 129.72801,272.42722 22.12225,0 -26.70858,-36.01612 24.28053,-34.12763 -21.98737,0 -13.35429,20.23377 -13.48918,-20.23377 -21.852471,0 24.145631,34.12763 -26.708576,36.01612 22.25715,0 15.647446,-21.85248 15.64746,21.85248 z"
         style="font-style:normal;font-variant:normal;font-weight:800;font-stretch:normal;font-size:medium;line-height:125%;font-family:'Visby CF';-inkscape-font-specification:'Visby CF Ultra-Bold';letter-spacing:-4.02801943px;word-spacing:0px;fill:#ffffff;fill-opacity:1;stroke:none;stroke-width:1px;stroke-linecap:butt;stroke-linejoin:miter;stroke-opacity:1"
         id="path7100"
         inkscape:connector-curvature="0" />
      <path
         d="m 186.57835,201.06945 c -15.91723,0 -36.82546,12.00537 -36.82546,36.55568 0,24.14563 20.50355,36.151 38.03949,36.151 13.75896,0 22.39204,-4.31653 28.46217,-10.65645 L 205.5981,252.73301 c -4.991,2.69784 -8.36329,4.72121 -17.13126,4.72121 -9.44243,0 -16.72659,-4.58632 -19.15464,-13.35429 l 50.98911,0 c 4.18164,-31.02511 -17.80572,-43.03048 -33.72296,-43.03048 z m 0,16.4568 c 6.87949,0 14.56832,4.31653 16.72659,12.94961 l -33.72296,0 c 2.56295,-8.63308 9.982,-12.94961 16.99637,-12.94961 z"
         style="font-style:normal;font-variant:normal;font-weight:800;font-stretch:normal;font-size:medium;line-height:125%;font-family:'Visby CF';-inkscape-font-specification:'Visby CF Ultra-Bold';letter-spacing:-4.02801943px;word-spacing:0px;fill:#ffffff;fill-opacity:1;stroke:none;stroke-width:1px;stroke-linecap:butt;stroke-linejoin:miter;stroke-opacity:1"
         id="path7102"
         inkscape:connector-curvature="0" />
      <path
         d="m 247.92649,177.0587 -19.28953,0 0,95.36852 19.28953,0 0,-95.36852 z"
         style="font-style:normal;font-variant:normal;font-weight:800;font-stretch:normal;font-size:medium;line-height:125%;font-family:'Visby CF';-inkscape-font-specification:'Visby CF Ultra-Bold';letter-spacing:-4.02801943px;word-spacing:0px;fill:#ffffff;fill-opacity:1;stroke:none;stroke-width:1px;stroke-linecap:butt;stroke-linejoin:miter;stroke-opacity:1"
         id="path7104"
         inkscape:connector-curvature="0" />
      <path
         d="m 309.60345,202.28347 0,7.82373 c -0.40468,-1.48381 -7.28416,-9.03775 -19.42442,-9.03775 -16.05213,0 -34.6672,12.00537 -34.6672,36.151 0,24.95499 18.61507,36.55568 34.6672,36.55568 12.14026,0 19.01974,-7.14926 19.42442,-9.98199 l 0,8.63308 19.28953,0 0,-70.14375 -19.28953,0 z m -16.72659,54.3614 c -9.71221,0 -18.61507,-6.6097 -18.61507,-19.42442 0,-12.41005 8.90286,-19.01974 18.61507,-19.01974 9.44243,0 17.67083,6.4748 17.67083,19.01974 0,12.94962 -8.2284,19.42442 -17.67083,19.42442 z"
         style="font-style:normal;font-variant:normal;font-weight:800;font-stretch:normal;font-size:medium;line-height:125%;font-family:'Visby CF';-inkscape-font-specification:'Visby CF Ultra-Bold';letter-spacing:-4.02801943px;word-spacing:0px;fill:#ffffff;fill-opacity:1;stroke:none;stroke-width:1px;stroke-linecap:butt;stroke-linejoin:miter;stroke-opacity:1"
         id="path7106"
         inkscape:connector-curvature="0" />
    </g>
  </g>
</svg>
