<?xml version="1.0" standalone="no"?>
<!DOCTYPE svg PUBLIC "-//W3C//DTD SVG 1.1//EN" "http://www.w3.org/Graphics/SVG/1.1/DTD/svg11.dtd" >
<svg xmlns="http://www.w3.org/2000/svg" xmlns:xlink="http://www.w3.org/1999/xlink" version="1.1">
<metadata></metadata>
<defs>
<font id="rns_mileslight" horiz-adv-x="1742" >
<font-face units-per-em="2048" ascent="1608" descent="-440" />
<missing-glyph horiz-adv-x="446" />
<glyph unicode="&#xfb01;" horiz-adv-x="954" d="M23 778v43l151 19v303q0 176 78.5 272t220.5 96q71 0 133 -24l-20 -66q-49 17 -94 17q-232 0 -232 -305v-291l445 12v-76h-445v-778h-86v778h-151zM672 1112q0 32 23 56t55 24t54.5 -23.5t22.5 -56.5q0 -31 -22.5 -53.5t-54.5 -22.5t-55 22.5t-23 53.5zM707 0v854h86 v-854h-86z" />
<glyph unicode="&#xfb02;" horiz-adv-x="952" d="M23 778v43l151 19v303q0 176 80 272t223 96q69 0 126.5 -8.5t90.5 -19t99 -33.5v-1450h-86v1403q-103 35 -215 35q-232 0 -232 -305v-289l283 10v-76h-283v-778h-86v778h-151z" />
<glyph horiz-adv-x="0" />
<glyph horiz-adv-x="682" />
<glyph unicode=" "  horiz-adv-x="446" />
<glyph unicode="&#x09;" horiz-adv-x="446" />
<glyph unicode="&#xa0;" horiz-adv-x="446" />
<glyph unicode="!" horiz-adv-x="387" d="M115 59q0 35 22 57.5t56 22.5t55.5 -22.5t21.5 -57.5q0 -34 -21.5 -54.5t-55.5 -20.5t-56 21t-22 54zM143 1495h103l-15 -1116h-75z" />
<glyph unicode="&#x22;" horiz-adv-x="647" d="M96 1180l191 356l82 -49l-228 -336zM332 1159l192 357l82 -50l-229 -336z" />
<glyph unicode="#" horiz-adv-x="1404" d="M43 432l16 76h299l107 477h-299l16 76h299l99 434h82l-97 -434h414l98 434h82l-96 -434h299l-16 -76h-299l-107 -477h299l-16 -76h-301l-97 -432h-82l97 432h-416l-96 -432h-82l96 432h-299zM442 508h416l107 477h-416z" />
<glyph unicode="$" horiz-adv-x="1122" d="M80 109l37 75q78 -50 190 -84t225 -34q57 0 107.5 9t98.5 30.5t82.5 54.5t55.5 84t21 116q0 31 -5.5 59t-13 50.5t-24 44.5t-29.5 37.5t-38.5 34t-42.5 30t-49.5 28.5t-52 26t-57.5 27q-22 11 -34 16q-55 26 -89 42.5t-80.5 43.5t-74.5 49.5t-60 55.5t-49 67.5 t-28.5 79.5t-11.5 96q0 88 31 156t85.5 110.5t122 66t148.5 29.5l-6 174h88l-4 -172q189 -3 331 -79l-26 -76q-155 74 -322 74q-164 0 -258 -68.5t-94 -212.5q0 -58 17.5 -105t42 -78.5t71 -64t84.5 -52t103 -50.5q24 -11 36 -17q59 -28 97 -47.5t82.5 -46t72.5 -49.5 t56 -54.5t43 -64t24.5 -74.5t9.5 -90q0 -92 -31.5 -162t-87.5 -112.5t-124 -66t-150 -29.5l4 -193h-88l6 191q-126 1 -246 35.5t-196 89.5z" />
<glyph unicode="%" horiz-adv-x="1613" d="M113 1139q0 167 88 269.5t231 102.5q145 0 232.5 -102.5t87.5 -269.5q0 -169 -87.5 -272t-232.5 -103q-143 0 -231 103.5t-88 271.5zM195 1139q0 -138 65 -221.5t172 -83.5q109 0 174.5 83.5t65.5 221.5q0 137 -65.5 220t-174.5 83q-107 0 -172 -83t-65 -220zM207 27 l1147 1484l49 -43l-1147 -1484zM862 356q0 168 88.5 271.5t231.5 103.5q144 0 231.5 -103t87.5 -272q0 -168 -87.5 -270t-231.5 -102q-143 0 -231.5 102.5t-88.5 269.5zM944 356q0 -137 65.5 -220t172.5 -83q108 0 173.5 83t65.5 220q0 138 -65 222t-174 84 q-107 0 -172.5 -84t-65.5 -222z" />
<glyph unicode="&#x26;" horiz-adv-x="1263" d="M125 422q0 192 124.5 312t332.5 134l-344 627h759v-82h-620l629 -1149q52 44 120 123l58 -53q-61 -66 -142 -137l107 -197h-92l-80 145q-217 -161 -420 -161q-186 0 -309 122t-123 316zM219 422q0 -158 98.5 -258.5t253.5 -100.5q178 0 371 148l-317 580 q-182 -5 -294 -104t-112 -265z" />
<glyph unicode="'" horiz-adv-x="417" d="M98 1001l191 357l82 -49l-228 -336z" />
<glyph unicode="(" horiz-adv-x="673" d="M102 528q0 294 147.5 563.5t393.5 421.5l41 -55q-224 -143 -360 -397.5t-136 -532.5t135.5 -531t358.5 -396l-39 -58q-162 99 -285 255.5t-189.5 345.5t-66.5 384z" />
<glyph unicode=")" horiz-adv-x="673" d="M-12 1458l41 55q245 -152 392.5 -421.5t147.5 -563.5q0 -296 -147.5 -565.5t-392.5 -419.5l-39 58q223 143 357 396t134 531q0 279 -134.5 533.5t-358.5 396.5z" />
<glyph unicode="*" horiz-adv-x="737" d="M49 1255l27 76l264 -100l-14 280h86l-15 -280l265 100l26 -76l-274 -77l176 -217l-66 -48l-155 234l-156 -234l-68 48l179 217z" />
<glyph unicode="+" horiz-adv-x="940" d="M123 731v72h309v323h78v-323h309v-72h-309v-325h-78v325h-309z" />
<glyph unicode="," horiz-adv-x="313" d="M80 -164q70 67 80 139q-34 0 -56 21.5t-22 56.5t22 56.5t56 21.5q35 0 56.5 -22.5t21.5 -57.5q0 -69 -39.5 -133.5t-104.5 -101.5z" />
<glyph unicode="-" horiz-adv-x="696" d="M102 465v72h494v-72h-494z" />
<glyph unicode="." horiz-adv-x="309" d="M76 59q0 35 22 57.5t56 22.5t55.5 -22.5t21.5 -57.5q0 -34 -21.5 -54.5t-55.5 -20.5t-56 21t-22 54z" />
<glyph unicode="/" horiz-adv-x="636" d="M61 -440l490 1935h76l-490 -1935h-76z" />
<glyph unicode="0" horiz-adv-x="1333" d="M131 748q0 366 141 564.5t398 198.5q255 0 393.5 -198.5t138.5 -564.5q0 -367 -138.5 -565.5t-393.5 -198.5q-257 0 -398 199t-141 565zM227 748q0 -321 114 -501.5t331 -180.5q212 0 323 180.5t111 501.5q0 325 -110.5 503.5t-323.5 178.5q-218 0 -331.5 -178 t-113.5 -504z" />
<glyph unicode="1" horiz-adv-x="784" d="M98 1372l357 137h30v-1509h-92v1391l-268 -95z" />
<glyph unicode="2" horiz-adv-x="1112" d="M35 35q44 49 166.5 185t193.5 217.5t131 156.5q135 167 205 297t70 242q0 130 -86.5 213.5t-220.5 83.5q-77 0 -169 -28.5t-171 -68.5l-33 70q77 44 181.5 76t203.5 32q172 0 279.5 -103.5t107.5 -264.5q0 -117 -60.5 -242.5t-185.5 -284.5q-34 -43 -71 -88.5t-92 -108 t-85.5 -97t-109.5 -122.5t-105 -118h787v-82h-924z" />
<glyph unicode="3" horiz-adv-x="1175" d="M82 84l39 72q73 -42 177 -67.5t200 -25.5q211 0 339 96.5t128 280.5q0 169 -120 262t-317 93q-111 0 -209 -25l-30 35l542 608h-727v82h863l10 -35l-537 -600q46 8 111 8q230 0 366 -115t136 -313q0 -205 -145 -330.5t-392 -125.5q-121 0 -246 28t-188 72z" />
<glyph unicode="4" horiz-adv-x="1218" d="M43 444v45l825 1020h50v-983h237v-82h-237v-444h-93v444h-782zM176 526h649v805z" />
<glyph unicode="5" horiz-adv-x="1138" d="M121 45l29 78q145 -60 315 -60q203 0 332 96.5t129 276.5q0 173 -119.5 267t-317.5 94q-151 0 -290 -39l-9 12v725h754v-82h-661v-567q127 24 235 24q221 0 359.5 -115.5t138.5 -316.5q0 -203 -145.5 -328.5t-391.5 -125.5q-196 0 -358 61z" />
<glyph unicode="6" horiz-adv-x="1220" d="M131 489q0 311 212 583.5t607 463.5l35 -74q-282 -139 -463 -315.5t-252 -378.5q150 104 353 104q100 0 186 -29.5t151 -84.5t102.5 -140t37.5 -190q0 -199 -129.5 -321.5t-356.5 -122.5q-230 0 -356.5 131.5t-126.5 373.5zM225 492q0 -205 101.5 -317t287.5 -112 q175 0 283.5 97.5t108.5 267.5t-110.5 270.5t-285.5 100.5q-98 0 -193.5 -33.5t-170.5 -93.5q-21 -93 -21 -180z" />
<glyph unicode="7" horiz-adv-x="1011" d="M27 1413v82h956l-647 -1495h-94l614 1413h-829z" />
<glyph unicode="8" horiz-adv-x="1130" d="M119 399q0 138 78 237t213 136q-118 40 -184 136t-66 229q0 169 111 271.5t294 102.5q182 0 294 -103t112 -271q0 -132 -66.5 -228.5t-181.5 -136.5q134 -37 211.5 -137.5t77.5 -241.5q0 -184 -124 -296.5t-325 -112.5q-200 0 -322 114t-122 301zM213 401q0 -152 97 -245 t255 -93t255.5 93t97.5 245q0 151 -97.5 243.5t-255.5 92.5t-255 -92.5t-97 -243.5zM252 1128q0 -143 86.5 -231t228.5 -88q139 0 225.5 88t86.5 231q0 136 -86 220t-226 84q-142 0 -228.5 -84t-86.5 -220z" />
<glyph unicode="9" horiz-adv-x="1220" d="M123 1067q0 200 132.5 322t350.5 122t352 -137.5t134 -367.5q0 -145 -58.5 -298.5t-163 -293t-260 -260t-338.5 -195.5l-34 74q247 94 445.5 294t268.5 398q-74 -63 -170.5 -102t-181.5 -39q-214 0 -345.5 133t-131.5 350zM215 1067q0 -184 108.5 -297t286.5 -113 q90 0 190 45t177 119q20 85 20 180q0 192 -107.5 311.5t-281.5 119.5q-178 0 -285.5 -100t-107.5 -265z" />
<glyph unicode=":" horiz-adv-x="309" d="M76 59q0 35 22 57.5t56 22.5t55.5 -22.5t21.5 -57.5q0 -34 -21.5 -54.5t-55.5 -20.5t-56 21t-22 54zM82 670q0 35 22 56.5t56 21.5q35 0 56.5 -21.5t21.5 -56.5q0 -34 -21.5 -56t-56.5 -22q-34 0 -56 22t-22 56z" />
<glyph unicode=";" horiz-adv-x="313" d="M80 -164q70 67 80 139q-34 0 -56 21.5t-22 56.5t22 56.5t56 21.5q35 0 56.5 -22.5t21.5 -57.5q0 -69 -39.5 -133.5t-104.5 -101.5zM82 670q0 35 22 56.5t56 21.5q35 0 56.5 -21.5t21.5 -56.5q0 -34 -21.5 -56t-56.5 -22q-34 0 -56 22t-22 56z" />
<glyph unicode="&#x3c;" horiz-adv-x="761" d="M63 758l555 497l52 -55l-494 -442l494 -443l-52 -57z" />
<glyph unicode="=" horiz-adv-x="815" d="M123 575v72h569v-72h-569zM123 868v72h569v-72h-569z" />
<glyph unicode="&#x3e;" horiz-adv-x="761" d="M92 315l496 443l-496 442l53 55l553 -497l-553 -500z" />
<glyph unicode="?" horiz-adv-x="792" d="M41 1423q66 40 149 64t152 24q177 0 285 -92.5t108 -244.5q0 -58 -18 -108t-57 -95t-68 -71t-84 -69q-41 -32 -57.5 -46t-47 -43t-43.5 -49.5t-24.5 -50t-11.5 -60.5v-162h-78v164q0 50 15.5 93t48.5 81.5t60.5 63t75.5 61.5q41 32 59.5 48t50.5 48t47 56.5t27.5 60 t12.5 73.5q0 119 -84 192t-223 73q-63 0 -138.5 -23t-136.5 -61zM207 59q0 35 22 57.5t56 22.5q35 0 56 -22t21 -58q0 -34 -21 -54.5t-56 -20.5q-34 0 -56 21t-22 54z" />
<glyph unicode="@" horiz-adv-x="1794" d="M133 748q0 344 210 553.5t554 209.5q228 0 402 -90t269 -254t95 -379q0 -179 -86 -289t-227 -110q-84 0 -147.5 34.5t-94.5 96.5q-32 -54 -93 -85.5t-132 -31.5q-123 0 -199 93.5t-76 246.5q0 152 75 245t198 93q115 0 196 -63v47h76v-442h2q0 -74 53.5 -120.5 t141.5 -47.5q110 -1 176.5 90t66.5 243q0 296 -191.5 477t-504.5 181q-310 0 -500.5 -191.5t-193.5 -506.5q0 -315 190.5 -507t503.5 -192q97 0 201.5 24t181.5 64l20 -59q-76 -43 -187 -68.5t-216 -25.5q-344 0 -554 210t-210 554zM686 743q0 -123 55 -197.5t146 -74.5 q57 0 109 28t81 74v365q-79 76 -190 76q-91 0 -146 -74.5t-55 -196.5z" />
<glyph unicode="A" horiz-adv-x="1357" d="M39 0l629 1536h22l629 -1536h-92l-185 457h-725l-186 -457h-92zM348 539h660l-330 811z" />
<glyph unicode="B" horiz-adv-x="1210" d="M182 0v1495h463q186 0 299 -105t113 -278q0 -113 -56.5 -203.5t-164.5 -136.5q125 -34 203.5 -130t78.5 -234q0 -183 -123.5 -295.5t-324.5 -112.5h-488zM274 82h388q163 0 262.5 91t99.5 239q0 141 -99.5 228t-262.5 87h-388v-645zM274 803h385q137 0 221.5 84.5 t84.5 222.5q0 136 -89.5 219.5t-234.5 83.5h-367v-610z" />
<glyph unicode="C" horiz-adv-x="1509" d="M133 748q0 344 203 553.5t536 209.5q310 0 508 -182l-51 -69q-178 172 -455 172q-291 0 -468 -188t-177 -496t177 -496.5t468 -188.5q271 0 455 170l51 -69q-195 -180 -508 -180q-333 0 -536 210t-203 554z" />
<glyph unicode="D" horiz-adv-x="1597" d="M182 0v1495h545q333 0 535 -202.5t202 -544.5t-202 -545t-535 -203h-545zM274 80h455q289 0 465 181t176 487q0 305 -176 486t-465 181h-455v-1335z" />
<glyph unicode="E" horiz-adv-x="1148" d="M182 0v1495h815v-82h-723v-606h672v-82h-672v-643h734v-82h-826z" />
<glyph unicode="F" horiz-adv-x="1099" d="M182 0v1495h815v-82h-723v-639h660v-82h-660v-692h-92z" />
<glyph unicode="G" horiz-adv-x="1554" d="M133 748q0 344 203 553.5t536 209.5q310 0 508 -182l-51 -69q-178 172 -455 172q-291 0 -468 -188t-177 -496t177 -496.5t468 -188.5q236 0 437 109v446h-408v82h500v-575q-98 -62 -238.5 -101.5t-292.5 -39.5q-333 0 -536 210t-203 554z" />
<glyph unicode="H" horiz-adv-x="1441" d="M182 0v1495h92v-688h891v688h92v-1495h-92v725h-891v-725h-92z" />
<glyph unicode="I" horiz-adv-x="456" d="M182 0v1495h92v-1495h-92z" />
<glyph unicode="J" horiz-adv-x="1024" d="M92 70l47 69q50 -34 122 -55t142 -21q349 0 349 422l-2 1010h92v-1008q0 -251 -113 -377t-326 -126q-81 0 -165.5 23.5t-145.5 62.5z" />
<glyph unicode="K" horiz-adv-x="1214" d="M182 0v1495h92v-690l732 698h116l-766 -731l793 -772h-121l-754 737v-737h-92z" />
<glyph unicode="L" horiz-adv-x="1087" d="M182 0v1495h92v-1413h734v-82h-826z" />
<glyph unicode="M" horiz-adv-x="1693" d="M152 0l100 1530h20l574 -1081l575 1081h21l100 -1530h-92l-84 1251l-510 -960h-20l-508 956l-84 -1247h-92z" />
<glyph unicode="N" horiz-adv-x="1515" d="M182 0v1534h21l1036 -1341v1302h92v-1534h-20l-1037 1342v-1303h-92z" />
<glyph unicode="O" d="M133 748q0 344 203 553.5t536 209.5q219 0 387 -94.5t260.5 -268t92.5 -400.5t-92.5 -401t-260.5 -268.5t-387 -94.5q-333 0 -536 210t-203 554zM227 748q0 -308 176.5 -496.5t466.5 -188.5t466.5 188.5t176.5 496.5t-176.5 496t-466.5 188t-466.5 -188t-176.5 -496z" />
<glyph unicode="P" horiz-adv-x="1185" d="M182 0v1495h422q215 0 352.5 -138t137.5 -364q0 -224 -132.5 -366t-336.5 -142h-351v-485h-92zM274 565h316q185 0 297 113.5t112 312.5q0 201 -116.5 311.5t-311.5 110.5h-297v-848z" />
<glyph unicode="Q" d="M133 748q0 344 203 553.5t536 209.5q219 0 387 -94.5t260.5 -268t92.5 -400.5q0 -341 -199 -549l197 -195l-56 -57l-198 198q-194 -161 -484 -161q-333 0 -536 210t-203 554zM227 748q0 -308 176.5 -496.5t466.5 -188.5q249 0 422 146l-381 381l54 53l383 -379 q165 185 165 484q0 308 -176.5 496t-466.5 188t-466.5 -188t-176.5 -496z" />
<glyph unicode="R" horiz-adv-x="1220" d="M182 0v1495h402q226 0 368 -129t142 -338q0 -155 -77.5 -267.5t-213.5 -162.5l358 -598h-112l-334 573q-58 -10 -111 -10h-330v-563h-92zM274 645h304q194 0 307.5 104t113.5 277q0 176 -119 281.5t-321 105.5h-285v-768z" />
<glyph unicode="S" horiz-adv-x="1196" d="M117 109l37 75q78 -50 190 -84t225 -34q57 0 107.5 9t98.5 30.5t82.5 54.5t55.5 84t21 116q0 31 -5.5 59t-13 50.5t-24 44.5t-29.5 37.5t-38.5 34t-42.5 30t-49.5 28.5t-52 26t-57.5 27q-22 11 -34 16q-55 26 -89 42.5t-80.5 43.5t-74.5 49.5t-60 55.5t-49 67.5 t-28.5 79.5t-11.5 96q0 95 37 167.5t101 114t141.5 62t166.5 20.5q202 0 350 -79l-26 -76q-155 74 -322 74q-164 0 -258 -68.5t-94 -212.5q0 -58 17.5 -105t42 -78.5t71 -64t84.5 -52t103 -50.5q24 -11 36 -17q59 -28 97 -47.5t82.5 -46t72.5 -49.5t56 -54.5t43 -64 t24.5 -74.5t9.5 -90q0 -82 -25.5 -146.5t-68 -106t-102.5 -69t-124.5 -39t-138.5 -11.5q-129 0 -253 34.5t-201 90.5z" />
<glyph unicode="T" horiz-adv-x="1257" d="M70 1413v82h1116v-82h-510v-1413h-92v1413h-514z" />
<glyph unicode="U" horiz-adv-x="1441" d="M182 543v952h92l-2 -950q0 -216 123.5 -349t325.5 -133q201 0 323.5 133t122.5 349l-2 950h92v-952q0 -252 -147 -405.5t-389 -153.5q-243 0 -391 153.5t-148 405.5z" />
<glyph unicode="V" horiz-adv-x="1357" d="M39 1495h96l545 -1350l545 1350h94l-629 -1534h-22z" />
<glyph unicode="W" horiz-adv-x="1861" d="M39 1495h92l309 -1262l480 1301h22l479 -1305l312 1266h92l-377 -1530h-21l-495 1352l-496 -1352h-20z" />
<glyph unicode="X" horiz-adv-x="1423" d="M125 0l534 766l-534 729h106l480 -661l477 661h108l-532 -729l532 -766h-108l-477 694l-480 -694h-106z" />
<glyph unicode="Y" horiz-adv-x="1200" d="M39 1495h106l455 -778l457 778h106l-518 -870v-625h-92v629z" />
<glyph unicode="Z" horiz-adv-x="1327" d="M119 12l942 1401h-914v82h1055l6 -12l-940 -1401h934v-82h-1077z" />
<glyph unicode="[" horiz-adv-x="614" d="M164 -440v1935h399v-74h-315v-1788h315v-73h-399z" />
<glyph unicode="\" horiz-adv-x="636" d="M10 1495h76l489 -1935h-75z" />
<glyph unicode="]" horiz-adv-x="614" d="M164 -367h317v1788h-317v74h399v-1935h-399v73z" />
<glyph unicode="^" horiz-adv-x="911" d="M188 995l234 291h67l236 -291h-90l-178 222l-178 -222h-91z" />
<glyph unicode="_" horiz-adv-x="1148" d="M78 0v72h991v-72h-991z" />
<glyph unicode="`" horiz-adv-x="886" d="M184 1194l49 80l381 -252l-28 -47z" />
<glyph unicode="a" horiz-adv-x="927" d="M80 250q0 121 89.5 191.5t238.5 70.5q127 0 292 -57v37q0 155 -58 229t-173 76q-159 0 -281 -92l-32 51q58 52 148 83t183 31q142 0 220.5 -96t78.5 -272v-502h-86v90q-63 -50 -140 -78t-152 -28q-148 0 -238 73t-90 193zM168 250q0 -88 68 -141.5t180 -53.5 q152 0 284 107v223q-177 59 -284 59q-113 0 -180.5 -52t-67.5 -142z" />
<glyph unicode="b" horiz-adv-x="1038" d="M160 0v1495h86v-725q59 46 133 73t147 27q189 0 304.5 -121.5t115.5 -320.5q0 -201 -115.5 -322.5t-304.5 -121.5q-77 0 -151 27t-129 73v-84h-86zM246 178q56 -56 130 -88.5t146 -32.5q152 0 244 102t92 269q0 166 -92 267.5t-244 101.5q-75 0 -149.5 -32t-126.5 -87 v-500z" />
<glyph unicode="c" horiz-adv-x="862" d="M90 430q0 199 115.5 319.5t308.5 120.5q145 0 260 -59l-29 -61q-100 47 -227 47q-150 0 -245 -102t-95 -267q0 -166 95 -268.5t245 -102.5q136 0 227 45l29 -59q-106 -59 -260 -59q-188 0 -306 122t-118 324z" />
<glyph unicode="d" horiz-adv-x="1038" d="M90 428q0 198 115.5 320t304.5 122q73 0 147.5 -27t133.5 -73v725h86v-1495h-86v84q-55 -46 -129.5 -73t-151.5 -27q-189 0 -304.5 121.5t-115.5 322.5zM178 428q0 -167 92.5 -269t243.5 -102q72 0 147.5 33t129.5 88v502q-51 54 -125.5 85.5t-151.5 31.5 q-151 0 -243.5 -101.5t-92.5 -267.5z" />
<glyph unicode="e" horiz-adv-x="980" d="M90 430q0 199 110.5 319.5t295.5 120.5q179 0 287 -107t108 -278q0 -27 -4 -55h-709v-8q0 -163 89.5 -264t236.5 -101q185 0 340 119l26 -55q-146 -137 -372 -137q-184 0 -296 122t-112 324zM180 500h627q0 134 -86 215.5t-227 81.5q-78 0 -140 -29t-98 -74.5t-55 -95.5 t-21 -98z" />
<glyph unicode="f" horiz-adv-x="606" d="M23 778v43l151 19v303q0 176 78.5 272t220.5 96q71 0 133 -24l-20 -66q-49 17 -94 17q-232 0 -232 -305v-291l328 12v-76h-328v-778h-86v778h-151z" />
<glyph unicode="g" horiz-adv-x="929" d="M61 -197q0 88 40.5 140t129.5 77q-69 46 -69 130q0 55 28 97t78 64q-70 39 -108.5 105t-38.5 153q0 137 93.5 219t250.5 82q57 0 106 -12l267 14l-9 -71l-141 8q119 -83 119 -240q0 -138 -93.5 -220.5t-248.5 -82.5q-63 0 -119 15q-47 -7 -74.5 -39.5t-27.5 -77.5 q0 -65 57 -92t168 -27q216 0 307.5 -54t91.5 -181q0 -134 -98 -200.5t-311 -66.5q-209 0 -303.5 63.5t-94.5 196.5zM147 -195q0 -61 26 -100.5t97 -63.5t191 -24q177 0 248 49t71 144q0 59 -25 92.5t-93.5 51t-194.5 17.5q-127 0 -197 -18.5t-96.5 -53t-26.5 -94.5zM207 569 q0 -103 70.5 -165t187.5 -62t187.5 62t70.5 165t-70.5 165.5t-187.5 62.5t-187.5 -62.5t-70.5 -165.5z" />
<glyph unicode="h" horiz-adv-x="985" d="M160 0v1495h86v-752q146 127 291 127q140 0 219.5 -97t79.5 -271v-502h-86v492q0 305 -232 305q-121 0 -272 -125v-672h-86z" />
<glyph unicode="i" horiz-adv-x="409" d="M127 1112q0 32 23 56t55 24t55 -24t23 -56q0 -31 -23 -53.5t-55 -22.5t-55 22.5t-23 53.5zM162 0v854h86v-854h-86z" />
<glyph unicode="j" horiz-adv-x="409" d="M-57 -408l10 66q50 -20 96 -20q52 0 82.5 32t30.5 88v1096h86v-1079q0 -100 -52 -157.5t-133 -57.5q-63 0 -120 32zM127 1112q0 32 23 56t55 24t55 -24t23 -56q0 -31 -23 -53.5t-55 -22.5t-55 22.5t-23 53.5z" />
<glyph unicode="k" horiz-adv-x="796" d="M160 0v1495h86v-1026l377 385h106l-405 -410l452 -444h-110l-420 416v-416h-86z" />
<glyph unicode="l" horiz-adv-x="407" d="M160 0v1495h86v-1495h-86z" />
<glyph unicode="m" horiz-adv-x="1574" d="M160 0v854h86v-111q146 127 291 127q183 0 258 -157q77 68 164 112.5t169 44.5q140 0 219.5 -97t79.5 -271v-502h-88v492q0 305 -229 305q-65 0 -143.5 -39t-151.5 -101q21 -68 21 -155v-502h-86v492q0 305 -232 305q-121 0 -272 -125v-672h-86z" />
<glyph unicode="n" horiz-adv-x="985" d="M160 0v854h86v-111q146 127 291 127q140 0 219.5 -97t79.5 -271v-502h-86v492q0 305 -232 305q-121 0 -272 -125v-672h-86z" />
<glyph unicode="o" horiz-adv-x="1030" d="M90 428q0 200 115.5 321t308.5 121q188 0 306 -121.5t118 -320.5q0 -200 -117.5 -322t-306.5 -122q-187 0 -305.5 122t-118.5 322zM178 428q0 -166 93.5 -268.5t242.5 -102.5t242.5 102.5t93.5 268.5t-93.5 267.5t-242.5 101.5t-242.5 -101.5t-93.5 -267.5z" />
<glyph unicode="p" horiz-adv-x="1038" d="M162 -440v1294h86v-84q57 46 132 73t148 27q189 0 304.5 -121.5t115.5 -320.5q0 -201 -115.5 -322.5t-304.5 -121.5q-78 0 -152 26t-128 72v-522h-86zM248 178q54 -55 129 -88t147 -33q151 0 243.5 102t92.5 269q0 166 -92.5 267.5t-243.5 101.5q-76 0 -150.5 -31.5 t-125.5 -85.5v-502z" />
<glyph unicode="q" horiz-adv-x="1038" d="M90 428q0 198 115.5 320t304.5 122q73 0 148.5 -27t132.5 -73v84h86v-1294h-86v522q-54 -46 -128.5 -72t-152.5 -26q-189 0 -304.5 121.5t-115.5 322.5zM178 428q0 -167 92.5 -269t243.5 -102q72 0 147.5 33t129.5 88v502q-51 54 -125.5 85.5t-151.5 31.5 q-151 0 -243.5 -101.5t-92.5 -267.5z" />
<glyph unicode="r" horiz-adv-x="602" d="M160 0v854h86v-135q45 67 126 109t169 42v-77h-4q-97 0 -175 -46q-79 -47 -116 -122v-625h-86z" />
<glyph unicode="s" horiz-adv-x="700" d="M61 57l33 66q48 -30 113.5 -48t126.5 -18q85 0 132.5 38t47.5 108q0 27 -6 49.5t-21 40.5t-28 31t-39.5 27.5t-41.5 21.5t-48 22q-41 18 -67 31.5t-59 37t-52 48t-32.5 62t-13.5 81.5q0 58 22 101.5t60 67.5t83 35t98 11q117 0 209 -47l-25 -67q-80 39 -188 39 q-170 0 -170 -138q0 -40 14 -70.5t45 -54t56 -37t71 -34.5q32 -14 43.5 -19.5t41 -21.5t43 -27.5t35 -32.5t31 -42t17.5 -51t8 -64q0 -60 -22.5 -104t-61.5 -68t-85.5 -35.5t-100.5 -11.5q-77 0 -150.5 19.5t-118.5 53.5z" />
<glyph unicode="t" horiz-adv-x="630" d="M0 778v43l152 19v247l86 27v-272l327 12v-76h-327v-416q0 -305 231 -305q45 0 94 17l21 -60q-62 -30 -133 -30q-142 0 -220.5 96t-78.5 272v426h-152z" />
<glyph unicode="u" horiz-adv-x="956" d="M139 352v502h86v-492q0 -305 232 -305q123 0 252 123v674h86v-854h-86v111q-130 -127 -271 -127q-142 0 -220.5 96t-78.5 272z" />
<glyph unicode="v" horiz-adv-x="862" d="M20 854h97l315 -715l316 715h96l-398 -870h-28z" />
<glyph unicode="w" horiz-adv-x="1202" d="M39 854h94l191 -682l262 698h30l265 -698l188 682h94l-258 -870h-31l-272 727l-274 -727h-31z" />
<glyph unicode="x" horiz-adv-x="786" d="M39 0l305 428l-305 426h98l256 -367l256 367h99l-306 -426l306 -428h-99l-256 365l-254 -365h-100z" />
<glyph unicode="y" horiz-adv-x="868" d="M29 854h96l309 -696l307 696h97l-590 -1294h-98l241 503z" />
<glyph unicode="z" horiz-adv-x="800" d="M31 20l581 758h-540v76h663l10 -20l-581 -758h575v-76h-698z" />
<glyph unicode="{" horiz-adv-x="612" d="M33 494v75h47q65 0 105 44t40 116v426q0 161 96.5 258.5t253.5 97.5v-73q-120 0 -192 -79t-72 -208v-401q0 -83 -36.5 -143t-96.5 -75q60 -15 96.5 -75.5t36.5 -143.5v-405q0 -131 72 -211t192 -80v-74q-157 0 -253.5 99.5t-96.5 261.5v430q0 71 -40.5 115.5t-104.5 44.5 h-47z" />
<glyph unicode="|" horiz-adv-x="448" d="M184 -440v1935h80v-1935h-80z" />
<glyph unicode="}" horiz-adv-x="612" d="M39 -383q120 0 192 80t72 211v405q0 83 36 143.5t95 75.5q-59 15 -95 75t-36 143v401q0 129 -72 208t-192 79v73q157 0 253.5 -97.5t96.5 -258.5v-426q0 -72 40 -116t106 -44h47v-75h-47q-66 0 -106 -44.5t-40 -115.5v-430q0 -162 -96.5 -261.5t-253.5 -99.5v74z" />
<glyph unicode="~" horiz-adv-x="905" d="M133 758q101 112 186 112q56 0 156 -59q2 -1 11.5 -6.5t12 -7t11 -6t12 -6t11 -5t12.5 -4.5t11.5 -3t13 -2.5t12.5 -0.5q65 0 145 92l45 -57q-105 -113 -188 -113q-51 0 -154 64q-68 39 -108 39q-65 0 -146 -93z" />
<glyph unicode="&#xa1;" horiz-adv-x="387" d="M115 995q0 34 22 55t56 21t55.5 -21t21.5 -55q0 -35 -21.5 -57.5t-55.5 -22.5t-56 22.5t-22 57.5zM143 -440l13 1116h75l15 -1116h-103z" />
<glyph unicode="&#xa2;" horiz-adv-x="839" d="M72 766q0 180 97.5 293.5t260.5 124.5l-8 188h82l-8 -186q137 -10 225 -58l-25 -61q-96 47 -229 47q-138 0 -223.5 -96t-85.5 -254q0 -156 85.5 -252t223.5 -96q133 0 229 47l25 -62q-90 -49 -225 -59l8 -178h-82l8 180q-163 12 -260.5 126.5t-97.5 295.5z" />
<glyph unicode="&#xa3;" horiz-adv-x="1130" d="M92 0v80h176v618h-155v37l155 41v246q0 219 128 354t335 135q76 0 166.5 -29t161.5 -75l-41 -72q-65 43 -143 70t-142 27q-168 0 -270.5 -113t-102.5 -299v-242h455v-78h-455v-620h707v-80h-975z" />
<glyph unicode="&#xa4;" horiz-adv-x="911" d="M74 215l116 113q-67 86 -67 213q0 124 65 211l-114 106l61 62l107 -115q90 65 215 65q126 0 213 -65l106 115l62 -62l-115 -106q65 -87 65 -211q0 -127 -67 -213l117 -113l-62 -61l-108 120q-83 -65 -211 -65q-126 0 -213 65l-109 -120zM205 541q0 -117 69.5 -188.5 t184.5 -71.5q113 0 181.5 71.5t68.5 188.5q0 116 -69 187t-181 71q-115 0 -184.5 -71t-69.5 -187z" />
<glyph unicode="&#xa5;" horiz-adv-x="1200" d="M39 1495h106l455 -776l457 776h106l-479 -809h391v-72h-430v-211h430v-71h-430v-332h-92v332h-430v71h430v211h-430v72h395z" />
<glyph unicode="&#xa6;" horiz-adv-x="448" d="M184 365h80v-805h-80v805zM184 729v766h80v-766h-80z" />
<glyph unicode="&#xa7;" horiz-adv-x="1042" d="M102 63l39 76q79 -35 179 -56.5t182 -21.5q120 0 193 53.5t73 139.5q0 32 -10.5 59t-35 48.5t-47.5 37t-65.5 31.5t-69.5 25t-79 24q-41 13 -58 18t-55.5 18.5t-56 21.5t-48.5 23.5t-46.5 28.5t-36 32.5t-30 39.5t-17 45.5t-7.5 53.5q0 96 68.5 165.5t163.5 96.5 q-78 36 -121 86.5t-43 130.5q0 127 104 199.5t265 72.5q93 0 188.5 -21t161.5 -56l-25 -72q-71 32 -163 52t-173 20q-120 0 -193 -50.5t-73 -136.5q0 -76 57.5 -121t163.5 -79q27 -9 73 -22t77 -22.5t73 -24.5t70.5 -29t59 -35.5t48.5 -45t30 -56t12 -69.5q0 -97 -67.5 -165 t-166.5 -95q79 -38 122.5 -90.5t43.5 -132.5q0 -128 -104 -202t-264 -74q-104 0 -211.5 21.5t-180.5 57.5zM195 770q0 -24 4.5 -44t17.5 -37t24 -29.5t35.5 -26t39 -21t49 -19l51 -17t57.5 -17.5q16 -5 111 -37q102 13 179 70.5t77 140.5q0 31 -9.5 56.5t-32 46t-44.5 35.5 t-61.5 30.5t-67 24.5t-76.5 24q-30 9 -117 37q-97 -11 -167 -71t-70 -146z" />
<glyph unicode="&#xa8;" horiz-adv-x="688" d="M90 1112q0 32 23 56t55 24t55 -24t23 -56q0 -31 -23 -53.5t-55 -22.5t-55 22.5t-23 53.5zM440 1112q0 32 23 56t55 24t55 -24t23 -56q0 -31 -23 -53.5t-55 -22.5t-55 22.5t-23 53.5z" />
<glyph unicode="&#xa9;" horiz-adv-x="1734" d="M102 748q0 344 210 553.5t554 209.5q346 0 556 -209.5t210 -553.5q0 -227 -95 -400.5t-269 -268.5t-402 -95q-344 0 -554 210t-210 554zM172 748q0 -315 191 -507t505 -192t505.5 192t191.5 507t-191.5 506.5t-505.5 191.5t-505 -191.5t-191 -506.5zM500 748 q0 180 105.5 289.5t277.5 109.5q67 0 137 -15.5t119 -41.5l-25 -60q-92 47 -231 47q-136 0 -219.5 -91.5t-83.5 -240.5t83 -240t220 -91q143 0 231 45l25 -58q-47 -26 -118 -42.5t-138 -16.5q-172 0 -277.5 111.5t-105.5 294.5z" />
<glyph unicode="&#xaa;" horiz-adv-x="657" d="M80 1135q0 73 53 114t143 41q86 0 168 -30v20q0 174 -131 174q-95 0 -161 -51l-23 47q37 28 93 44.5t110 16.5q88 0 137 -59t49 -166v-301h-74v51q-77 -61 -168 -61q-89 0 -142.5 44t-53.5 116zM154 1135q0 -50 37 -79.5t98 -29.5q80 0 155 59v125q-88 33 -155 33 q-62 0 -98.5 -28.5t-36.5 -79.5z" />
<glyph unicode="&#xab;" horiz-adv-x="788" d="M102 358l215 328h84l-217 -328l217 -338h-84zM399 358l215 328h84l-217 -328l217 -338h-84z" />
<glyph unicode="&#xac;" horiz-adv-x="1064" d="M123 731v72h819v-402h-80v330h-739z" />
<glyph unicode="&#xad;" horiz-adv-x="696" d="M102 465v72h494v-72h-494z" />
<glyph unicode="&#xae;" horiz-adv-x="761" d="M51 1186q0 148 90.5 236.5t239.5 88.5q150 0 241 -89t91 -236q0 -154 -91.5 -247t-240.5 -93t-239.5 93t-90.5 247zM98 1186q0 -132 77.5 -213.5t203.5 -81.5q127 0 205 81.5t78 213.5q0 126 -78 203t-205 77q-126 0 -203.5 -77t-77.5 -203zM272 1012v338q37 6 90 6 q63 0 101.5 -30t38.5 -77q0 -34 -17.5 -62t-46.5 -40l88 -135h-63l-76 123h-61v-123h-54zM326 1180h41q37 0 58 18t21 49q0 26 -20.5 43t-54.5 17h-45v-127z" />
<glyph unicode="&#xaf;" horiz-adv-x="923" d="M168 1069v72h588v-72h-588z" />
<glyph unicode="&#xb0;" horiz-adv-x="751" d="M86 1249q0 123 74 197t196 74q123 0 199 -74t76 -197q0 -122 -75 -196t-198 -74t-197.5 74t-74.5 196zM156 1249q0 -95 55.5 -153t146.5 -58t146 58t55 153t-55.5 153t-147.5 58q-89 0 -144.5 -58t-55.5 -153z" />
<glyph unicode="&#xb1;" horiz-adv-x="942" d="M123 250v72h696v-72h-696zM123 731v72h309v323h78v-323h309v-72h-309v-264h-78v264h-309z" />
<glyph unicode="&#xb2;" horiz-adv-x="438" d="M20 1059q102 106 144 162q76 94 76 149q0 27 -19 45.5t-49 18.5q-33 0 -104 -29l-27 57q70 39 143 39q61 0 98 -32.5t37 -82.5q0 -71 -63 -157q-19 -30 -117 -139h199v-66h-303z" />
<glyph unicode="&#xb3;" horiz-adv-x="446" d="M23 1047l22 57q59 -23 111 -23q50 0 79 22.5t29 63.5q0 40 -28.5 62t-71.5 22q-28 0 -64 -8l-26 37l145 150h-186v65h293v-43l-152 -154q4 0 14 1t19 1q62 0 99.5 -34.5t37.5 -94.5q0 -70 -49 -111.5t-137 -41.5q-85 0 -135 29z" />
<glyph unicode="&#xb4;" horiz-adv-x="1239" d="M471 1022l381 252l49 -80l-401 -219z" />
<glyph unicode="&#xb5;" horiz-adv-x="976" d="M160 -440v1294h86v-492q0 -305 231 -305q123 0 252 123v674h86v-854h-86v111q-130 -127 -270 -127q-154 0 -232 116l15 -540h-82z" />
<glyph unicode="&#xb6;" horiz-adv-x="1372" d="M96 938q0 258 186 415.5t492 157.5q146 0 408 -28v-1483h-86v1413q-175 21 -334 21v-1434h-84l6 1427q-218 -11 -364 -148.5t-146 -340.5q0 -187 122 -300.5t316 -129.5v-78q-234 19 -375 156.5t-141 351.5z" />
<glyph unicode="&#xb7;" horiz-adv-x="319" d="M76 760q0 38 23 61t61 23q37 0 60.5 -23t23.5 -61q0 -36 -23.5 -58t-60.5 -22q-38 0 -61 21.5t-23 58.5z" />
<glyph unicode="&#xb8;" horiz-adv-x="925" d="M246 -395l30 59q97 -57 201 -57q57 0 92 24.5t35 73.5q0 114 -221 137l-6 6l51 183l64 -15l-37 -125q108 -17 167.5 -66t59.5 -116q0 -81 -56 -123.5t-147 -42.5q-112 0 -233 62z" />
<glyph unicode="&#xb9;" horiz-adv-x="274" d="M31 1442l143 55h35v-473h-74v389l-84 -24z" />
<glyph unicode="&#xba;" horiz-adv-x="700" d="M90 1245q0 120 70.5 193t187.5 73q116 0 188 -73t72 -193q0 -122 -72 -196t-188 -74q-115 0 -186.5 74t-71.5 196zM166 1245q0 -96 51 -153.5t133 -57.5t133.5 57.5t51.5 153.5q0 93 -51.5 150t-133.5 57t-133 -57t-51 -150z" />
<glyph unicode="&#xbb;" horiz-adv-x="788" d="M92 20l217 338l-217 328h84l215 -328l-215 -338h-84zM389 20l217 338l-217 328h84l215 -328l-215 -338h-84z" />
<glyph unicode="&#xbc;" horiz-adv-x="1327" d="M61 27l1151 1484l54 -43l-1149 -1484zM141 1442l144 55h34v-473h-73v391l-84 -26zM854 111v59l248 303h55v-297h64v-65h-64v-111h-76v111h-227zM934 176h147v180z" />
<glyph unicode="&#xbd;" horiz-adv-x="1327" d="M61 27l1151 1484l54 -43l-1149 -1484zM143 1442l144 55h35v-473h-74v391l-84 -26zM915 35q102 106 144 162q76 94 76 149q0 27 -19 45.5t-49 18.5q-33 0 -104 -29l-27 57q70 39 143 39q61 0 98 -32.5t37 -82.5q0 -71 -63 -157q-19 -30 -117 -139h199v-66h-303z" />
<glyph unicode="&#xbe;" horiz-adv-x="1327" d="M61 27l1151 1484l54 -43l-1149 -1484zM76 1047l22 57q59 -23 111 -23q50 0 79 22.5t29 63.5q0 40 -28.5 62t-71.5 22q-27 0 -63 -8l-27 37l145 150h-186v65h293v-43l-152 -154q4 0 14 1t19 1q62 0 99.5 -34.5t37.5 -94.5q0 -70 -49 -111.5t-137 -41.5q-85 0 -135 29z M854 111v59l248 303h55v-297h64v-65h-64v-111h-76v111h-227zM932 176h147v180z" />
<glyph unicode="&#xbf;" horiz-adv-x="792" d="M57 322q0 40 8 75.5t27.5 68t36.5 56t49.5 53t50.5 44.5t56 45q37 30 47.5 38.5t40 35t40 41t27 38.5t22 47t5.5 49v162h80v-164q0 -40 -12.5 -78t-28.5 -64.5t-48 -58.5t-52.5 -49.5t-59.5 -48.5q-29 -23 -42.5 -34t-38.5 -33.5t-38 -37t-30.5 -38t-25.5 -43.5 t-14.5 -46.5t-6.5 -53.5q0 -119 84 -192t223 -73q62 0 136.5 23t137.5 61l21 -73q-66 -40 -149 -64t-152 -24q-178 0 -286 93t-108 245zM430 1436q0 33 22 54t56 21q35 0 56.5 -20.5t21.5 -54.5q0 -35 -21.5 -57.5t-56.5 -22.5q-34 0 -56 22.5t-22 57.5z" />
<glyph unicode="&#xc0;" horiz-adv-x="1357" d="M39 0l629 1536h22l629 -1536h-92l-185 457h-725l-186 -457h-92zM348 539h660l-330 811zM440 1835l49 80l381 -252l-28 -47z" />
<glyph unicode="&#xc1;" horiz-adv-x="1357" d="M39 0l629 1536h22l629 -1536h-92l-185 457h-725l-186 -457h-92zM348 539h660l-330 811zM528 1663l381 252l49 -80l-401 -219z" />
<glyph unicode="&#xc2;" horiz-adv-x="1357" d="M39 0l629 1536h22l629 -1536h-92l-185 457h-725l-186 -457h-92zM348 539h660l-330 811zM412 1636l233 291h64l233 -291h-92l-172 234l-172 -234h-94z" />
<glyph unicode="&#xc3;" horiz-adv-x="1357" d="M39 0l629 1536h22l629 -1536h-92l-185 457h-725l-186 -457h-92zM348 539h660l-330 811zM358 1733q44 51 98 82.5t97 31.5q52 0 136.5 -50t129.5 -50q69 0 144 80l34 -43q-99 -115 -190 -115q-44 0 -92.5 25t-93 50t-78.5 25q-73 0 -150 -77z" />
<glyph unicode="&#xc4;" horiz-adv-x="1357" d="M39 0l629 1536h22l629 -1536h-92l-185 457h-725l-186 -457h-92zM348 539h660l-330 811zM424 1753q0 32 23 56t55 24t55 -24t23 -56q0 -31 -23 -53.5t-55 -22.5t-55 22.5t-23 53.5zM774 1753q0 32 23 56t55 24t55 -24t23 -56q0 -31 -23 -53.5t-55 -22.5t-55 22.5t-23 53.5 z" />
<glyph unicode="&#xc5;" horiz-adv-x="1357" d="M39 0l629 1536h22l629 -1536h-92l-185 457h-725l-186 -457h-92zM348 539h660l-330 811zM467 1802q0 86 60.5 146.5t150.5 60.5q88 0 148.5 -60.5t60.5 -146.5t-60.5 -148.5t-148.5 -62.5q-89 0 -150 62.5t-61 148.5zM535 1802q0 -66 40 -108.5t103 -42.5t103 42.5 t40 108.5q0 65 -40 106.5t-103 41.5t-103 -41.5t-40 -106.5z" />
<glyph unicode="&#xc6;" horiz-adv-x="1988" d="M39 0l983 1495h815v-82h-723v-606h672v-82h-672v-643h733v-82h-825l2 457h-582l-297 -457h-106zM494 539h528l2 819z" />
<glyph unicode="&#xc7;" horiz-adv-x="1509" d="M133 748q0 344 203 553.5t536 209.5q310 0 508 -182l-51 -69q-178 172 -455 172q-291 0 -468 -188t-177 -496t177 -496.5t468 -188.5q271 0 455 170l51 -69q-192 -177 -501 -180l-27 -93q108 -17 167.5 -66t59.5 -116q0 -82 -55.5 -124t-146.5 -42q-113 0 -234 62l31 59 q97 -57 200 -57q57 0 92 24.5t35 73.5q0 114 -221 137l-6 6l39 138q-204 13 -358 111t-238 266t-84 385z" />
<glyph unicode="&#xc8;" horiz-adv-x="1148" d="M182 0v1495h815v-82h-723v-606h672v-82h-672v-643h734v-82h-826zM338 1835l49 80l381 -252l-29 -47z" />
<glyph unicode="&#xc9;" horiz-adv-x="1148" d="M182 0v1495h815v-82h-723v-606h672v-82h-672v-643h734v-82h-826zM426 1663l381 252l49 -80l-401 -219z" />
<glyph unicode="&#xca;" horiz-adv-x="1148" d="M182 0v1495h815v-82h-723v-606h672v-82h-672v-643h734v-82h-826zM309 1636l234 291h63l234 -291h-92l-173 234l-172 -234h-94z" />
<glyph unicode="&#xcb;" horiz-adv-x="1148" d="M182 0v1495h815v-82h-723v-606h672v-82h-672v-643h734v-82h-826zM322 1753q0 33 22.5 56.5t54.5 23.5t55 -24t23 -56q0 -31 -23 -53.5t-55 -22.5t-54.5 22.5t-22.5 53.5zM672 1753q0 32 23 56t55 24t54.5 -23.5t22.5 -56.5q0 -31 -22.5 -53.5t-54.5 -22.5t-55 22.5 t-23 53.5z" />
<glyph unicode="&#xcc;" horiz-adv-x="456" d="M-8 1835l49 80l381 -252l-29 -47zM182 0v1495h92v-1495h-92z" />
<glyph unicode="&#xcd;" horiz-adv-x="456" d="M80 1663l381 252l49 -80l-401 -219zM182 0v1495h92v-1495h-92z" />
<glyph unicode="&#xce;" horiz-adv-x="456" d="M-37 1636l234 291h63l234 -291h-93l-172 234l-172 -234h-94zM182 0v1495h92v-1495h-92z" />
<glyph unicode="&#xcf;" horiz-adv-x="456" d="M-25 1753q0 32 23 56t55 24t55 -24t23 -56q0 -31 -23 -53.5t-55 -22.5t-55 22.5t-23 53.5zM182 0v1495h92v-1495h-92zM326 1753q0 33 22.5 56.5t54.5 23.5t55 -24t23 -56q0 -31 -23 -53.5t-55 -22.5t-54.5 22.5t-22.5 53.5z" />
<glyph unicode="&#xd0;" horiz-adv-x="1597" d="M20 729v74h162v692h545q333 0 535 -202.5t202 -544.5t-202 -545t-535 -203h-545v729h-162zM274 80h455q289 0 465 181t176 487q0 305 -176 486t-465 181h-455v-612h334v-74h-334v-649z" />
<glyph unicode="&#xd1;" horiz-adv-x="1515" d="M182 0v1534h21l1036 -1341v1302h92v-1534h-20l-1037 1342v-1303h-92zM414 1733q44 51 97.5 82.5t96.5 31.5q52 0 136.5 -50t129.5 -50q69 0 144 80l35 -43q-99 -115 -191 -115q-44 0 -92.5 25t-93 50t-78.5 25q-72 0 -149 -77z" />
<glyph unicode="&#xd2;" d="M133 748q0 344 203 553.5t536 209.5q219 0 387 -94.5t260.5 -268t92.5 -400.5t-92.5 -401t-260.5 -268.5t-387 -94.5q-333 0 -536 210t-203 554zM227 748q0 -308 176.5 -496.5t466.5 -188.5t466.5 188.5t176.5 496.5t-176.5 496t-466.5 188t-466.5 -188t-176.5 -496z M633 1835l49 80l381 -252l-29 -47z" />
<glyph unicode="&#xd3;" d="M133 748q0 344 203 553.5t536 209.5q219 0 387 -94.5t260.5 -268t92.5 -400.5t-92.5 -401t-260.5 -268.5t-387 -94.5q-333 0 -536 210t-203 554zM227 748q0 -308 176.5 -496.5t466.5 -188.5t466.5 188.5t176.5 496.5t-176.5 496t-466.5 188t-466.5 -188t-176.5 -496z M721 1663l381 252l49 -80l-401 -219z" />
<glyph unicode="&#xd4;" d="M133 748q0 344 203 553.5t536 209.5q219 0 387 -94.5t260.5 -268t92.5 -400.5t-92.5 -401t-260.5 -268.5t-387 -94.5q-333 0 -536 210t-203 554zM227 748q0 -308 176.5 -496.5t466.5 -188.5t466.5 188.5t176.5 496.5t-176.5 496t-466.5 188t-466.5 -188t-176.5 -496z M604 1636l234 291h63l234 -291h-93l-172 234l-172 -234h-94z" />
<glyph unicode="&#xd5;" d="M133 748q0 344 203 553.5t536 209.5q219 0 387 -94.5t260.5 -268t92.5 -400.5t-92.5 -401t-260.5 -268.5t-387 -94.5q-333 0 -536 210t-203 554zM227 748q0 -308 176.5 -496.5t466.5 -188.5t466.5 188.5t176.5 496.5t-176.5 496t-466.5 188t-466.5 -188t-176.5 -496z M551 1733q44 51 97.5 82.5t96.5 31.5q52 0 137 -50t130 -50q68 0 143 80l35 -43q-99 -115 -191 -115q-44 0 -92.5 25t-93 50t-78.5 25q-72 0 -149 -77z" />
<glyph unicode="&#xd6;" d="M133 748q0 344 203 553.5t536 209.5q219 0 387 -94.5t260.5 -268t92.5 -400.5t-92.5 -401t-260.5 -268.5t-387 -94.5q-333 0 -536 210t-203 554zM227 748q0 -308 176.5 -496.5t466.5 -188.5t466.5 188.5t176.5 496.5t-176.5 496t-466.5 188t-466.5 -188t-176.5 -496z M616 1753q0 32 23 56t55 24t55 -24t23 -56q0 -31 -23 -53.5t-55 -22.5t-55 22.5t-23 53.5zM967 1753q0 33 22.5 56.5t54.5 23.5t55 -24t23 -56q0 -31 -23 -53.5t-55 -22.5t-54.5 22.5t-22.5 53.5z" />
<glyph unicode="&#xd7;" horiz-adv-x="944" d="M162 502l258 258l-258 260l53 53l256 -260l260 260l53 -53l-260 -260l260 -258l-53 -53l-260 258l-256 -258z" />
<glyph unicode="&#xd8;" d="M117 37l188 192q-172 203 -172 519q0 344 203 553.5t536 209.5q312 0 508 -184l181 184l55 -53l-182 -184q178 -206 178 -526q0 -227 -92.5 -401t-260.5 -268.5t-387 -94.5q-317 0 -516 190l-186 -190zM227 748q0 -270 142 -455l948 971q-176 168 -447 168 q-290 0 -466.5 -188t-176.5 -496zM418 238q178 -175 452 -175q290 0 466.5 188.5t176.5 496.5q0 278 -145 458z" />
<glyph unicode="&#xd9;" horiz-adv-x="1441" d="M182 543v952h92l-2 -950q0 -216 123.5 -349t325.5 -133q201 0 323.5 133t122.5 349l-2 950h92v-952q0 -252 -147 -405.5t-389 -153.5q-243 0 -391 153.5t-148 405.5zM483 1835l49 80l381 -252l-28 -47z" />
<glyph unicode="&#xda;" horiz-adv-x="1441" d="M182 543v952h92l-2 -950q0 -216 123.5 -349t325.5 -133q201 0 323.5 133t122.5 349l-2 950h92v-952q0 -252 -147 -405.5t-389 -153.5q-243 0 -391 153.5t-148 405.5zM571 1663l381 252l49 -80l-401 -219z" />
<glyph unicode="&#xdb;" horiz-adv-x="1441" d="M182 543v952h92l-2 -950q0 -216 123.5 -349t325.5 -133q201 0 323.5 133t122.5 349l-2 950h92v-952q0 -252 -147 -405.5t-389 -153.5q-243 0 -391 153.5t-148 405.5zM455 1636l233 291h64l233 -291h-92l-172 234l-172 -234h-94z" />
<glyph unicode="&#xdc;" horiz-adv-x="1441" d="M182 543v952h92l-2 -950q0 -216 123.5 -349t325.5 -133q201 0 323.5 133t122.5 349l-2 950h92v-952q0 -252 -147 -405.5t-389 -153.5q-243 0 -391 153.5t-148 405.5zM467 1753q0 32 23 56t55 24t55 -24t23 -56q0 -31 -23 -53.5t-55 -22.5t-55 22.5t-23 53.5zM817 1753 q0 32 23 56t55 24t55 -24t23 -56q0 -31 -23 -53.5t-55 -22.5t-55 22.5t-23 53.5z" />
<glyph unicode="&#xdd;" horiz-adv-x="1200" d="M39 1495h106l455 -778l457 778h106l-518 -870v-625h-92v629zM451 1663l380 252l50 -80l-402 -219z" />
<glyph unicode="&#xde;" horiz-adv-x="1204" d="M182 0v1495h92v-246q192 4 289 4q100 0 189.5 -36t157 -100t107.5 -159t40 -206q0 -146 -66 -264t-174 -182t-235 -64q-206 0 -308 4v-246h-92zM276 328q92 -4 275 -4q176 0 294 115.5t118 310.5q0 198 -122.5 309.5t-308.5 111.5q-170 0 -256 -4v-839z" />
<glyph unicode="&#xdf;" horiz-adv-x="1343" d="M182 0v1495h867l10 -35l-451 -600q46 8 111 8q230 0 367 -115t137 -313q0 -205 -145.5 -330.5t-393.5 -125.5q-105 0 -215 22v80q108 -23 197 -23q211 0 339 96.5t128 280.5q0 169 -120 262t-317 93q-112 0 -207 -25l-28 35l454 608h-641v-1413h-92z" />
<glyph unicode="&#xe0;" horiz-adv-x="927" d="M80 250q0 121 89.5 191.5t238.5 70.5q127 0 292 -57v37q0 155 -58 229t-173 76q-159 0 -281 -92l-32 51q58 52 148 83t183 31q142 0 220.5 -96t78.5 -272v-502h-86v90q-63 -50 -140 -78t-152 -28q-148 0 -238 73t-90 193zM168 250q0 -88 68 -141.5t180 -53.5 q152 0 284 107v223q-177 59 -284 59q-113 0 -180.5 -52t-67.5 -142zM229 1194l50 80l380 -252l-28 -47z" />
<glyph unicode="&#xe1;" horiz-adv-x="927" d="M80 250q0 121 89.5 191.5t238.5 70.5q127 0 292 -57v37q0 155 -58 229t-173 76q-159 0 -281 -92l-32 51q58 52 148 83t183 31q142 0 220.5 -96t78.5 -272v-502h-86v90q-63 -50 -140 -78t-152 -28q-148 0 -238 73t-90 193zM168 250q0 -88 68 -141.5t180 -53.5 q152 0 284 107v223q-177 59 -284 59q-113 0 -180.5 -52t-67.5 -142zM317 1022l381 252l50 -80l-402 -219z" />
<glyph unicode="&#xe2;" horiz-adv-x="927" d="M80 250q0 121 89.5 191.5t238.5 70.5q127 0 292 -57v37q0 155 -58 229t-173 76q-159 0 -281 -92l-32 51q58 52 148 83t183 31q142 0 220.5 -96t78.5 -272v-502h-86v90q-63 -50 -140 -78t-152 -28q-148 0 -238 73t-90 193zM168 250q0 -88 68 -141.5t180 -53.5 q152 0 284 107v223q-177 59 -284 59q-113 0 -180.5 -52t-67.5 -142zM201 995l233 291h64l233 -291h-92l-172 234l-172 -234h-94z" />
<glyph unicode="&#xe3;" horiz-adv-x="927" d="M80 250q0 121 89.5 191.5t238.5 70.5q127 0 292 -57v37q0 155 -58 229t-173 76q-159 0 -281 -92l-32 51q58 52 148 83t183 31q142 0 220.5 -96t78.5 -272v-502h-86v90q-63 -50 -140 -78t-152 -28q-148 0 -238 73t-90 193zM147 1092q44 51 98 82.5t97 31.5q52 0 136.5 -50 t129.5 -50q69 0 144 80l34 -43q-99 -115 -190 -115q-44 0 -92.5 25t-93 50t-78.5 25q-73 0 -150 -77zM168 250q0 -88 68 -141.5t180 -53.5q152 0 284 107v223q-177 59 -284 59q-113 0 -180.5 -52t-67.5 -142z" />
<glyph unicode="&#xe4;" horiz-adv-x="927" d="M80 250q0 121 89.5 191.5t238.5 70.5q127 0 292 -57v37q0 155 -58 229t-173 76q-159 0 -281 -92l-32 51q58 52 148 83t183 31q142 0 220.5 -96t78.5 -272v-502h-86v90q-63 -50 -140 -78t-152 -28q-148 0 -238 73t-90 193zM168 250q0 -88 68 -141.5t180 -53.5 q152 0 284 107v223q-177 59 -284 59q-113 0 -180.5 -52t-67.5 -142zM213 1112q0 32 23 56t55 24t55 -24t23 -56q0 -31 -23 -53.5t-55 -22.5t-55 22.5t-23 53.5zM563 1112q0 32 23 56t55 24t55 -24t23 -56q0 -31 -23 -53.5t-55 -22.5t-55 22.5t-23 53.5z" />
<glyph unicode="&#xe5;" horiz-adv-x="927" d="M80 250q0 121 89.5 191.5t238.5 70.5q127 0 292 -57v37q0 155 -58 229t-173 76q-159 0 -281 -92l-32 51q58 52 148 83t183 31q142 0 220.5 -96t78.5 -272v-502h-86v90q-63 -50 -140 -78t-152 -28q-148 0 -238 73t-90 193zM168 250q0 -88 68 -141.5t180 -53.5 q152 0 284 107v223q-177 59 -284 59q-113 0 -180.5 -52t-67.5 -142zM256 1161q0 86 60.5 146.5t150.5 60.5q88 0 148.5 -60.5t60.5 -146.5t-60.5 -148.5t-148.5 -62.5q-89 0 -150 62.5t-61 148.5zM324 1161q0 -66 40 -108.5t103 -42.5t103 42.5t40 108.5q0 65 -40 106.5 t-103 41.5t-103 -41.5t-40 -106.5z" />
<glyph unicode="&#xe6;" horiz-adv-x="1515" d="M80 250q0 122 81 191t228 69q132 0 291 -55q0 5 1 15t1 15v7q0 155 -58 229t-173 76q-141 0 -263 -92l-32 51q127 114 313 114q97 0 165.5 -47.5t102.5 -136.5q48 89 132 136.5t198 47.5q154 0 256 -108t102 -277q0 -27 -4 -55h-653v-8q0 -166 81 -265.5t226 -99.5 q86 0 152 27.5t151 91.5l27 -55q-76 -72 -155 -104.5t-183 -32.5q-125 0 -215 60t-133 169q-32 -110 -124 -169.5t-206 -59.5q-146 0 -227.5 72t-81.5 194zM168 252q0 -89 59.5 -142t167.5 -53q37 0 72 7.5t74 29.5t68 56.5t49.5 94t23.5 136.5v6q-168 57 -287 57 q-109 0 -168 -51t-59 -141zM770 500h571q0 131 -80.5 214t-195.5 83q-63 0 -114 -19.5t-83.5 -50t-54.5 -71t-32 -79t-11 -77.5z" />
<glyph unicode="&#xe7;" horiz-adv-x="862" d="M90 430q0 199 115.5 319.5t308.5 120.5q145 0 260 -59l-29 -61q-100 47 -227 47q-150 0 -245 -102t-95 -267q0 -166 95 -268.5t245 -102.5q136 0 227 45l29 -59q-106 -59 -260 -59h-8l-27 -93q108 -17 168 -66t60 -116q0 -81 -56 -123.5t-147 -42.5q-113 0 -234 62l31 59 q97 -57 201 -57q57 0 92 24.5t35 73.5q0 114 -221 137l-7 6l39 142q-159 24 -254.5 141.5t-95.5 298.5z" />
<glyph unicode="&#xe8;" horiz-adv-x="980" d="M90 430q0 199 110.5 319.5t295.5 120.5q179 0 287 -107t108 -278q0 -27 -4 -55h-709v-8q0 -163 89.5 -264t236.5 -101q185 0 340 119l26 -55q-146 -137 -372 -137q-184 0 -296 122t-112 324zM180 500h627q0 134 -86 215.5t-227 81.5q-78 0 -140 -29t-98 -74.5t-55 -95.5 t-21 -98zM248 1194l49 80l381 -252l-29 -47z" />
<glyph unicode="&#xe9;" horiz-adv-x="980" d="M90 430q0 199 110.5 319.5t295.5 120.5q179 0 287 -107t108 -278q0 -27 -4 -55h-709v-8q0 -163 89.5 -264t236.5 -101q185 0 340 119l26 -55q-146 -137 -372 -137q-184 0 -296 122t-112 324zM180 500h627q0 134 -86 215.5t-227 81.5q-78 0 -140 -29t-98 -74.5t-55 -95.5 t-21 -98zM336 1022l381 252l49 -80l-401 -219z" />
<glyph unicode="&#xea;" horiz-adv-x="980" d="M90 430q0 199 110.5 319.5t295.5 120.5q179 0 287 -107t108 -278q0 -27 -4 -55h-709v-8q0 -163 89.5 -264t236.5 -101q185 0 340 119l26 -55q-146 -137 -372 -137q-184 0 -296 122t-112 324zM180 500h627q0 134 -86 215.5t-227 81.5q-78 0 -140 -29t-98 -74.5t-55 -95.5 t-21 -98zM219 995l234 291h63l234 -291h-93l-172 234l-172 -234h-94z" />
<glyph unicode="&#xeb;" horiz-adv-x="980" d="M90 430q0 199 110.5 319.5t295.5 120.5q179 0 287 -107t108 -278q0 -27 -4 -55h-709v-8q0 -163 89.5 -264t236.5 -101q185 0 340 119l26 -55q-146 -137 -372 -137q-184 0 -296 122t-112 324zM180 500h627q0 134 -86 215.5t-227 81.5q-78 0 -140 -29t-98 -74.5t-55 -95.5 t-21 -98zM231 1112q0 32 23 56t55 24t55 -24t23 -56q0 -31 -23 -53.5t-55 -22.5t-55 22.5t-23 53.5zM582 1112q0 33 22.5 56.5t54.5 23.5t55 -24t23 -56q0 -31 -23 -53.5t-55 -22.5t-54.5 22.5t-22.5 53.5z" />
<glyph unicode="&#xec;" horiz-adv-x="409" d="M-33 1194l49 80l381 -252l-28 -47zM162 0v854h86v-854h-86z" />
<glyph unicode="&#xed;" horiz-adv-x="409" d="M55 1022l381 252l49 -80l-401 -219zM162 0v854h86v-854h-86z" />
<glyph unicode="&#xee;" horiz-adv-x="409" d="M-61 995l233 291h64l233 -291h-92l-172 234l-172 -234h-94zM162 0v854h86v-854h-86z" />
<glyph unicode="&#xef;" horiz-adv-x="409" d="M-49 1112q0 32 23 56t55 24t54.5 -23.5t22.5 -56.5q0 -31 -22.5 -53.5t-54.5 -22.5t-55 22.5t-23 53.5zM162 0v854h86v-854h-86zM301 1112q0 32 23 56t55 24t55 -24t23 -56q0 -31 -23 -53.5t-55 -22.5t-55 22.5t-23 53.5z" />
<glyph unicode="&#xf0;" horiz-adv-x="1017" d="M92 432q0 122 50 222t143.5 159t212.5 59q100 0 181.5 -44t133.5 -121q-31 140 -118 277t-218 251l-196 -170l-43 53l184 162q-115 90 -258 160l35 69q165 -81 284 -176l152 131l45 -53l-141 -123q175 -149 282 -365.5t107 -445.5q0 -124 -33.5 -220t-91.5 -154.5 t-131.5 -88.5t-159.5 -30q-126 0 -223 62.5t-147 163.5t-50 222zM180 434q0 -157 90.5 -267t237.5 -110q148 0 241 108.5t93 268.5q0 158 -91.5 260.5t-242.5 102.5t-239.5 -104t-88.5 -259z" />
<glyph unicode="&#xf1;" horiz-adv-x="985" d="M160 0v854h86v-111q146 127 291 127q140 0 219.5 -97t79.5 -271v-502h-86v492q0 305 -232 305q-121 0 -272 -125v-672h-86zM172 1092q44 51 98 82.5t97 31.5q52 0 136.5 -50t129.5 -50q68 0 143 80l35 -43q-99 -115 -190 -115q-44 0 -92.5 25t-93.5 50t-79 25 q-72 0 -149 -77z" />
<glyph unicode="&#xf2;" horiz-adv-x="1030" d="M90 428q0 200 115.5 321t308.5 121q188 0 306 -121.5t118 -320.5q0 -200 -117.5 -322t-306.5 -122q-187 0 -305.5 122t-118.5 322zM178 428q0 -166 93.5 -268.5t242.5 -102.5t242.5 102.5t93.5 268.5t-93.5 267.5t-242.5 101.5t-242.5 -101.5t-93.5 -267.5zM276 1194 l50 80l381 -252l-29 -47z" />
<glyph unicode="&#xf3;" horiz-adv-x="1030" d="M90 428q0 200 115.5 321t308.5 121q188 0 306 -121.5t118 -320.5q0 -200 -117.5 -322t-306.5 -122q-187 0 -305.5 122t-118.5 322zM178 428q0 -166 93.5 -268.5t242.5 -102.5t242.5 102.5t93.5 268.5t-93.5 267.5t-242.5 101.5t-242.5 -101.5t-93.5 -267.5zM365 1022 l380 252l50 -80l-402 -219z" />
<glyph unicode="&#xf4;" horiz-adv-x="1030" d="M90 428q0 200 115.5 321t308.5 121q188 0 306 -121.5t118 -320.5q0 -200 -117.5 -322t-306.5 -122q-187 0 -305.5 122t-118.5 322zM178 428q0 -166 93.5 -268.5t242.5 -102.5t242.5 102.5t93.5 268.5t-93.5 267.5t-242.5 101.5t-242.5 -101.5t-93.5 -267.5zM248 995 l233 291h64l233 -291h-92l-172 234l-172 -234h-94z" />
<glyph unicode="&#xf5;" horiz-adv-x="1030" d="M90 428q0 200 115.5 321t308.5 121q188 0 306 -121.5t118 -320.5q0 -200 -117.5 -322t-306.5 -122q-187 0 -305.5 122t-118.5 322zM178 428q0 -166 93.5 -268.5t242.5 -102.5t242.5 102.5t93.5 268.5t-93.5 267.5t-242.5 101.5t-242.5 -101.5t-93.5 -267.5zM195 1092 q44 51 97.5 82.5t96.5 31.5q52 0 136.5 -50t129.5 -50q69 0 144 80l35 -43q-99 -115 -191 -115q-44 0 -92.5 25t-93 50t-78.5 25q-73 0 -150 -77z" />
<glyph unicode="&#xf6;" horiz-adv-x="1030" d="M90 428q0 200 115.5 321t308.5 121q188 0 306 -121.5t118 -320.5q0 -200 -117.5 -322t-306.5 -122q-187 0 -305.5 122t-118.5 322zM178 428q0 -166 93.5 -268.5t242.5 -102.5t242.5 102.5t93.5 268.5t-93.5 267.5t-242.5 101.5t-242.5 -101.5t-93.5 -267.5zM260 1112 q0 32 23 56t55 24t55 -24t23 -56q0 -31 -23 -53.5t-55 -22.5t-55 22.5t-23 53.5zM610 1112q0 32 23 56t55 24t55 -24t23 -56q0 -31 -23 -53.5t-55 -22.5t-55 22.5t-23 53.5z" />
<glyph unicode="&#xf7;" horiz-adv-x="940" d="M123 731v72h696v-72h-696zM403 455q0 31 18.5 50t49.5 19t49.5 -19t18.5 -50t-18.5 -49.5t-49.5 -18.5t-49.5 18.5t-18.5 49.5zM403 1077q0 31 18.5 50.5t49.5 19.5t49.5 -19.5t18.5 -50.5t-18.5 -50t-49.5 -19t-49.5 19t-18.5 50z" />
<glyph unicode="&#xf8;" horiz-adv-x="1030" d="M43 27l129 123q-82 114 -82 278q0 200 115.5 321t308.5 121q182 0 295 -110l115 110l45 -45l-119 -112q88 -114 88 -285q0 -200 -117.5 -322t-306.5 -122q-186 0 -301 118l-125 -118zM178 428q0 -126 55 -219l517 493q-92 95 -236 95q-149 0 -242.5 -101.5t-93.5 -267.5z M272 160q92 -103 242 -103q149 0 242.5 102.5t93.5 268.5q0 131 -62 225z" />
<glyph unicode="&#xf9;" horiz-adv-x="956" d="M139 352v502h86v-492q0 -305 232 -305q123 0 252 123v674h86v-854h-86v111q-130 -127 -271 -127q-142 0 -220.5 96t-78.5 272zM236 1194l49 80l381 -252l-29 -47z" />
<glyph unicode="&#xfa;" horiz-adv-x="956" d="M139 352v502h86v-492q0 -305 232 -305q123 0 252 123v674h86v-854h-86v111q-130 -127 -271 -127q-142 0 -220.5 96t-78.5 272zM324 1022l381 252l49 -80l-402 -219z" />
<glyph unicode="&#xfb;" horiz-adv-x="956" d="M139 352v502h86v-492q0 -305 232 -305q123 0 252 123v674h86v-854h-86v111q-130 -127 -271 -127q-142 0 -220.5 96t-78.5 272zM207 995l233 291h64l233 -291h-92l-172 234l-172 -234h-94z" />
<glyph unicode="&#xfc;" horiz-adv-x="956" d="M139 352v502h86v-492q0 -305 232 -305q123 0 252 123v674h86v-854h-86v111q-130 -127 -271 -127q-142 0 -220.5 96t-78.5 272zM219 1112q0 32 23 56t55 24t55 -24t23 -56q0 -31 -23 -53.5t-55 -22.5t-55 22.5t-23 53.5zM569 1112q0 32 23 56t55 24t55 -24t23 -56 q0 -31 -23 -53.5t-55 -22.5t-55 22.5t-23 53.5z" />
<glyph unicode="&#xfd;" horiz-adv-x="868" d="M29 854h96l309 -696l307 696h97l-590 -1294h-98l241 503zM285 1022l381 252l49 -80l-402 -219z" />
<glyph unicode="&#xfe;" horiz-adv-x="1038" d="M160 -440v1935h86v-727q57 47 132 74.5t150 27.5q189 0 304.5 -122t115.5 -320q0 -201 -115.5 -322.5t-304.5 -121.5q-78 0 -153 27.5t-129 74.5v-526h-86zM246 180q54 -56 129.5 -89.5t148.5 -33.5q151 0 243.5 102t92.5 269q0 166 -92.5 267.5t-243.5 101.5 q-75 0 -150.5 -33t-127.5 -88v-496z" />
<glyph unicode="&#xff;" horiz-adv-x="868" d="M29 854h96l309 -696l307 696h97l-590 -1294h-98l241 503zM180 1112q0 32 23 56t55 24t55 -24t23 -56q0 -31 -23 -53.5t-55 -22.5t-55 22.5t-23 53.5zM530 1112q0 32 23 56t55 24t55 -24t23 -56q0 -31 -23 -53.5t-55 -22.5t-55 22.5t-23 53.5z" />
<glyph unicode="&#x152;" horiz-adv-x="2185" d="M133 748q0 344 203 553.5t536 209.5q63 0 128 -2.5t148.5 -7t131.5 -6.5h754v-82h-723v-606h671v-82h-671v-643h733v-82h-764q-196 -16 -408 -16q-333 0 -536 210t-203 554zM227 748q0 -308 176.5 -496.5t466.5 -188.5q180 0 347 21v1327q-166 21 -347 21 q-290 0 -466.5 -188t-176.5 -496z" />
<glyph unicode="&#x153;" d="M90 428q0 200 115.5 321t308.5 121q131 0 231 -63t148 -174q45 111 139.5 174t222.5 63q179 0 288.5 -107t109.5 -278q0 -27 -4 -55h-709q-1 -175 87.5 -274t236.5 -99q184 0 342 119l26 -55q-149 -137 -375 -137q-129 0 -223.5 62t-140.5 175q-48 -111 -148 -174 t-231 -63q-187 0 -305.5 122t-118.5 322zM178 428q0 -166 93.5 -268.5t242.5 -102.5t242.5 102.5t93.5 268.5t-93.5 267.5t-242.5 101.5t-242.5 -101.5t-93.5 -267.5zM942 500h625q0 133 -86 215t-226 82q-79 0 -141 -29t-97.5 -75.5t-54 -95.5t-20.5 -97z" />
<glyph unicode="&#x178;" horiz-adv-x="1200" d="M39 1495h106l455 -778l457 778h106l-518 -870v-625h-92v629zM346 1753q0 32 23 56t55 24t55 -24t23 -56q0 -31 -23 -53.5t-55 -22.5t-55 22.5t-23 53.5zM696 1753q0 32 23 56t55 24t55 -24t23 -56q0 -31 -23 -53.5t-55 -22.5t-55 22.5t-23 53.5z" />
<glyph unicode="&#x2c6;" horiz-adv-x="907" d="M188 995l234 291h63l234 -291h-92l-172 234l-172 -234h-95z" />
<glyph unicode="&#x2dc;" horiz-adv-x="923" d="M143 1092q44 51 98 82.5t97 31.5q52 0 136.5 -50t129.5 -50q69 0 144 80l34 -43q-99 -115 -190 -115q-44 0 -92.5 25t-93 50t-78.5 25q-73 0 -150 -77z" />
<glyph unicode="&#x2000;" horiz-adv-x="1004" />
<glyph unicode="&#x2001;" horiz-adv-x="2009" />
<glyph unicode="&#x2002;" horiz-adv-x="1004" />
<glyph unicode="&#x2003;" horiz-adv-x="2009" />
<glyph unicode="&#x2004;" horiz-adv-x="669" />
<glyph unicode="&#x2005;" horiz-adv-x="502" />
<glyph unicode="&#x2006;" horiz-adv-x="334" />
<glyph unicode="&#x2007;" horiz-adv-x="334" />
<glyph unicode="&#x2008;" horiz-adv-x="251" />
<glyph unicode="&#x2009;" horiz-adv-x="401" />
<glyph unicode="&#x200a;" horiz-adv-x="111" />
<glyph unicode="&#x2010;" horiz-adv-x="696" d="M102 465v72h494v-72h-494z" />
<glyph unicode="&#x2011;" horiz-adv-x="696" d="M102 465v72h494v-72h-494z" />
<glyph unicode="&#x2012;" horiz-adv-x="696" d="M102 465v72h494v-72h-494z" />
<glyph unicode="&#x2013;" horiz-adv-x="1021" d="M102 465v72h820v-72h-820z" />
<glyph unicode="&#x2014;" horiz-adv-x="1536" d="M102 465v72h1332v-72h-1332z" />
<glyph unicode="&#x2018;" horiz-adv-x="284" d="M72 1278q0 69 39.5 132.5t105.5 100.5l12 -20q-31 -28 -53 -65.5t-26 -71.5q35 0 56 -22t21 -56q0 -36 -21 -58t-56 -22q-34 0 -56 23t-22 59z" />
<glyph unicode="&#x2019;" horiz-adv-x="284" d="M55 1219q31 28 53.5 66t26.5 71q-34 0 -56 22t-22 56q0 35 22 56t56 21q35 0 56.5 -21.5t21.5 -57.5q0 -69 -39.5 -134t-103.5 -102z" />
<glyph unicode="&#x201a;" horiz-adv-x="284" d="M57 -164q70 67 80 139q-34 0 -56 21.5t-22 56.5t22 56.5t56 21.5q35 0 56.5 -22.5t21.5 -57.5q0 -69 -39.5 -133.5t-103.5 -101.5z" />
<glyph unicode="&#x201c;" horiz-adv-x="526" d="M72 1278q0 69 39.5 132.5t105.5 100.5l12 -20q-31 -28 -53 -65.5t-26 -71.5q35 0 56 -22t21 -56q0 -36 -21 -58t-56 -22q-34 0 -56 23t-22 59zM313 1278q0 69 40 132.5t106 100.5l12 -20q-31 -28 -53.5 -66t-26.5 -71q35 0 56.5 -22t21.5 -56q0 -35 -21.5 -57.5 t-56.5 -22.5q-34 0 -56 23t-22 59z" />
<glyph unicode="&#x201d;" horiz-adv-x="526" d="M55 1219q31 28 53.5 66t26.5 71q-34 0 -56 22t-22 56q0 35 22 56t56 21q35 0 56.5 -21.5t21.5 -57.5q0 -69 -39.5 -134t-103.5 -102zM297 1219q31 28 53.5 66t26.5 71q-34 0 -56 22t-22 56q0 35 22 56t56 21q35 0 56.5 -21.5t21.5 -57.5q0 -69 -39.5 -134t-104.5 -102z " />
<glyph unicode="&#x201e;" horiz-adv-x="284" d="M57 -164q70 67 80 139q-34 0 -56 21.5t-22 56.5t22 56.5t56 21.5q35 0 56.5 -22.5t21.5 -57.5q0 -69 -39.5 -133.5t-103.5 -101.5z" />
<glyph unicode="&#x2022;" horiz-adv-x="686" d="M131 752q0 99 58.5 159t154.5 60q95 0 153 -60.5t58 -158.5t-58 -157.5t-153 -59.5q-97 0 -155 59.5t-58 157.5z" />
<glyph unicode="&#x2026;" horiz-adv-x="1118" d="M115 68q0 35 22 57t56 22t55.5 -22t21.5 -57q0 -34 -21.5 -55t-55.5 -21t-56 21t-22 55zM481 68q0 35 22 57t56 22t56 -22t22 -57q0 -34 -22 -55t-56 -21t-56 21t-22 55zM848 68q0 35 22 57t56 22t56 -22t22 -57q0 -34 -22 -55t-56 -21t-56 21t-22 55z" />
<glyph unicode="&#x202f;" horiz-adv-x="401" />
<glyph unicode="&#x2039;" horiz-adv-x="491" d="M102 358l215 328h84l-217 -328l217 -338h-84z" />
<glyph unicode="&#x203a;" horiz-adv-x="491" d="M92 20l217 338l-217 328h84l215 -328l-215 -338h-84z" />
<glyph unicode="&#x205f;" horiz-adv-x="502" />
<glyph unicode="&#x20ac;" horiz-adv-x="1599" d="M72 543v71h184q-8 57 -8 134q0 70 8 122h-184v72h194q56 263 247.5 416t473.5 153q310 0 508 -182l-51 -69q-178 172 -455 172q-241 0 -406 -131.5t-218 -358.5h854v-72h-867q-8 -52 -8 -122q0 -62 10 -134h865v-71h-850q53 -222 218 -351t402 -129q271 0 455 170l51 -69 q-195 -180 -508 -180q-279 0 -470.5 150.5t-248.5 408.5h-196z" />
<glyph unicode="&#x2122;" horiz-adv-x="980" d="M33 1438v57h354v-57h-145v-396h-64v396h-145zM473 1042l19 459h8l196 -311l195 311h10l17 -459h-60l-4 306l-154 -246h-8l-153 246l-4 -306h-62z" />
<glyph unicode="&#x25fc;" horiz-adv-x="849" d="M0 0v850h850v-850h-850z" />
<glyph unicode="&#xfb03;" horiz-adv-x="1484" d="M23 778v43l151 19v303q0 176 78.5 272t220.5 96q71 0 133 -24l-20 -66q-49 17 -94 17q-232 0 -232 -305v-291l445 12v289q0 176 78.5 272t220.5 96q72 0 133 -24l-21 -66q-49 17 -94 17q-231 0 -231 -305v-279h444v-76h-444v-778h-86v778h-445v-778h-86v778h-151z M1202 1112q0 32 23 56t55 24t55 -24t23 -56q0 -31 -23 -53.5t-55 -22.5t-55 22.5t-23 53.5zM1237 0v854h86v-854h-86z" />
<glyph unicode="&#xfb04;" horiz-adv-x="1482" d="M23 778v43l151 19v303q0 176 78.5 272t220.5 96q71 0 133 -24l-20 -66q-49 17 -94 17q-232 0 -232 -305v-291l445 12v289q0 176 80 272t223 96q69 0 126 -9t90 -18.5t99 -33.5v-1450h-86v1403q-103 35 -215 35q-231 0 -231 -305v-279h282v-76h-282v-778h-86v778h-445 v-778h-86v778h-151z" />
</font>
</defs>
</svg>
