<?xml version="1.0" standalone="no"?>
<!DOCTYPE svg PUBLIC "-//W3C//DTD SVG 1.1//EN" "http://www.w3.org/Graphics/SVG/1.1/DTD/svg11.dtd" >
<svg xmlns="http://www.w3.org/2000/svg" xmlns:xlink="http://www.w3.org/1999/xlink" version="1.1">
<metadata></metadata>
<defs>
<font id="rns_milesblack" horiz-adv-x="1413" >
<font-face units-per-em="2048" ascent="1608" descent="-440" />
<missing-glyph horiz-adv-x="409" />
<glyph unicode="&#xfb01;" horiz-adv-x="1226" d="M10 643v86l123 121v256q0 184 97.5 299t256.5 115q73 0 149 -15.5t126 -40.5l-62 -202q-46 24 -108 24q-70 0 -112 -49.5t-42 -140.5v-228l350 23h306v-891h-306v643h-350v-643h-305v643h-123zM776 1165q0 65 47 110.5t117 45.5q71 0 118.5 -45.5t47.5 -110.5 q0 -64 -47.5 -108.5t-118.5 -44.5q-70 0 -117 44.5t-47 108.5z" />
<glyph unicode="&#xfb02;" horiz-adv-x="1216" d="M10 643v86l123 121v256q0 186 114.5 300t301.5 114q119 0 273 -30t272 -77v-1413h-306v1257q-114 29 -196 29q-70 0 -112 -49.5t-42 -140.5v-219l176 14v-248h-176v-643h-305v643h-123z" />
<glyph horiz-adv-x="0" />
<glyph horiz-adv-x="682" />
<glyph unicode=" "  horiz-adv-x="409" />
<glyph unicode="&#x09;" horiz-adv-x="409" />
<glyph unicode="&#xa0;" horiz-adv-x="409" />
<glyph unicode="!" horiz-adv-x="616" d="M143 129q0 65 47 110.5t117 45.5q72 0 119 -45t47 -111q0 -64 -47.5 -109t-118.5 -45q-70 0 -117 45t-47 109zM143 1495h328l-61 -1051h-205z" />
<glyph unicode="&#x22;" horiz-adv-x="921" d="M31 1079l260 500l196 -135l-344 -440zM424 1059l260 500l197 -136l-344 -440z" />
<glyph unicode="#" horiz-adv-x="1648" d="M72 338l53 264h256l63 289h-249l53 264h256l76 340h266l-76 -340h297l76 340h266l-76 -340h244l-53 -264h-250l-64 -289h244l-53 -264h-250l-76 -338h-266l76 338h-297l-76 -338h-266l76 338h-250zM639 592h307l70 305h-309z" />
<glyph unicode="$" horiz-adv-x="1198" d="M51 127l103 307q92 -58 208.5 -94.5t210.5 -36.5q80 0 127.5 29.5t47.5 91.5q0 34 -13 61.5t-50.5 55.5t-61.5 41.5t-87 46.5q-22 12 -34 18q-76 39 -123.5 67t-101.5 69t-84 81.5t-50 96t-20 120.5q0 156 98.5 270.5t270.5 149.5l-13 219h307l-12 -215q142 -22 301 -92 l-82 -338q-212 127 -352 127q-72 0 -110.5 -33.5t-38.5 -89.5q0 -21 5 -38t18 -32.5t24.5 -26t36.5 -25t40.5 -22t51 -24.5t53.5 -26q101 -48 166.5 -89t121 -95t81.5 -121t26 -152q0 -164 -92.5 -271.5t-249.5 -150.5l12 -231h-307l13 207q-242 19 -441 145z" />
<glyph unicode="%" horiz-adv-x="1880" d="M113 1128q0 177 101 284.5t265 107.5q165 0 266 -107.5t101 -284.5t-101 -284t-266 -107t-265.5 107t-100.5 284zM295 82l1161 1438l125 -107l-1165 -1438zM338 1128q0 -99 36.5 -152.5t104.5 -53.5t105 53.5t37 152.5t-37 153t-105 54t-104.5 -53.5t-36.5 -153.5z M1034 367q0 177 101 284t266 107t265.5 -107t100.5 -284t-101 -284.5t-265 -107.5q-165 0 -266 107.5t-101 284.5zM1260 367q0 -100 36.5 -153.5t104.5 -53.5t104.5 53.5t36.5 153.5q0 99 -36.5 152.5t-104.5 53.5t-104.5 -53.5t-36.5 -152.5z" />
<glyph unicode="&#x26;" horiz-adv-x="1402" d="M51 432q0 171 103 293t282 168l-330 602h1004v-307h-453l373 -694q78 74 119 124l213 -190q-87 -97 -197 -186l129 -242h-368l-35 63q-187 -88 -348 -88q-96 0 -184 31t-157 88t-110 144.5t-41 193.5zM420 453q0 -28 8.5 -55.5t27.5 -54.5t57 -43.5t89 -16.5q72 0 152 30 l-170 312q-75 -12 -119.5 -59t-44.5 -113z" />
<glyph unicode="'" horiz-adv-x="528" d="M61 928l261 499l196 -135l-344 -440z" />
<glyph unicode="(" horiz-adv-x="770" d="M113 528q0 289 147 550.5t428 443.5l103 -123q-201 -167 -306.5 -395.5t-105.5 -475.5q0 -246 105 -473t307 -395l-103 -125q-189 123 -319.5 286t-193 341t-62.5 366z" />
<glyph unicode=")" horiz-adv-x="770" d="M-20 -340q202 168 306.5 395t104.5 473q0 247 -105 475.5t-306 395.5l102 123q281 -182 428 -443.5t147 -550.5q0 -188 -62.5 -366t-193 -341t-319.5 -286z" />
<glyph unicode="*" horiz-adv-x="823" d="M72 1202l59 182l221 -108l-37 244h193l-35 -244l219 108l60 -182l-244 -43l174 -174l-156 -113l-114 218l-115 -218l-156 113l174 174z" />
<glyph unicode="+" horiz-adv-x="942" d="M123 662v210h235v254h226v-254h235v-210h-235v-248h-226v248h-235z" />
<glyph unicode="," horiz-adv-x="575" d="M123 127q0 71 45.5 114.5t118.5 43.5q75 0 120.5 -49.5t45.5 -129.5q0 -115 -73.5 -216t-195.5 -152l-28 45q55 47 91.5 100.5t39.5 91.5q-73 0 -118.5 42t-45.5 110z" />
<glyph unicode="-" horiz-adv-x="716" d="M92 399v205h533v-205h-533z" />
<glyph unicode="." horiz-adv-x="575" d="M123 129q0 65 47 110.5t117 45.5q71 0 118.5 -45.5t47.5 -110.5q0 -64 -47.5 -109t-118.5 -45q-70 0 -117 45t-47 109z" />
<glyph unicode="/" horiz-adv-x="776" d="M61 -440l490 1935h225l-489 -1935h-226z" />
<glyph unicode="0" horiz-adv-x="1437" d="M113 748q0 364 162.5 563.5t447.5 199.5q282 0 442 -199.5t160 -563.5t-160 -564t-442 -200q-285 0 -447.5 200t-162.5 564zM481 748q0 -233 59.5 -345t182.5 -112q120 0 176.5 111.5t56.5 345.5t-56.5 345t-176.5 111q-123 0 -182.5 -111.5t-59.5 -344.5z" />
<glyph unicode="1" horiz-adv-x="987" d="M51 1290l537 205h174v-1495h-348v1124l-269 -80z" />
<glyph unicode="2" horiz-adv-x="1259" d="M82 162q263 248 434 475q211 280 211 422q0 135 -147 135q-113 0 -326 -84l-125 270q251 140 506 140q99 0 183 -23.5t149 -69.5t102 -121.5t37 -172.5q0 -208 -168 -465q-105 -160 -299 -361h508v-307h-1004z" />
<glyph unicode="3" horiz-adv-x="1269" d="M92 57l94 279q70 -27 160 -45.5t164 -18.5q127 0 195.5 54.5t68.5 146.5q0 94 -69 144.5t-166 50.5q-88 0 -191 -29l-123 184l402 367h-494v305h973v-215l-432 -399q35 6 80 6q184 0 293.5 -106.5t109.5 -293.5q0 -229 -167.5 -370.5t-463.5 -141.5q-116 0 -232 22 t-202 60z" />
<glyph unicode="4" horiz-adv-x="1339" d="M61 270v312l752 913h272v-913h183v-312h-183v-270h-348v270h-676zM408 582h329v395z" />
<glyph unicode="5" horiz-adv-x="1280" d="M102 57l93 281q69 -29 158.5 -47.5t164.5 -18.5q129 0 197.5 54.5t68.5 146.5q0 99 -81.5 155t-223.5 56q-150 0 -289 -39l-26 31v819h921v-311h-573v-285q93 19 178 19q98 0 182 -25t151 -74.5t105.5 -133.5t38.5 -193q0 -233 -166.5 -375t-463.5 -142q-116 0 -232.5 22 t-202.5 60z" />
<glyph unicode="6" horiz-adv-x="1337" d="M113 530q0 149 50.5 291.5t152 275t268 246.5t383.5 193l123 -266q-181 -80 -321.5 -186.5t-209.5 -211.5q91 43 217 43q198 0 323.5 -121t125.5 -319q0 -220 -153.5 -360t-403.5 -140q-92 0 -174 20.5t-152 64.5t-121 108t-79.5 156.5t-28.5 205.5zM473 496 q0 -96 52 -152.5t139 -56.5q86 0 139 54t53 144t-57 145.5t-150 55.5q-79 0 -151 -35q-25 -77 -25 -155z" />
<glyph unicode="7" horiz-adv-x="1208" d="M82 1184v311h1116l-645 -1495h-369l533 1184h-635z" />
<glyph unicode="8" horiz-adv-x="1290" d="M82 395q0 120 66.5 210.5t187.5 142.5q-102 56 -157.5 148t-55.5 208q0 189 142 302.5t376 113.5q232 0 374 -114t142 -302q0 -116 -55 -208t-154 -148q119 -50 184.5 -139.5t65.5 -209.5q0 -188 -153.5 -306t-405.5 -118q-250 0 -403.5 116.5t-153.5 303.5zM453 461 q0 -78 51.5 -126t136.5 -48q84 0 135 48t51 126t-51 126t-135 48q-85 0 -136.5 -48t-51.5 -126zM461 1042q0 -82 49.5 -133t130.5 -51q80 0 129 50.5t49 133.5q0 81 -49 129t-129 48q-82 0 -131 -48.5t-49 -128.5z" />
<glyph unicode="9" horiz-adv-x="1337" d="M113 1020q0 220 153.5 360t403.5 140q92 0 174 -20.5t152 -64.5t121 -108t79.5 -156.5t28.5 -205.5q0 -149 -50.5 -291.5t-152 -275t-268 -246.5t-383.5 -193l-123 266q198 76 330 165.5t206 205.5q-98 -37 -221 -37q-197 0 -323.5 130.5t-126.5 330.5zM481 1010 q0 -93 58 -157.5t151 -64.5q79 0 162 39q33 58 33 152q0 103 -58 166t-153 63q-86 0 -139.5 -54t-53.5 -144z" />
<glyph unicode=":" horiz-adv-x="575" d="M123 129q0 65 47 110.5t117 45.5q71 0 118.5 -45.5t47.5 -110.5q0 -64 -47.5 -109t-118.5 -45q-70 0 -117 45t-47 109zM123 664q0 70 45 112.5t119 42.5q75 0 120.5 -42.5t45.5 -112.5q0 -69 -45.5 -111.5t-120.5 -42.5q-73 0 -118.5 42.5t-45.5 111.5z" />
<glyph unicode=";" horiz-adv-x="575" d="M123 127q0 71 45.5 114.5t118.5 43.5q75 0 120.5 -49.5t45.5 -129.5q0 -115 -73.5 -216t-195.5 -152l-28 45q55 47 91.5 100.5t39.5 91.5q-73 0 -118.5 42t-45.5 110zM123 664q0 70 45 112.5t119 42.5q75 0 120.5 -42.5t45.5 -112.5q0 -69 -45.5 -111.5t-120.5 -42.5 q-73 0 -118.5 42.5t-45.5 111.5z" />
<glyph unicode="&#x3c;" horiz-adv-x="813" d="M82 758l467 499l172 -178l-313 -321l313 -320l-172 -178z" />
<glyph unicode="=" horiz-adv-x="919" d="M123 481v205h674v-205h-674zM123 840v204h674v-204h-674z" />
<glyph unicode="&#x3e;" horiz-adv-x="813" d="M92 438l314 320l-314 321l172 178l467 -499l-467 -498z" />
<glyph unicode="?" horiz-adv-x="841" d="M51 1460q44 26 128 43t171 17q213 0 342 -100t129 -263q0 -48 -14 -93.5t-31.5 -77.5t-51.5 -70t-56 -58.5t-64 -56.5q-44 -38 -67 -60t-52 -56.5t-42 -69t-13 -72.5v-70h-246v90q0 52 11 100t25 81.5t40 71.5t43 58t47 54q36 42 52 61.5t32.5 54t16.5 66.5 q0 58 -43 90.5t-125 32.5q-75 0 -191 -33zM143 129q0 70 45 113t119 43q75 0 120.5 -43t45.5 -113q0 -69 -45.5 -111.5t-120.5 -42.5q-73 0 -118.5 42.5t-45.5 111.5z" />
<glyph unicode="@" horiz-adv-x="1789" d="M123 748q0 347 212.5 559.5t559.5 212.5q229 0 404.5 -91t271.5 -257.5t96 -383.5q0 -186 -93 -299.5t-245 -113.5q-97 0 -166.5 39.5t-99.5 107.5q-25 -60 -79.5 -93.5t-127.5 -33.5q-117 0 -188.5 95.5t-71.5 252.5q0 152 66.5 245t173.5 93q96 0 168 -69v53h182v-410 q0 -70 39 -113.5t104 -45.5q88 -2 141.5 78.5t53.5 213.5q0 274 -173 441.5t-456 167.5q-280 0 -453 -178.5t-176 -470.5q0 -292 173 -471t456 -179q99 0 200.5 23t168.5 61l43 -106q-84 -45 -197.5 -73t-214.5 -28q-347 0 -559.5 213t-212.5 560zM774 743 q0 -83 33.5 -133.5t89.5 -50.5q34 0 64 17t43 45v235q-13 28 -43 45t-64 17q-55 0 -89 -48.5t-34 -126.5z" />
<glyph unicode="A" d="M10 0l676 1536h41l676 -1536h-348l-88 209h-521l-88 -209h-348zM575 520h263l-131 316z" />
<glyph unicode="B" horiz-adv-x="1400" d="M164 0v1495h645q203 0 325.5 -114t122.5 -310q0 -172 -165 -291q103 -56 165 -143.5t62 -200.5q0 -196 -124 -316t-325 -120h-706zM512 311h256q84 0 135 44t51 116q0 71 -51 114.5t-135 43.5h-256v-318zM512 862h236q75 0 120 43.5t45 114.5q0 74 -45 119t-120 45h-236 v-322z" />
<glyph unicode="C" horiz-adv-x="1495" d="M123 748q0 229 94.5 404.5t266.5 271.5t395 96q149 0 282 -42.5t232 -115.5l-127 -285q-172 131 -369 131q-189 0 -296 -125t-107 -335q0 -212 106.5 -336.5t296.5 -124.5q202 0 369 129l123 -287q-100 -72 -232 -113t-278 -41q-223 0 -395 96t-266.5 272t-94.5 405z" />
<glyph unicode="D" horiz-adv-x="1597" d="M164 0v1495h573q332 0 535 -205.5t203 -541.5q0 -222 -92 -392t-259.5 -263t-386.5 -93h-573zM512 287h225q153 0 260 129t107 332q0 202 -107 331t-260 129h-225v-921z" />
<glyph unicode="E" horiz-adv-x="1218" d="M164 0v1495h911v-311h-563v-269h512v-311h-512v-293h573v-311h-921z" />
<glyph unicode="F" horiz-adv-x="1187" d="M164 0v1495h911v-311h-563v-330h492v-311h-492v-543h-348z" />
<glyph unicode="G" horiz-adv-x="1576" d="M123 748q0 229 94.5 404.5t266.5 271.5t395 96q149 0 282 -42.5t232 -115.5l-127 -285q-172 131 -369 131q-189 0 -296 -125t-107 -335q0 -212 106.5 -336.5t296.5 -124.5q87 0 188 24v228h-245v311h594v-719q-95 -70 -247.5 -113t-307.5 -43q-223 0 -395 96t-266.5 272 t-94.5 405z" />
<glyph unicode="H" horiz-adv-x="1601" d="M164 0v1495h348v-580h578v580h348v-1495h-348v604h-578v-604h-348z" />
<glyph unicode="I" horiz-adv-x="675" d="M164 0v1495h348v-1495h-348z" />
<glyph unicode="J" horiz-adv-x="1206" d="M82 78l137 266q53 -26 121.5 -41.5t126.5 -15.5q103 0 165 64.5t62 170.5l-2 973h350v-952q0 -255 -158 -411.5t-417 -156.5q-116 0 -222 28.5t-163 74.5z" />
<glyph unicode="K" horiz-adv-x="1492" d="M164 0v1495h348v-621l512 621h420l-610 -709l649 -786h-430l-541 674v-674h-348z" />
<glyph unicode="L" horiz-adv-x="1146" d="M164 0v1495h348v-1184h594v-311h-942z" />
<glyph unicode="M" horiz-adv-x="1810" d="M117 0l82 1520h20l686 -865l686 865h21l82 -1520h-348l-41 604l-390 -481h-20l-389 481l-41 -604h-348z" />
<glyph unicode="N" horiz-adv-x="1589" d="M164 0v1520h20l893 -775v750h348v-1520h-20l-893 754v-729h-348z" />
<glyph unicode="O" horiz-adv-x="1761" d="M123 748q0 347 208.5 559.5t549.5 212.5t549 -212.5t208 -559.5q0 -229 -94 -405t-266 -272t-397 -96q-341 0 -549.5 213t-208.5 560zM494 748q0 -207 107 -334t280 -127t280 127t107 334t-107 333.5t-280 126.5t-280 -126.5t-107 -333.5z" />
<glyph unicode="P" horiz-adv-x="1339" d="M164 0v1495h604q220 0 354.5 -148t134.5 -389q0 -246 -134.5 -396t-354.5 -150h-256v-412h-348zM512 723h174q91 0 146 63.5t55 167.5q0 103 -55 166.5t-146 63.5h-174v-461z" />
<glyph unicode="Q" horiz-adv-x="1761" d="M123 748q0 347 208.5 559.5t549.5 212.5t549 -212.5t208 -559.5q0 -285 -143 -482l143 -123l-219 -219l-145 146q-173 -95 -393 -95q-341 0 -549.5 213t-208.5 560zM494 748q0 -207 107 -334t280 -127q77 0 147 28l-162 160l178 178l175 -149q49 111 49 244 q0 207 -107 333.5t-280 126.5t-280 -126.5t-107 -333.5z" />
<glyph unicode="R" horiz-adv-x="1402" d="M164 0v1495h584q220 0 354.5 -141.5t134.5 -374.5q0 -148 -55 -263.5t-156 -183.5l367 -532h-396l-280 453h-205v-453h-348zM512 764h154q112 0 166.5 52t54.5 159q0 106 -54.5 157.5t-166.5 51.5h-154v-420z" />
<glyph unicode="S" horiz-adv-x="1198" d="M51 127l103 307q92 -58 208.5 -94.5t210.5 -36.5q80 0 127.5 29.5t47.5 91.5q0 34 -13 61.5t-50.5 55.5t-61.5 41.5t-87 46.5q-22 12 -34 18q-76 39 -123.5 67t-101.5 69t-84 81.5t-50 96t-20 120.5q0 188 139.5 313.5t372.5 125.5q203 0 440 -107l-82 -338 q-212 127 -352 127q-72 0 -110.5 -33.5t-38.5 -89.5q0 -21 5 -38t18 -32.5t24.5 -26t36.5 -25t40.5 -22t51 -24.5t53.5 -26q101 -48 166.5 -89t121 -95t81.5 -121t26 -152q0 -110 -44 -197.5t-120.5 -142.5t-175 -84t-211.5 -29q-130 0 -264 39.5t-250 112.5z" />
<glyph unicode="T" horiz-adv-x="1331" d="M51 1184v311h1229v-311h-440v-1184h-348v1184h-441z" />
<glyph unicode="U" horiz-adv-x="1601" d="M164 543v952h352l-2 -932q0 -118 80 -197t207 -79q128 0 208.5 79t80.5 197l-3 932h351v-952q0 -255 -175 -411.5t-462 -156.5t-462 156.5t-175 411.5z" />
<glyph unicode="V" d="M10 1495h389l308 -807l327 807h369l-676 -1520h-41z" />
<glyph unicode="W" horiz-adv-x="1843" d="M10 1495h348l189 -715l354 740h41l354 -740l189 715h348l-461 -1520h-20l-430 856l-430 -856h-21z" />
<glyph unicode="X" horiz-adv-x="1433" d="M41 0l469 764l-469 731h389l287 -473l287 473h389l-469 -731l469 -764h-389l-287 489l-287 -489h-389z" />
<glyph unicode="Y" horiz-adv-x="1331" d="M10 1495h410l246 -602l266 602h389l-481 -934v-561h-348v561z" />
<glyph unicode="Z" horiz-adv-x="1464" d="M82 41l725 1143h-664v311h1239l11 -41l-725 -1143h708v-311h-1284z" />
<glyph unicode="[" horiz-adv-x="716" d="M164 -440v1935h512v-225h-266v-1485h266v-225h-512z" />
<glyph unicode="\" horiz-adv-x="776" d="M0 1495h225l490 -1935h-226z" />
<glyph unicode="]" horiz-adv-x="727" d="M164 -215h266v1485h-266v225h512v-1935h-512v225z" />
<glyph unicode="^" horiz-adv-x="1028" d="M123 1014l330 397h125l327 -397h-254l-137 176l-137 -176h-254z" />
<glyph unicode="_" horiz-adv-x="1167" d="M41 0v184h1085v-184h-1085z" />
<glyph unicode="`" horiz-adv-x="1036" d="M184 1182l129 237l396 -299l-82 -131z" />
<glyph unicode="a" horiz-adv-x="1007" d="M61 250q0 123 91 202.5t237 79.5q89 0 211 -36q0 89 -39.5 134.5t-122.5 51.5q-8 1 -20 1q-31 0 -85 -6q-75 -8 -120 -20l-51 193q85 29 185.5 47t182.5 18q169 0 272 -113.5t103 -299.5v-502h-305v51q-104 -76 -211 -76q-147 0 -237.5 77t-90.5 198zM348 260 q0 -38 33.5 -61t89.5 -23q50 0 129 37v113q-70 24 -129 24q-57 0 -90 -23.5t-33 -66.5z" />
<glyph unicode="b" horiz-adv-x="1140" d="M123 0v1495h305v-633q95 53 211 53q194 0 312 -129.5t118 -343.5q0 -211 -118 -339t-312 -128q-113 0 -211 72v-47h-305zM428 270q31 -32 76.5 -50.5t93.5 -18.5q77 0 123.5 66t46.5 175q0 107 -47 173.5t-123 66.5q-105 0 -170 -59v-353z" />
<glyph unicode="c" horiz-adv-x="882" d="M72 440q0 224 128 349.5t343 125.5q73 0 152.5 -24t135.5 -62l-104 -188q-87 49 -154 49q-90 0 -145 -67.5t-55 -176.5q0 -110 54.5 -177.5t145.5 -67.5q87 0 154 41l104 -181q-48 -39 -126.5 -62.5t-161.5 -23.5q-212 0 -341.5 128t-129.5 337z" />
<glyph unicode="d" horiz-adv-x="1140" d="M72 442q0 210 118.5 341.5t311.5 131.5q108 0 211 -67v647h305v-1495h-305v47q-98 -72 -211 -72q-194 0 -312 128t-118 339zM373 442q0 -109 46.5 -175t123.5 -66q48 0 93.5 18.5t76.5 50.5v353q-65 59 -170 59q-76 0 -123 -66.5t-47 -173.5z" />
<glyph unicode="e" horiz-adv-x="1073" d="M72 446q0 211 129.5 340t341.5 129q146 0 254.5 -63.5t161.5 -164.5t53 -222q0 -52 -13 -115h-630q15 -66 86.5 -108.5t175.5 -42.5q125 0 268 51l45 -168q-192 -107 -391 -107q-100 0 -186.5 30t-152.5 87.5t-104 148.5t-38 205zM365 512h337q0 78 -49 125 q-47 45 -123 45h-6q-65 -1 -108 -49.5t-51 -120.5z" />
<glyph unicode="f" horiz-adv-x="761" d="M10 643v86l123 121v256q0 184 97.5 299t256.5 115q73 0 149 -15.5t126 -40.5l-62 -202q-46 24 -108 24q-70 0 -112 -49.5t-42 -140.5v-224l269 19v-248h-269v-643h-305v643h-123z" />
<glyph unicode="g" horiz-adv-x="1003" d="M61 -176q0 159 113 237q-31 45 -31 97q0 86 82 145q-123 88 -123 268q0 164 104 254t296 90l430 15l10 -197l-82 17q41 -74 41 -179q0 -164 -103.5 -253t-295.5 -89q-66 0 -91.5 -10t-25.5 -35t24.5 -35t88.5 -10q216 0 330 -78.5t114 -232.5q0 -148 -111.5 -220.5 t-341.5 -72.5q-214 0 -321 67t-107 222zM344 -160q0 -76 156 -76q159 0 159 76q0 43 -37.5 60.5t-121.5 17.5q-82 0 -119 -17.5t-37 -60.5zM375 573q0 -56 33 -85t96 -29t96 29t33 85q0 59 -33 90t-96 31t-96 -31t-33 -90z" />
<glyph unicode="h" horiz-adv-x="1138" d="M123 0v1495h305v-696q45 52 115.5 84t138.5 32q159 0 256.5 -114.5t97.5 -298.5v-502h-305v492q0 91 -41.5 140.5t-111.5 49.5q-81 0 -150 -76v-606h-305z" />
<glyph unicode="i" horiz-adv-x="571" d="M121 1165q0 65 47 110.5t117 45.5q71 0 118.5 -45.5t47.5 -110.5q0 -64 -47.5 -108.5t-118.5 -44.5q-70 0 -117 44.5t-47 108.5zM133 0v891h305v-891h-305z" />
<glyph unicode="j" horiz-adv-x="571" d="M-123 -406l21 240q55 -10 110 -10q57 0 91 36t34 95v936h305v-957q0 -169 -98 -271.5t-258 -102.5q-89 0 -205 34zM121 1165q0 65 47 110.5t117 45.5q71 0 118.5 -45.5t47.5 -110.5q0 -64 -47.5 -108.5t-118.5 -44.5q-70 0 -117 44.5t-47 108.5z" />
<glyph unicode="k" horiz-adv-x="1110" d="M123 0v1495h305v-952l242 348h348l-305 -395l397 -496h-379l-303 387v-387h-305z" />
<glyph unicode="l" horiz-adv-x="550" d="M123 0v1495h305v-1495h-305z" />
<glyph unicode="m" horiz-adv-x="1746" d="M123 0v891h305v-92q45 52 115.5 84t138.5 32q97 0 173.5 -45.5t123.5 -126.5q62 77 147 124.5t164 47.5q159 0 257 -114.5t98 -298.5v-502h-306v492q0 91 -41.5 140.5t-111.5 49.5q-76 0 -150 -74v-608h-305v492q0 91 -41.5 140.5t-111.5 49.5q-81 0 -150 -76v-606h-305z " />
<glyph unicode="n" horiz-adv-x="1138" d="M123 0v891h305v-92q45 52 115.5 84t138.5 32q159 0 256.5 -114.5t97.5 -298.5v-502h-305v492q0 91 -41.5 140.5t-111.5 49.5q-81 0 -150 -76v-606h-305z" />
<glyph unicode="o" horiz-adv-x="1085" d="M72 446q0 211 129.5 340t341.5 129t341.5 -129t129.5 -340q0 -212 -129.5 -341.5t-341.5 -129.5t-341.5 129.5t-129.5 341.5zM373 446q0 -118 44 -181.5t126 -63.5t126 63.5t44 181.5q0 117 -44 180.5t-126 63.5t-126 -63.5t-44 -180.5z" />
<glyph unicode="p" horiz-adv-x="1150" d="M133 -440v1331h305v-47q93 71 211 71q194 0 312 -129.5t118 -343.5q0 -211 -118 -339t-312 -128q-112 0 -211 60v-475h-305zM438 270q31 -32 76.5 -50.5t93.5 -18.5q77 0 123.5 66t46.5 175q0 107 -47 173.5t-123 66.5q-105 0 -170 -59v-353z" />
<glyph unicode="q" horiz-adv-x="1140" d="M72 442q0 210 118.5 341.5t311.5 131.5q114 0 211 -65v41h305v-1331h-305v475q-99 -60 -211 -60q-194 0 -312 128t-118 339zM373 442q0 -109 46.5 -175t123.5 -66q48 0 93.5 18.5t76.5 50.5v353q-65 59 -170 59q-76 0 -123 -66.5t-47 -173.5z" />
<glyph unicode="r" horiz-adv-x="782" d="M123 0v891h305v-92q107 116 295 116v-253q-43 5 -82 5q-133 0 -213 -61v-606h-305z" />
<glyph unicode="s" horiz-adv-x="845" d="M61 70l80 227q66 -36 145 -63t132 -27q63 0 63 39q0 21 -23 39t-80 49q-20 10 -30 16q-29 16 -46 26t-45.5 29t-46 35t-39 39.5t-33.5 47t-20.5 54.5t-8.5 64q0 118 92.5 193t249.5 75q142 0 297 -63l-66 -246q-137 74 -223 74q-53 0 -53 -33q0 -12 7 -23t23.5 -22.5 t29 -18.5t38.5 -19.5t37 -18.5q38 -19 63 -33.5t60.5 -41.5t56.5 -55t37 -69.5t16 -89.5q0 -133 -103.5 -203.5t-262.5 -70.5q-188 0 -347 90z" />
<glyph unicode="t" horiz-adv-x="761" d="M0 643v86l123 121v256l305 102v-336l268 19v-248h-268v-244q0 -91 42 -140.5t112 -49.5q62 0 108 24l62 -141q-43 -52 -119 -84.5t-156 -32.5q-159 0 -256.5 115t-97.5 299v254h-123z" />
<glyph unicode="u" horiz-adv-x="1118" d="M102 389v502h306v-492q0 -92 41.5 -145t111.5 -53q80 0 129 75v615h305v-891h-305v92q-93 -117 -233 -117q-159 0 -257 115t-98 299z" />
<glyph unicode="v" horiz-adv-x="993" d="M10 891h330l158 -379l155 379h330l-453 -916h-67z" />
<glyph unicode="w" horiz-adv-x="1464" d="M20 891h330l142 -354l206 378h68l209 -378l139 354h330l-371 -916h-67l-273 498l-274 -498h-68z" />
<glyph unicode="x" horiz-adv-x="1048" d="M20 0l306 446l-306 445h342l162 -285l162 285h342l-305 -445l305 -446h-350l-154 283l-151 -283h-353z" />
<glyph unicode="y" horiz-adv-x="1091" d="M10 891h342l195 -488l192 488h342l-612 -1331h-348l276 536z" />
<glyph unicode="z" horiz-adv-x="940" d="M41 20l385 631h-365v240h797l10 -21l-385 -630h410v-240h-842z" />
<glyph unicode="{" horiz-adv-x="663" d="M51 426v205h47q57 0 92 36.5t35 96.5v356q0 180 118 290t310 110v-226q-82 0 -132 -61.5t-50 -161.5v-311q0 -72 -43.5 -136t-114.5 -96q71 -32 114.5 -95.5t43.5 -135.5v-311q0 -101 50 -163.5t132 -62.5v-225q-192 0 -310 110.5t-118 291.5v356q0 60 -35 96.5t-92 36.5 h-47z" />
<glyph unicode="|" horiz-adv-x="593" d="M184 -440v1935h226v-1935h-226z" />
<glyph unicode="}" horiz-adv-x="663" d="M10 -240q82 0 132.5 62.5t50.5 163.5v311q0 72 43 135.5t114 95.5q-71 32 -114 96t-43 136v311q0 100 -50.5 161.5t-132.5 61.5v226q192 0 310 -110t118 -290v-356q0 -60 35 -96.5t92 -36.5h47v-205h-47q-57 0 -92 -36.5t-35 -96.5v-356q0 -181 -118 -291.5t-310 -110.5 v225z" />
<glyph unicode="~" horiz-adv-x="1046" d="M133 784q51 58 117 94.5t137 36.5q28 0 56.5 -7t43 -13.5t43.5 -20.5q70 -34 115 -34t89 22t77 60l102 -172q-122 -132 -256 -132q-13 0 -24.5 1t-24 4.5t-20 5.5t-20.5 7.5t-17.5 7.5t-19 9.5t-17.5 8.5t-8 4q-71 31 -115 32q-97 0 -166 -82z" />
<glyph unicode="&#xa1;" horiz-adv-x="616" d="M143 -440l62 1050h205l61 -1050h-328zM143 926q0 64 47 108.5t117 44.5q71 0 118.5 -44.5t47.5 -108.5q0 -66 -47 -111t-119 -45q-70 0 -117 45.5t-47 110.5z" />
<glyph unicode="&#xa2;" horiz-adv-x="833" d="M61 750q0 171 88 287t238 147l-18 188h225l-19 -186q108 -21 177 -62l-74 -192q-72 43 -158 43q-78 0 -126 -62t-48 -163q0 -91 46.5 -146t121.5 -55q88 0 172 41l66 -184q-64 -51 -172 -70l18 -172h-225l18 172q-152 29 -241 140t-89 274z" />
<glyph unicode="&#xa3;" horiz-adv-x="1280" d="M92 0v285h213v315h-192v64l192 178v170q0 229 141 368.5t373 139.5q94 0 194 -29t169 -74l-113 -258q-97 60 -188 60q-103 0 -165.5 -63t-62.5 -183v-107h322v-266h-322v-313h545v-287h-1106z" />
<glyph unicode="&#xa4;" horiz-adv-x="919" d="M41 297l127 115q-41 74 -41 174q0 94 39 170l-125 110l135 135l111 -127q74 41 174 41q98 0 172 -38l110 124l136 -135l-125 -110q39 -76 39 -170q0 -100 -41 -174l127 -115l-136 -135l-112 131q-76 -39 -170 -39q-96 0 -172 39l-113 -131zM367 586q0 -57 25.5 -92 t68.5 -35q41 0 66.5 35t25.5 92t-25.5 91t-66.5 34q-43 0 -68.5 -34t-25.5 -91z" />
<glyph unicode="&#xa5;" horiz-adv-x="1331" d="M10 1495h410l246 -604l266 604h389l-383 -743h260v-203h-358v-146h358v-202h-358v-201h-348v201h-359v202h359v146h-359v203h260z" />
<glyph unicode="&#xa6;" horiz-adv-x="593" d="M184 328h226v-768h-226v768zM184 748v747h226v-747h-226z" />
<glyph unicode="&#xa7;" horiz-adv-x="1226" d="M92 104l92 287q111 -61 227 -98t191 -37q54 0 86.5 20.5t32.5 51.5q0 19 -12 33t-43.5 26t-57.5 19t-82 20q-37 9 -58.5 14t-60 16t-62.5 20.5t-57.5 25t-54.5 31t-45 38t-37.5 47t-22.5 56t-9 67.5q0 69 31 123t96 105q-74 71 -74 186q0 165 133.5 265t333.5 100 q195 0 389 -84l-70 -293q-187 102 -348 102q-114 0 -114 -61q0 -34 36.5 -53t110.5 -37q10 -2 32 -7q186 -42 272 -86q167 -85 167 -237q0 -40 -10.5 -72.5t-32.5 -60t-42 -46t-54 -44.5q88 -78 88 -205q0 -166 -133.5 -263.5t-351.5 -97.5q-128 0 -255 34t-231 95zM414 791 q0 -26 13.5 -47t34.5 -35.5t55.5 -27.5t68.5 -22.5t81 -21.5q26 -6 40 -10q10 -5 28 -9q42 14 63 39.5t21 55.5q0 21 -8.5 38.5t-28.5 32t-38 25t-51 22t-53 17.5t-58 16l-76 21q-92 -17 -92 -94z" />
<glyph unicode="&#xa8;" horiz-adv-x="1112" d="M184 1165q0 65 47 110.5t117 45.5q71 0 117.5 -45.5t46.5 -110.5q0 -64 -46.5 -108.5t-117.5 -44.5q-70 0 -117 44.5t-47 108.5zM598 1165q0 65 47 110.5t117 45.5q71 0 118.5 -45.5t47.5 -110.5q0 -64 -47.5 -108.5t-118.5 -44.5q-70 0 -117 44.5t-47 108.5z" />
<glyph unicode="&#xa9;" horiz-adv-x="1748" d="M102 748q0 347 212.5 559.5t559.5 212.5t560 -212.5t213 -559.5t-213 -560t-560 -213t-559.5 213t-212.5 560zM246 748q0 -292 172.5 -471t455.5 -179t456 179t173 471t-173 470.5t-456 178.5t-455.5 -178.5t-172.5 -470.5zM481 748q0 190 118 306.5t310 116.5 q67 0 139 -19t123 -50l-73 -152q-66 37 -189 37q-101 0 -163 -66t-62 -173t62 -172.5t163 -65.5q121 0 197 37l65 -144q-42 -35 -114 -56t-148 -21q-192 0 -310 116t-118 306z" />
<glyph unicode="&#xaa;" horiz-adv-x="677" d="M61 1122q0 72 55.5 115t141.5 43q46 0 121 -20v8q0 51 -26.5 81.5t-71.5 30.5q-55 0 -125 -16l-33 125q100 31 223 31q103 0 166 -68t63 -178v-301h-196v28q-61 -43 -121 -43q-89 0 -143 45.5t-54 118.5zM246 1122q0 -26 17.5 -40.5t47.5 -14.5q33 0 68 18v78 q-54 15 -68 15q-29 0 -47 -15.5t-18 -40.5z" />
<glyph unicode="&#xab;" horiz-adv-x="1044" d="M92 358l215 328h246l-236 -328l236 -338h-246zM502 358l215 328h246l-236 -328l236 -338h-246z" />
<glyph unicode="&#xac;" horiz-adv-x="1064" d="M123 666v204h819v-553h-225v349h-594z" />
<glyph unicode="&#xad;" horiz-adv-x="716" d="M92 399v205h533v-205h-533z" />
<glyph unicode="&#xae;" horiz-adv-x="811" d="M41 1159q0 163 97 262t257 99q169 0 272 -99t103 -262t-103 -261.5t-272 -98.5q-160 0 -257 98.5t-97 261.5zM109 1159q0 -134 78.5 -215.5t207.5 -81.5q138 0 222.5 81.5t84.5 215.5t-84.5 215.5t-222.5 81.5q-129 0 -207.5 -81.5t-78.5 -215.5zM276 987v352q51 7 107 7 q77 0 117.5 -32.5t40.5 -88.5q0 -34 -16.5 -61.5t-43.5 -41.5l84 -135h-100l-64 113h-36v-113h-89zM365 1171h32q23 0 37.5 14.5t14.5 37.5q0 20 -13 32.5t-35 12.5h-36v-97z" />
<glyph unicode="&#xaf;" horiz-adv-x="999" d="M205 1038v213h590v-213h-590z" />
<glyph unicode="&#xb0;" horiz-adv-x="843" d="M123 1231q0 130 82 209.5t217 79.5t217 -79.5t82 -209.5t-82 -209.5t-217 -79.5t-217 79.5t-82 209.5zM301 1231q0 -64 33.5 -104t87.5 -40t87.5 40t33.5 104t-33.5 103.5t-87.5 39.5t-87.5 -39.5t-33.5 -103.5z" />
<glyph unicode="&#xb1;" horiz-adv-x="942" d="M123 184v205h696v-205h-696zM123 662v210h235v254h226v-254h235v-210h-235v-187h-226v187h-235z" />
<glyph unicode="&#xb2;" horiz-adv-x="464" d="M10 1092q78 68 129 139q58 78 58 117q0 22 -27 22q-29 0 -98 -27l-52 113q79 47 177 47q70 0 113.5 -33.5t43.5 -91.5q0 -63 -43 -137q-33 -56 -71 -90h122v-127h-325z" />
<glyph unicode="&#xb3;" horiz-adv-x="485" d="M35 1038l37 115q54 -16 94 -16q30 0 43.5 12t13.5 29q0 20 -15.5 30.5t-33.5 10.5q-22 0 -55 -11l-51 78l106 84h-123v125h320v-92l-123 -98q3 0 9.5 1t14.5 1q47 0 79 -33t32 -90q0 -75 -56.5 -121.5t-156.5 -46.5q-74 0 -135 22z" />
<glyph unicode="&#xb4;" horiz-adv-x="1228" d="M463 1126l387 291l121 -246l-436 -182z" />
<glyph unicode="&#xb5;" horiz-adv-x="1138" d="M123 -440v1331h305v-492q0 -91 42 -144.5t112 -53.5q80 0 129 75v615h305v-891h-305v92q-93 -117 -234 -117q-59 0 -123 33l33 -448h-264z" />
<glyph unicode="&#xb6;" horiz-adv-x="1439" d="M31 891q0 187 98.5 330t278.5 221t415 78q177 0 453 -35v-1485h-256v1225q-52 7 -166 10v-1235h-256v1223q-138 -15 -224.5 -109t-86.5 -223q0 -103 49.5 -170t136.5 -92v-262q-204 35 -323 175t-119 349z" />
<glyph unicode="&#xb7;" horiz-adv-x="575" d="M123 750q0 75 45 120t119 45q75 0 120.5 -45t45.5 -120q0 -74 -45.5 -119t-120.5 -45q-73 0 -118.5 45t-45.5 119z" />
<glyph unicode="&#xb8;" horiz-adv-x="1005" d="M236 -391l65 133q53 -30 112.5 -49t98.5 -19q36 0 55 16t19 36q0 34 -55.5 52.5t-147.5 18.5l-10 17l71 227l113 -25l-27 -98q110 -23 175 -72.5t65 -121.5q0 -78 -73 -132.5t-185 -54.5q-135 0 -276 72z" />
<glyph unicode="&#xb9;" horiz-adv-x="399" d="M31 1419l192 74h74v-469h-143v319l-84 -24z" />
<glyph unicode="&#xba;" horiz-adv-x="714" d="M72 1235q0 128 78.5 206.5t205.5 78.5q129 0 208 -78.5t79 -206.5q0 -127 -79 -205t-208 -78q-128 0 -206 78t-78 205zM266 1235q0 -139 90 -139q93 0 93 139t-93 139q-90 0 -90 -139z" />
<glyph unicode="&#xbb;" horiz-adv-x="1044" d="M82 20l235 338l-235 328h246l215 -328l-215 -338h-246zM492 20l235 338l-235 328h245l215 -328l-215 -338h-245z" />
<glyph unicode="&#xbc;" horiz-adv-x="1355" d="M61 49l1143 1471l90 -74l-1142 -1471zM115 1419l192 74h74v-469h-143v319l-84 -24zM829 61v134l236 278h106v-283h52v-129h-52v-61h-143v61h-199zM969 190h59v70z" />
<glyph unicode="&#xbd;" horiz-adv-x="1355" d="M61 49l1143 1471l90 -74l-1142 -1471zM115 1419l192 74h74v-469h-143v319l-84 -24zM877 68q78 68 129 139q57 77 57 117q0 22 -27 22q-29 0 -98 -27l-51 113q79 47 176 47q70 0 114 -33.5t44 -91.5q0 -63 -43 -137q-32 -54 -72 -90h123v-127h-326z" />
<glyph unicode="&#xbe;" horiz-adv-x="1355" d="M61 49l1143 1471l90 -74l-1142 -1471zM76 1038l37 115q54 -16 94 -16q30 0 43.5 12t13.5 29q0 20 -15.5 30.5t-33.5 10.5q-22 0 -55 -11l-51 78l106 84h-123v125h320v-92l-123 -98q3 0 9.5 1t14.5 1q47 0 79 -33t32 -90q0 -75 -56 -121.5t-157 -46.5q-74 0 -135 22z M829 61v134l236 278h106v-283h52v-129h-52v-61h-143v61h-199zM969 190h59v70z" />
<glyph unicode="&#xbf;" horiz-adv-x="841" d="M20 338q0 48 14 93.5t31.5 77.5t52.5 70.5t56.5 58t63.5 56.5q44 38 67 60t52 56.5t42 69t13 72.5v70h245v-90q0 -64 -13.5 -119t-42 -102t-50 -74.5t-59.5 -69.5q-36 -42 -52 -61.5t-32.5 -54t-16.5 -66.5q0 -58 43 -90.5t125 -32.5q75 0 191 33l41 -260 q-44 -26 -128 -43t-171 -17q-213 0 -342.5 100t-129.5 263zM369 1366q0 69 45.5 111.5t120.5 42.5q73 0 118 -42.5t45 -111.5q0 -70 -44.5 -113t-118.5 -43q-75 0 -120.5 43t-45.5 113z" />
<glyph unicode="&#xc0;" d="M10 0l676 1536h41l676 -1536h-348l-88 209h-521l-88 -209h-348zM403 1786l129 237l396 -299l-82 -131zM575 520h263l-131 316z" />
<glyph unicode="&#xc1;" d="M10 0l676 1536h41l676 -1536h-348l-88 209h-521l-88 -209h-348zM555 1731l387 290l121 -245l-436 -183zM575 520h263l-131 316z" />
<glyph unicode="&#xc2;" d="M10 0l676 1536h41l676 -1536h-348l-88 209h-521l-88 -209h-348zM322 1622l344 397h82l344 -397h-256l-129 170l-129 -170h-256zM575 520h263l-131 316z" />
<glyph unicode="&#xc3;" d="M10 0l676 1536h41l676 -1536h-348l-88 209h-521l-88 -209h-348zM315 1757q41 75 108.5 120.5t135.5 45.5q63 0 124 -19.5t111.5 -39t88.5 -19.5q61 0 121 47l92 -114q-99 -152 -244 -152q-69 0 -166.5 38t-140.5 38q-69 0 -137 -57zM575 520h263l-131 316z" />
<glyph unicode="&#xc4;" d="M10 0l676 1536h41l676 -1536h-348l-88 209h-521l-88 -209h-348zM336 1769q0 65 47 110.5t117 45.5q71 0 117.5 -45.5t46.5 -110.5q0 -64 -46.5 -108.5t-117.5 -44.5q-70 0 -117 44.5t-47 108.5zM575 520h263l-131 316zM750 1769q0 65 46.5 110.5t116.5 45.5 q71 0 118.5 -45.5t47.5 -110.5q0 -64 -47.5 -108.5t-118.5 -44.5q-70 0 -116.5 44.5t-46.5 108.5z" />
<glyph unicode="&#xc5;" d="M10 0l676 1536h41l676 -1536h-348l-88 209h-521l-88 -209h-348zM440 1821q0 104 75.5 180t189.5 76q115 0 190.5 -76t75.5 -180t-75.5 -180t-190.5 -76q-114 0 -189.5 76t-75.5 180zM575 520h263l-131 316zM606 1821q0 -52 28.5 -84.5t70.5 -32.5q43 0 72.5 32.5 t29.5 84.5q0 49 -29.5 82.5t-72.5 33.5q-42 0 -70.5 -32t-28.5 -84z" />
<glyph unicode="&#xc6;" horiz-adv-x="2058" d="M10 0l973 1495h932v-311h-563v-269h512v-311h-512v-293h573v-311h-921l2 209h-517l-131 -209h-348zM686 520h324l8 527z" />
<glyph unicode="&#xc7;" horiz-adv-x="1495" d="M123 748q0 229 94.5 404.5t266.5 271.5t395 96q149 0 282 -42.5t232 -115.5l-127 -285q-172 131 -369 131q-189 0 -296 -125t-107 -335q0 -212 106.5 -336.5t296.5 -124.5q202 0 369 129l123 -287q-94 -67 -217.5 -108.5t-258.5 -45.5l-16 -57q110 -23 175 -72.5 t65 -121.5q0 -78 -73 -132.5t-185 -54.5q-136 0 -277 72l66 133q53 -30 112.5 -49t98.5 -19q36 0 54.5 16t18.5 36q0 34 -55 52.5t-147 18.5l-11 17l54 166q-303 28 -486.5 236.5t-183.5 531.5z" />
<glyph unicode="&#xc8;" horiz-adv-x="1218" d="M164 0v1495h911v-311h-563v-269h512v-311h-512v-293h573v-311h-921zM307 1786l129 237l395 -299l-81 -131z" />
<glyph unicode="&#xc9;" horiz-adv-x="1218" d="M164 0v1495h911v-311h-563v-269h512v-311h-512v-293h573v-311h-921zM459 1731l387 290l121 -245l-437 -183z" />
<glyph unicode="&#xca;" horiz-adv-x="1218" d="M164 0v1495h911v-311h-563v-269h512v-311h-512v-293h573v-311h-921zM225 1622l344 397h82l344 -397h-256l-129 170l-129 -170h-256z" />
<glyph unicode="&#xcb;" horiz-adv-x="1218" d="M164 0v1495h911v-311h-563v-269h512v-311h-512v-293h573v-311h-921zM240 1769q0 65 46.5 110.5t116.5 45.5q71 0 117.5 -45.5t46.5 -110.5q0 -64 -46.5 -108.5t-117.5 -44.5q-70 0 -116.5 44.5t-46.5 108.5zM653 1769q0 65 47 110.5t117 45.5q71 0 118.5 -45.5 t47.5 -110.5q0 -64 -47.5 -108.5t-118.5 -44.5q-70 0 -117 44.5t-47 108.5z" />
<glyph unicode="&#xcc;" horiz-adv-x="675" d="M35 1786l129 237l395 -299l-82 -131zM164 0v1495h348v-1495h-348z" />
<glyph unicode="&#xcd;" horiz-adv-x="675" d="M164 0v1495h348v-1495h-348zM186 1731l387 290l121 -245l-436 -183z" />
<glyph unicode="&#xce;" horiz-adv-x="675" d="M-47 1622l344 397h82l344 -397h-256l-129 170l-129 -170h-256zM164 0v1495h348v-1495h-348z" />
<glyph unicode="&#xcf;" horiz-adv-x="675" d="M-33 1769q0 65 47 110.5t117 45.5q71 0 117.5 -45.5t46.5 -110.5q0 -64 -46.5 -108.5t-117.5 -44.5q-70 0 -117 44.5t-47 108.5zM164 0v1495h348v-1495h-348zM381 1769q0 65 47 110.5t117 45.5q71 0 118.5 -45.5t47.5 -110.5q0 -64 -47.5 -108.5t-118.5 -44.5 q-70 0 -117 44.5t-47 108.5z" />
<glyph unicode="&#xd0;" horiz-adv-x="1597" d="M14 649v223h150v623h573q332 0 535 -205.5t203 -541.5q0 -222 -92 -392t-259.5 -263t-386.5 -93h-573v649h-150zM512 287h225q153 0 260 129t107 332q0 202 -107 331t-260 129h-225v-336h240v-223h-240v-362z" />
<glyph unicode="&#xd1;" horiz-adv-x="1589" d="M164 0v1520h20l893 -775v750h348v-1520h-20l-893 754v-729h-348zM332 1757q41 75 108 120.5t135 45.5q63 0 124 -19.5t111.5 -39t88.5 -19.5q61 0 121 47l92 -114q-99 -152 -244 -152q-69 0 -166.5 38t-140.5 38q-69 0 -137 -57z" />
<glyph unicode="&#xd2;" horiz-adv-x="1761" d="M123 748q0 347 208.5 559.5t549.5 212.5t549 -212.5t208 -559.5q0 -229 -94 -405t-266 -272t-397 -96q-341 0 -549.5 213t-208.5 560zM494 748q0 -207 107 -334t280 -127t280 127t107 334t-107 333.5t-280 126.5t-280 -126.5t-107 -333.5zM567 1786l129 237l396 -299 l-82 -131z" />
<glyph unicode="&#xd3;" horiz-adv-x="1761" d="M123 748q0 347 208.5 559.5t549.5 212.5t549 -212.5t208 -559.5q0 -229 -94 -405t-266 -272t-397 -96q-341 0 -549.5 213t-208.5 560zM494 748q0 -207 107 -334t280 -127t280 127t107 334t-107 333.5t-280 126.5t-280 -126.5t-107 -333.5zM719 1731l387 290l121 -245 l-436 -183z" />
<glyph unicode="&#xd4;" horiz-adv-x="1761" d="M123 748q0 347 208.5 559.5t549.5 212.5t549 -212.5t208 -559.5q0 -229 -94 -405t-266 -272t-397 -96q-341 0 -549.5 213t-208.5 560zM485 1622l344 397h82l344 -397h-256l-129 170l-129 -170h-256zM494 748q0 -207 107 -334t280 -127t280 127t107 334t-107 333.5 t-280 126.5t-280 -126.5t-107 -333.5z" />
<glyph unicode="&#xd5;" horiz-adv-x="1761" d="M123 748q0 347 208.5 559.5t549.5 212.5t549 -212.5t208 -559.5q0 -229 -94 -405t-266 -272t-397 -96q-341 0 -549.5 213t-208.5 560zM479 1757q41 75 108.5 120.5t135.5 45.5q63 0 124 -19.5t111.5 -39t88.5 -19.5q60 0 120 47l93 -114q-99 -152 -244 -152 q-69 0 -166.5 38t-140.5 38q-70 0 -138 -57zM494 748q0 -207 107 -334t280 -127t280 127t107 334t-107 333.5t-280 126.5t-280 -126.5t-107 -333.5z" />
<glyph unicode="&#xd6;" horiz-adv-x="1761" d="M123 748q0 347 208.5 559.5t549.5 212.5t549 -212.5t208 -559.5q0 -229 -94 -405t-266 -272t-397 -96q-341 0 -549.5 213t-208.5 560zM494 748q0 -207 107 -334t280 -127t280 127t107 334t-107 333.5t-280 126.5t-280 -126.5t-107 -333.5zM500 1769q0 65 47 110.5 t117 45.5q71 0 117 -45t46 -111q0 -64 -46 -108.5t-117 -44.5q-70 0 -117 44.5t-47 108.5zM913 1769q0 65 47 110.5t117 45.5q71 0 118.5 -45.5t47.5 -110.5q0 -64 -47.5 -108.5t-118.5 -44.5q-70 0 -117 44.5t-47 108.5z" />
<glyph unicode="&#xd7;" horiz-adv-x="946" d="M133 559l193 201l-193 201l150 149l190 -199l191 199l149 -149l-195 -201l195 -201l-149 -149l-191 196l-190 -196z" />
<glyph unicode="&#xd8;" horiz-adv-x="1761" d="M61 160l170 159q-108 184 -108 429q0 347 208.5 559.5t549.5 212.5q277 0 477 -148l158 148l184 -185l-170 -159q108 -184 108 -428q0 -229 -94 -405t-266 -272t-397 -96q-278 0 -478 148l-157 -148zM494 748q0 -94 20 -164l590 551q-92 73 -223 73q-173 0 -280 -126.5 t-107 -333.5zM657 360q92 -73 224 -73q173 0 280 127t107 334q0 90 -21 163z" />
<glyph unicode="&#xd9;" horiz-adv-x="1601" d="M164 543v952h352l-2 -932q0 -118 80 -197t207 -79q128 0 208.5 79t80.5 197l-3 932h351v-952q0 -255 -175 -411.5t-462 -156.5t-462 156.5t-175 411.5zM498 1786l129 237l395 -299l-82 -131z" />
<glyph unicode="&#xda;" horiz-adv-x="1601" d="M164 543v952h352l-2 -932q0 -118 80 -197t207 -79q128 0 208.5 79t80.5 197l-3 932h351v-952q0 -255 -175 -411.5t-462 -156.5t-462 156.5t-175 411.5zM649 1731l387 290l121 -245l-436 -183z" />
<glyph unicode="&#xdb;" horiz-adv-x="1601" d="M164 543v952h352l-2 -932q0 -118 80 -197t207 -79q128 0 208.5 79t80.5 197l-3 932h351v-952q0 -255 -175 -411.5t-462 -156.5t-462 156.5t-175 411.5zM416 1622l344 397h82l344 -397h-256l-129 170l-129 -170h-256z" />
<glyph unicode="&#xdc;" horiz-adv-x="1601" d="M164 543v952h352l-2 -932q0 -118 80 -197t207 -79q128 0 208.5 79t80.5 197l-3 932h351v-952q0 -255 -175 -411.5t-462 -156.5t-462 156.5t-175 411.5zM430 1769q0 65 47 110.5t117 45.5q71 0 117.5 -45.5t46.5 -110.5q0 -64 -46.5 -108.5t-117.5 -44.5q-70 0 -117 44.5 t-47 108.5zM844 1769q0 65 47 110.5t117 45.5q71 0 118.5 -45.5t47.5 -110.5q0 -64 -47.5 -108.5t-118.5 -44.5q-70 0 -117 44.5t-47 108.5z" />
<glyph unicode="&#xdd;" horiz-adv-x="1331" d="M10 1495h410l246 -602l266 602h389l-481 -934v-561h-348v561zM514 1731l387 290l121 -245l-436 -183z" />
<glyph unicode="&#xde;" horiz-adv-x="1329" d="M164 0v1495h348v-215q88 8 195 8q248 0 399 -147.5t151 -388.5q0 -246 -151.5 -396.5t-398.5 -150.5q-107 0 -195 8v-213h-348zM512 520q51 -4 154 -4q106 0 163.5 61t57.5 171t-57.5 169.5t-163.5 59.5q-103 0 -154 -4v-453z" />
<glyph unicode="&#xdf;" horiz-adv-x="1628" d="M164 0v1495h1175v-215l-307 -399q35 6 80 6q184 0 294 -106.5t110 -293.5q0 -229 -167.5 -370.5t-463.5 -141.5q-107 0 -246 25v305q139 -33 229 -33q127 0 196 54.5t69 146.5q0 94 -69.5 144.5t-166.5 50.5q-96 0 -170 -19l-123 174l277 367h-369v-1190h-348z" />
<glyph unicode="&#xe0;" horiz-adv-x="1007" d="M61 250q0 123 91 202.5t237 79.5q89 0 211 -36q0 89 -39.5 134.5t-122.5 51.5q-30 3 -105 -5t-120 -20l-51 193q85 29 185.5 47t182.5 18q169 0 272 -113.5t103 -299.5v-502h-305v51q-104 -76 -211 -76q-147 0 -237.5 77t-90.5 198zM190 1182l129 237l396 -299l-82 -131z M348 260q0 -38 33.5 -61t89.5 -23q50 0 129 37v113q-70 24 -129 24q-57 0 -90 -23.5t-33 -66.5z" />
<glyph unicode="&#xe1;" horiz-adv-x="1007" d="M61 250q0 123 91 202.5t237 79.5q89 0 211 -36q0 89 -39.5 134.5t-122.5 51.5q-30 3 -105 -5t-120 -20l-51 193q85 29 185.5 47t182.5 18q169 0 272 -113.5t103 -299.5v-502h-305v51q-104 -76 -211 -76q-147 0 -237.5 77t-90.5 198zM342 1126l387 291l121 -246l-436 -182 zM348 260q0 -38 33.5 -61t89.5 -23q50 0 129 37v113q-70 24 -129 24q-57 0 -90 -23.5t-33 -66.5z" />
<glyph unicode="&#xe2;" horiz-adv-x="1007" d="M61 250q0 123 91 202.5t237 79.5q89 0 211 -36q0 89 -39.5 134.5t-122.5 51.5q-30 3 -105 -5t-120 -20l-51 193q85 29 185.5 47t182.5 18q169 0 272 -113.5t103 -299.5v-502h-305v51q-104 -76 -211 -76q-147 0 -237.5 77t-90.5 198zM109 1018l344 397h82l344 -397h-256 l-129 170l-129 -170h-256zM348 260q0 -38 33.5 -61t89.5 -23q50 0 129 37v113q-70 24 -129 24q-57 0 -90 -23.5t-33 -66.5z" />
<glyph unicode="&#xe3;" horiz-adv-x="1007" d="M61 250q0 123 91 202.5t237 79.5q89 0 211 -36q0 89 -39.5 134.5t-122.5 51.5q-30 3 -105 -5t-120 -20l-51 193q85 29 185.5 47t182.5 18q169 0 272 -113.5t103 -299.5v-502h-305v51q-104 -76 -211 -76q-147 0 -237.5 77t-90.5 198zM102 1153q41 75 108.5 120.5 t135.5 45.5q63 0 124 -19.5t111.5 -39t88.5 -19.5q61 0 121 47l92 -114q-99 -152 -244 -152q-69 0 -166.5 38t-140.5 38q-68 0 -137 -58zM348 260q0 -38 33.5 -61t89.5 -23q50 0 129 37v113q-70 24 -129 24q-57 0 -90 -23.5t-33 -66.5z" />
<glyph unicode="&#xe4;" horiz-adv-x="1007" d="M61 250q0 123 91 202.5t237 79.5q89 0 211 -36q0 89 -39.5 134.5t-122.5 51.5q-30 3 -105 -5t-120 -20l-51 193q85 29 185.5 47t182.5 18q169 0 272 -113.5t103 -299.5v-502h-305v51q-104 -76 -211 -76q-147 0 -237.5 77t-90.5 198zM123 1165q0 65 47 110.5t117 45.5 q71 0 117.5 -45.5t46.5 -110.5q0 -64 -46.5 -108.5t-117.5 -44.5q-70 0 -117 44.5t-47 108.5zM348 260q0 -38 33.5 -61t89.5 -23q50 0 129 37v113q-70 24 -129 24q-57 0 -90 -23.5t-33 -66.5zM537 1165q0 65 46.5 110.5t116.5 45.5q71 0 118.5 -45.5t47.5 -110.5 q0 -64 -47.5 -108.5t-118.5 -44.5q-70 0 -116.5 44.5t-46.5 108.5z" />
<glyph unicode="&#xe5;" horiz-adv-x="1007" d="M61 250q0 123 91 202.5t237 79.5q89 0 211 -36q0 89 -39.5 134.5t-122.5 51.5q-30 3 -105 -5t-120 -20l-51 193q85 29 185.5 47t182.5 18q169 0 272 -113.5t103 -299.5v-502h-305v51q-104 -76 -211 -76q-147 0 -237.5 77t-90.5 198zM227 1217q0 104 75.5 180t189.5 76 q115 0 190.5 -76t75.5 -180t-75.5 -180t-190.5 -76q-114 0 -189.5 76t-75.5 180zM348 260q0 -38 33.5 -61t89.5 -23q50 0 129 37v113q-70 24 -129 24q-57 0 -90 -23.5t-33 -66.5zM393 1217q0 -52 28.5 -84.5t70.5 -32.5q43 0 72.5 32.5t29.5 84.5q0 49 -29.5 82.5 t-72.5 33.5q-42 0 -70.5 -32t-28.5 -84z" />
<glyph unicode="&#xe6;" horiz-adv-x="1605" d="M61 250q0 121 89.5 191.5t238.5 70.5q99 0 211 -33v13q0 91 -39.5 137.5t-122.5 52.5q-30 3 -105 -5t-120 -20l-51 193q163 57 368 57q149 0 244 -86q123 94 301 94q146 0 254.5 -63.5t161.5 -164.5t53 -222q0 -57 -12 -115h-627v-2h-4q15 -66 86.5 -107.5t175.5 -41.5 q126 0 269 51l45 -168q-192 -107 -392 -107q-241 0 -376 156q-44 -65 -123.5 -110.5t-196.5 -45.5q-147 0 -237.5 77t-90.5 198zM348 270q0 -29 28.5 -46t74.5 -17q60 0 99.5 34.5t49.5 98.5q-58 10 -129 10q-55 0 -89 -22.5t-34 -57.5zM903 547q2 -12 2 -35h330 q0 78 -49 125t-129 45q-58 -1 -99 -38.5t-55 -96.5z" />
<glyph unicode="&#xe7;" horiz-adv-x="882" d="M72 440q0 224 128 349.5t343 125.5q73 0 152.5 -24t135.5 -62l-104 -188q-87 49 -154 49q-90 0 -145 -67.5t-55 -176.5q0 -110 54.5 -177.5t145.5 -67.5q87 0 154 41l104 -181q-48 -39 -126.5 -62.5t-161.5 -23.5h-17l-16 -57q110 -23 175 -72.5t65 -121.5 q0 -78 -73 -132.5t-185 -54.5q-136 0 -277 72l66 133q53 -30 112.5 -49t98.5 -19q36 0 54.5 16t18.5 36q0 34 -55.5 52.5t-147.5 18.5l-10 17l56 178q-155 37 -245.5 156.5t-90.5 291.5z" />
<glyph unicode="&#xe8;" horiz-adv-x="1073" d="M72 446q0 211 129.5 340t341.5 129q146 0 254.5 -63.5t161.5 -164.5t53 -222q0 -52 -13 -115h-630q15 -66 86.5 -108.5t175.5 -42.5q125 0 268 51l45 -168q-192 -107 -391 -107q-100 0 -186.5 30t-152.5 87.5t-104 148.5t-38 205zM223 1182l129 237l396 -299l-82 -131z M365 512h337q0 78 -49 125t-129 45q-65 -1 -108 -49.5t-51 -120.5z" />
<glyph unicode="&#xe9;" horiz-adv-x="1073" d="M72 446q0 211 129.5 340t341.5 129q146 0 254.5 -63.5t161.5 -164.5t53 -222q0 -52 -13 -115h-630q15 -66 86.5 -108.5t175.5 -42.5q125 0 268 51l45 -168q-192 -107 -391 -107q-100 0 -186.5 30t-152.5 87.5t-104 148.5t-38 205zM365 512h337q0 78 -49 125t-129 45 q-65 -1 -108 -49.5t-51 -120.5zM375 1126l387 291l121 -246l-437 -182z" />
<glyph unicode="&#xea;" horiz-adv-x="1073" d="M72 446q0 211 129.5 340t341.5 129q146 0 254.5 -63.5t161.5 -164.5t53 -222q0 -52 -13 -115h-630q15 -66 86.5 -108.5t175.5 -42.5q125 0 268 51l45 -168q-192 -107 -391 -107q-100 0 -186.5 30t-152.5 87.5t-104 148.5t-38 205zM141 1018l344 397h82l344 -397h-256 l-129 170l-129 -170h-256zM365 512h337q0 78 -49 125t-129 45q-65 -1 -108 -49.5t-51 -120.5z" />
<glyph unicode="&#xeb;" horiz-adv-x="1073" d="M72 446q0 211 129.5 340t341.5 129q146 0 254.5 -63.5t161.5 -164.5t53 -222q0 -52 -13 -115h-630q15 -66 86.5 -108.5t175.5 -42.5q125 0 268 51l45 -168q-192 -107 -391 -107q-100 0 -186.5 30t-152.5 87.5t-104 148.5t-38 205zM156 1165q0 65 46.5 110.5t116.5 45.5 q71 0 117.5 -45.5t46.5 -110.5q0 -64 -46.5 -108.5t-117.5 -44.5q-70 0 -116.5 44.5t-46.5 108.5zM365 512h337q0 78 -49 125t-129 45q-65 -1 -108 -49.5t-51 -120.5zM569 1165q0 65 47 110.5t117 45.5q71 0 118.5 -45.5t47.5 -110.5q0 -64 -47.5 -108.5t-118.5 -44.5 q-70 0 -117 44.5t-47 108.5z" />
<glyph unicode="&#xec;" horiz-adv-x="571" d="M-16 1182l129 237l395 -299l-82 -131zM133 0v891h305v-891h-305z" />
<glyph unicode="&#xed;" horiz-adv-x="571" d="M133 0v891h305v-891h-305zM135 1126l387 291l121 -246l-436 -182z" />
<glyph unicode="&#xee;" horiz-adv-x="571" d="M-98 1018l344 397h82l344 -397h-256l-129 170l-129 -170h-256zM133 0v891h305v-891h-305z" />
<glyph unicode="&#xef;" horiz-adv-x="571" d="M-84 1165q0 65 47 110.5t117 45.5q71 0 117.5 -45.5t46.5 -110.5q0 -64 -46.5 -108.5t-117.5 -44.5q-70 0 -117 44.5t-47 108.5zM133 0v891h305v-891h-305zM330 1165q0 65 47 110.5t117 45.5q71 0 118 -45.5t47 -110.5q0 -64 -47 -108.5t-118 -44.5q-70 0 -117 44.5 t-47 108.5z" />
<glyph unicode="&#xf0;" horiz-adv-x="1120" d="M82 455q0 207 111 333.5t294 126.5q58 0 120 -20t106 -53q-24 48 -83 115t-132 126l-158 -131l-117 146l113 98q-101 59 -191 88l117 242q170 -77 281 -150l135 119l127 -156l-103 -84q150 -132 243 -317.5t93 -407.5q0 -258 -126.5 -406.5t-354.5 -148.5 q-115 0 -207.5 39.5t-149.5 107t-87.5 153t-30.5 180.5zM383 449q0 -109 50 -179.5t138 -70.5q86 0 133.5 66t47.5 173q0 115 -52.5 179.5t-134.5 64.5q-81 0 -131.5 -61t-50.5 -172z" />
<glyph unicode="&#xf1;" horiz-adv-x="1138" d="M123 0v891h305v-92q45 52 115.5 84t138.5 32q159 0 256.5 -114.5t97.5 -298.5v-502h-305v492q0 91 -41.5 140.5t-111.5 49.5q-81 0 -150 -76v-606h-305zM164 1153q41 75 108.5 120.5t135.5 45.5q63 0 123.5 -19.5t111 -39t88.5 -19.5q61 0 121 47l92 -114 q-99 -152 -244 -152q-69 0 -166.5 38t-140.5 38q-68 0 -137 -58z" />
<glyph unicode="&#xf2;" horiz-adv-x="1085" d="M72 446q0 211 129.5 340t341.5 129t341.5 -129t129.5 -340q0 -212 -129.5 -341.5t-341.5 -129.5t-341.5 129.5t-129.5 341.5zM240 1182l129 237l395 -299l-82 -131zM373 446q0 -118 44 -181.5t126 -63.5t126 63.5t44 181.5q0 117 -44 180.5t-126 63.5t-126 -63.5 t-44 -180.5z" />
<glyph unicode="&#xf3;" horiz-adv-x="1085" d="M72 446q0 211 129.5 340t341.5 129t341.5 -129t129.5 -340q0 -212 -129.5 -341.5t-341.5 -129.5t-341.5 129.5t-129.5 341.5zM373 446q0 -118 44 -181.5t126 -63.5t126 63.5t44 181.5q0 117 -44 180.5t-126 63.5t-126 -63.5t-44 -180.5zM391 1126l387 291l121 -246 l-436 -182z" />
<glyph unicode="&#xf4;" horiz-adv-x="1085" d="M72 446q0 211 129.5 340t341.5 129t341.5 -129t129.5 -340q0 -212 -129.5 -341.5t-341.5 -129.5t-341.5 129.5t-129.5 341.5zM158 1018l344 397h82l344 -397h-256l-129 170l-129 -170h-256zM373 446q0 -118 44 -181.5t126 -63.5t126 63.5t44 181.5q0 117 -44 180.5 t-126 63.5t-126 -63.5t-44 -180.5z" />
<glyph unicode="&#xf5;" horiz-adv-x="1085" d="M72 446q0 211 129.5 340t341.5 129t341.5 -129t129.5 -340q0 -212 -129.5 -341.5t-341.5 -129.5t-341.5 129.5t-129.5 341.5zM152 1153q41 75 108 120.5t135 45.5q63 0 124 -19.5t111.5 -39t88.5 -19.5q61 0 121 47l92 -114q-99 -152 -244 -152q-69 0 -166.5 38 t-140.5 38q-68 0 -137 -58zM373 446q0 -118 44 -181.5t126 -63.5t126 63.5t44 181.5q0 117 -44 180.5t-126 63.5t-126 -63.5t-44 -180.5z" />
<glyph unicode="&#xf6;" horiz-adv-x="1085" d="M72 446q0 211 129.5 340t341.5 129t341.5 -129t129.5 -340q0 -212 -129.5 -341.5t-341.5 -129.5t-341.5 129.5t-129.5 341.5zM172 1165q0 65 47 110.5t117 45.5q71 0 117.5 -45.5t46.5 -110.5q0 -64 -46.5 -108.5t-117.5 -44.5q-70 0 -117 44.5t-47 108.5zM373 446 q0 -118 44 -181.5t126 -63.5t126 63.5t44 181.5q0 117 -44 180.5t-126 63.5t-126 -63.5t-44 -180.5zM586 1165q0 65 47 110.5t117 45.5q71 0 118 -45.5t47 -110.5q0 -64 -47 -108.5t-118 -44.5q-70 0 -117 44.5t-47 108.5z" />
<glyph unicode="&#xf7;" horiz-adv-x="937" d="M123 666v204h696v-204h-696zM338 469q0 60 36.5 96.5t96.5 36.5t96.5 -36.5t36.5 -96.5t-36.5 -96.5t-96.5 -36.5t-96.5 36.5t-36.5 96.5zM338 1067q0 60 36.5 96.5t96.5 36.5t96.5 -36.5t36.5 -96.5t-36.5 -96.5t-96.5 -36.5t-96.5 36.5t-36.5 96.5z" />
<glyph unicode="&#xf8;" horiz-adv-x="1085" d="M61 57l99 97q-88 120 -88 292q0 211 129.5 340t341.5 129q176 0 303 -94l96 94l82 -81l-98 -97q88 -120 88 -291q0 -212 -129.5 -341.5t-341.5 -129.5q-175 0 -301 95l-99 -95zM373 446q0 -42 6 -79l280 272q-45 51 -116 51q-82 0 -126 -63.5t-44 -180.5zM426 252 q45 -51 117 -51q82 0 126 63.5t44 181.5q0 40 -6 78z" />
<glyph unicode="&#xf9;" horiz-adv-x="1118" d="M102 389v502h306v-492q0 -92 41.5 -145t111.5 -53q80 0 129 75v615h305v-891h-305v92q-93 -117 -233 -117q-159 0 -257 115t-98 299zM252 1182l129 237l395 -299l-82 -131z" />
<glyph unicode="&#xfa;" horiz-adv-x="1118" d="M102 389v502h306v-492q0 -92 41.5 -145t111.5 -53q80 0 129 75v615h305v-891h-305v92q-93 -117 -233 -117q-159 0 -257 115t-98 299zM403 1126l388 291l120 -246l-436 -182z" />
<glyph unicode="&#xfb;" horiz-adv-x="1118" d="M102 389v502h306v-492q0 -92 41.5 -145t111.5 -53q80 0 129 75v615h305v-891h-305v92q-93 -117 -233 -117q-159 0 -257 115t-98 299zM170 1018l344 397h82l344 -397h-256l-129 170l-129 -170h-256z" />
<glyph unicode="&#xfc;" horiz-adv-x="1118" d="M102 389v502h306v-492q0 -92 41.5 -145t111.5 -53q80 0 129 75v615h305v-891h-305v92q-93 -117 -233 -117q-159 0 -257 115t-98 299zM184 1165q0 65 47 110.5t117 45.5q71 0 117.5 -45.5t46.5 -110.5q0 -64 -46.5 -108.5t-117.5 -44.5q-70 0 -117 44.5t-47 108.5z M598 1165q0 65 47 110.5t117 45.5q71 0 118.5 -45.5t47.5 -110.5q0 -64 -47.5 -108.5t-118.5 -44.5q-70 0 -117 44.5t-47 108.5z" />
<glyph unicode="&#xfd;" horiz-adv-x="1091" d="M10 891h342l195 -488l192 488h342l-612 -1331h-348l276 536zM395 1126l387 291l121 -246l-436 -182z" />
<glyph unicode="&#xfe;" horiz-adv-x="1140" d="M123 -440v1935h305v-657q42 32 99.5 50.5t111.5 18.5q193 0 311.5 -128t118.5 -337q0 -211 -118 -339t-312 -128q-113 0 -211 72v-487h-305zM428 270q31 -32 76.5 -50.5t93.5 -18.5q77 0 123.5 66t46.5 175q0 107 -47 173.5t-123 66.5q-105 0 -170 -59v-353z" />
<glyph unicode="&#xff;" horiz-adv-x="1091" d="M10 891h342l195 -488l192 488h342l-612 -1331h-348l276 536zM176 1165q0 65 47 110.5t117 45.5q71 0 117.5 -45.5t46.5 -110.5q0 -64 -46.5 -108.5t-117.5 -44.5q-70 0 -117 44.5t-47 108.5zM590 1165q0 65 47 110.5t117 45.5q71 0 118.5 -45.5t47.5 -110.5 q0 -64 -47.5 -108.5t-118.5 -44.5q-70 0 -117 44.5t-47 108.5z" />
<glyph unicode="&#x152;" horiz-adv-x="2160" d="M123 748q0 347 208.5 559.5t549.5 212.5q102 0 225 -25h911v-311h-563v-269h512v-311h-512v-293h574v-311h-922q-118 -25 -225 -25q-341 0 -549.5 213t-208.5 560zM494 748q0 -207 107 -334t280 -127q64 0 126 13.5t99 35.5v823q-37 22 -99 35.5t-126 13.5 q-173 0 -280 -126.5t-107 -333.5z" />
<glyph unicode="&#x153;" horiz-adv-x="1714" d="M72 446q0 211 129.5 340t341.5 129q197 0 319 -110q125 110 322 110q146 0 254.5 -63.5t161.5 -164.5t53 -222q0 -52 -13 -115h-630q0 -56 72 -103.5t190 -47.5q125 0 268 51l45 -168q-192 -107 -391 -107q-200 0 -332 111q-123 -111 -319 -111q-212 0 -341.5 129.5 t-129.5 341.5zM373 446q0 -118 44 -181.5t126 -63.5t126 63.5t44 181.5q0 116 -44.5 180t-125.5 64q-82 0 -126 -63.5t-44 -180.5zM1008 512h335q0 78 -49 124t-129 46q-64 0 -110.5 -52.5t-46.5 -117.5z" />
<glyph unicode="&#x178;" horiz-adv-x="1331" d="M10 1495h410l246 -602l266 602h389l-481 -934v-561h-348v561zM295 1769q0 65 47 110.5t117 45.5q71 0 117.5 -45.5t46.5 -110.5q0 -64 -46.5 -108.5t-117.5 -44.5q-70 0 -117 44.5t-47 108.5zM709 1769q0 65 46.5 110.5t116.5 45.5q71 0 118.5 -45.5t47.5 -110.5 q0 -64 -47.5 -108.5t-118.5 -44.5q-70 0 -116.5 44.5t-46.5 108.5z" />
<glyph unicode="&#x2c6;" horiz-adv-x="1015" d="M123 1018l344 397h82l344 -397h-256l-129 170l-129 -170h-256z" />
<glyph unicode="&#x2dc;" horiz-adv-x="1046" d="M133 1153q41 75 108.5 120.5t135.5 45.5q63 0 123.5 -19.5t111 -39t88.5 -19.5q61 0 121 47l92 -114q-99 -152 -243 -152q-69 0 -167 38t-141 38q-68 0 -137 -58z" />
<glyph unicode="&#x2000;" horiz-adv-x="1038" />
<glyph unicode="&#x2001;" horiz-adv-x="2077" />
<glyph unicode="&#x2002;" horiz-adv-x="1038" />
<glyph unicode="&#x2003;" horiz-adv-x="2077" />
<glyph unicode="&#x2004;" horiz-adv-x="692" />
<glyph unicode="&#x2005;" horiz-adv-x="519" />
<glyph unicode="&#x2006;" horiz-adv-x="346" />
<glyph unicode="&#x2007;" horiz-adv-x="346" />
<glyph unicode="&#x2008;" horiz-adv-x="259" />
<glyph unicode="&#x2009;" horiz-adv-x="415" />
<glyph unicode="&#x200a;" horiz-adv-x="115" />
<glyph unicode="&#x2010;" horiz-adv-x="716" d="M92 399v205h533v-205h-533z" />
<glyph unicode="&#x2011;" horiz-adv-x="716" d="M92 399v205h533v-205h-533z" />
<glyph unicode="&#x2012;" horiz-adv-x="716" d="M92 399v205h533v-205h-533z" />
<glyph unicode="&#x2013;" horiz-adv-x="1013" d="M92 399v205h830v-205h-830z" />
<glyph unicode="&#x2014;" horiz-adv-x="1536" d="M102 399v205h1332v-205h-1332z" />
<glyph unicode="&#x2018;" horiz-adv-x="462" d="M61 1151q0 116 74 217t195 152l28 -45q-55 -47 -91.5 -101t-39.5 -92q73 0 118.5 -42t45.5 -110q0 -70 -45 -113.5t-119 -43.5q-75 0 -120.5 49t-45.5 129z" />
<glyph unicode="&#x2019;" horiz-adv-x="462" d="M72 1362q0 71 45.5 114.5t118.5 43.5q75 0 120 -49.5t45 -129.5q0 -116 -73.5 -216.5t-194.5 -151.5l-29 45q56 47 92.5 100.5t39.5 91.5q-73 0 -118.5 42t-45.5 110z" />
<glyph unicode="&#x201a;" horiz-adv-x="462" d="M72 127q0 71 45.5 114.5t118.5 43.5q75 0 120 -49.5t45 -129.5q0 -116 -73.5 -216.5t-194.5 -151.5l-29 45q56 47 92.5 100.5t39.5 91.5q-73 0 -118.5 42t-45.5 110z" />
<glyph unicode="&#x201c;" horiz-adv-x="831" d="M61 1151q0 116 74 217t195 152l28 -45q-55 -47 -91.5 -101t-39.5 -92q73 0 118.5 -42t45.5 -110q0 -70 -45 -113.5t-119 -43.5q-75 0 -120.5 49t-45.5 129zM430 1151q0 116 73.5 217t194.5 152l29 -45q-55 -47 -91.5 -101t-39.5 -92q73 0 118.5 -42t45.5 -110 q0 -70 -45 -113.5t-119 -43.5q-75 0 -120.5 49t-45.5 129z" />
<glyph unicode="&#x201d;" horiz-adv-x="831" d="M72 1362q0 71 45.5 114.5t118.5 43.5q75 0 120 -49.5t45 -129.5q0 -116 -73.5 -216.5t-194.5 -151.5l-29 45q56 47 92.5 100.5t39.5 91.5q-73 0 -118.5 42t-45.5 110zM440 1362q0 71 45.5 114.5t118.5 43.5q75 0 120.5 -49.5t45.5 -129.5q0 -116 -73.5 -216.5 t-194.5 -151.5l-29 45q55 47 91.5 100.5t39.5 91.5q-73 0 -118.5 42t-45.5 110z" />
<glyph unicode="&#x201e;" horiz-adv-x="462" d="M72 127q0 71 45.5 114.5t118.5 43.5q75 0 120 -49.5t45 -129.5q0 -116 -73.5 -216.5t-194.5 -151.5l-29 45q56 47 92.5 100.5t39.5 91.5q-73 0 -118.5 42t-45.5 110z" />
<glyph unicode="&#x2022;" horiz-adv-x="989" d="M113 754q0 177 104 284t275 107q173 0 279 -107t106 -284q0 -175 -106 -282t-279 -107q-170 0 -274.5 107t-104.5 282z" />
<glyph unicode="&#x2026;" horiz-adv-x="1722" d="M143 129q0 65 47 110.5t117 45.5q71 0 118.5 -45.5t47.5 -110.5q0 -64 -47.5 -109t-118.5 -45q-70 0 -117 45t-47 109zM696 129q0 65 47 110.5t117 45.5q71 0 118.5 -45.5t47.5 -110.5q0 -64 -47.5 -109t-118.5 -45q-70 0 -117 45t-47 109zM1249 129q0 65 47 110.5 t117 45.5q71 0 118.5 -45.5t47.5 -110.5q0 -64 -47.5 -109t-118.5 -45q-70 0 -117 45t-47 109z" />
<glyph unicode="&#x202f;" horiz-adv-x="415" />
<glyph unicode="&#x2039;" horiz-adv-x="634" d="M92 358l215 328h246l-236 -328l236 -338h-246z" />
<glyph unicode="&#x203a;" horiz-adv-x="634" d="M82 20l235 338l-235 328h246l215 -328l-215 -338h-246z" />
<glyph unicode="&#x205f;" horiz-adv-x="519" />
<glyph unicode="&#x20ac;" horiz-adv-x="1525" d="M72 487v183h155q-2 25 -2 78q0 44 2 67h-155v182h186q68 243 259.5 383t463.5 140q149 0 282 -42.5t232 -115.5l-127 -285q-172 131 -369 131q-124 0 -214 -55.5t-138 -155.5h590v-182h-637q-4 -46 -4 -67q0 -28 4 -78h637v-183h-586q104 -200 348 -200q202 0 369 129 l123 -287q-100 -72 -232 -113t-278 -41q-268 0 -459 137t-260 375h-190z" />
<glyph unicode="&#x2122;" horiz-adv-x="1060" d="M51 1374v121h398v-121h-136v-350h-127v350h-135zM504 1024l20 475h17l213 -250l211 250h14l20 -475h-114l-6 213l-121 -139h-13l-122 139l-5 -213h-114z" />
<glyph unicode="&#x25fc;" horiz-adv-x="890" d="M0 0v891h891v-891h-891z" />
<glyph unicode="&#xfb03;" horiz-adv-x="1882" d="M10 643v86l123 121v256q0 184 97.5 299t256.5 115q73 0 149 -15.5t126 -40.5l-62 -202q-46 24 -108 24q-70 0 -112 -49.5t-42 -140.5v-228l350 23v215q0 184 98 299t257 115q73 0 148.5 -15.5t125.5 -40.5l-61 -202q-46 24 -109 24q-70 0 -111.5 -49.5t-41.5 -140.5v-205 h655v-891h-305v643h-350v-643h-306v643h-350v-643h-305v643h-123zM1432 1165q0 65 46.5 110.5t116.5 45.5q71 0 118.5 -45.5t47.5 -110.5q0 -64 -47.5 -108.5t-118.5 -44.5q-70 0 -116.5 44.5t-46.5 108.5z" />
<glyph unicode="&#xfb04;" horiz-adv-x="1871" d="M10 643v86l123 121v256q0 184 97.5 299t256.5 115q73 0 149 -15.5t126 -40.5l-62 -202q-46 24 -108 24q-70 0 -112 -49.5t-42 -140.5v-228l350 23v215q0 186 114.5 300t301.5 114q119 0 273 -30t272 -77v-1413h-305v1257q-114 29 -197 29q-70 0 -111.5 -49.5 t-41.5 -140.5v-205h176v-248h-176v-643h-306v643h-350v-643h-305v643h-123z" />
</font>
</defs>
</svg>
