<?xml version="1.0" standalone="no"?>
<!DOCTYPE svg PUBLIC "-//W3C//DTD SVG 1.1//EN" "http://www.w3.org/Graphics/SVG/1.1/DTD/svg11.dtd" >
<svg xmlns="http://www.w3.org/2000/svg" xmlns:xlink="http://www.w3.org/1999/xlink" version="1.1">
<metadata></metadata>
<defs>
<font id="rns_sanznormal" horiz-adv-x="1167" >
<font-face units-per-em="2048" ascent="1638" descent="-410" />
<missing-glyph horiz-adv-x="468" />
<glyph unicode="&#xfb01;" horiz-adv-x="1093" d="M59 862l35 105h119v327q0 106 56.5 165t158.5 59q57 0 117 -29l10 -103q-62 23 -119 23q-49 0 -75.5 -30.5t-26.5 -86.5v-325h575v-967h-123v862h-452v-862h-121v862h-154zM756 1186q0 44 24.5 67t69.5 23q92 0 92 -90t-92 -90q-45 0 -69.5 23t-24.5 67z" />
<glyph unicode="&#xfb02;" horiz-adv-x="1093" d="M59 862l35 105h119v327q0 106 56.5 165t158.5 59q57 0 117 -29l10 -103q-62 23 -119 23q-49 0 -75.5 -30.5t-26.5 -86.5v-325h452v528h123v-1495h-123v862h-452v-862h-121v862h-154z" />
<glyph horiz-adv-x="0" />
<glyph horiz-adv-x="682" />
<glyph unicode=" "  horiz-adv-x="468" />
<glyph unicode="&#x09;" horiz-adv-x="468" />
<glyph unicode="&#xa0;" horiz-adv-x="468" />
<glyph unicode="!" horiz-adv-x="561" d="M176 84q0 104 105 104q104 0 104 -104q0 -51 -26.5 -79t-77.5 -28t-78 28t-27 79zM203 1413h155l-34 -1034h-86z" />
<glyph unicode="&#x22;" horiz-adv-x="792" d="M145 1391h156l-37 -398h-82zM489 1391h156l-35 -398h-84z" />
<glyph unicode="#" horiz-adv-x="1316" d="M90 369v106h248l68 426h-265l-12 107h293l65 405h95l-66 -405h377l65 405h95l-66 -405h238v-107h-254l-68 -426h271l12 -106h-299l-60 -369h-94l60 369h-377l-60 -369h-94l60 369h-232zM432 475h377l68 426h-377z" />
<glyph unicode="$" horiz-adv-x="1122" d="M135 70l45 120q153 -90 326 -90q143 0 238.5 68t95.5 188q0 34 -8.5 64.5t-19.5 53.5t-35 47t-41 39t-52.5 36t-54.5 31.5t-61 31.5q-19 10 -29 15q-51 26 -76 39t-71 40.5t-70 47.5t-56.5 53t-49 65t-28.5 75t-12 91q0 140 89 232.5t241 112.5l-10 167h141l-10 -163 q80 -3 157.5 -22.5t126.5 -49.5l-28 -121q-64 35 -142 53.5t-145 18.5q-128 0 -204.5 -59.5t-76.5 -166.5q0 -32 9 -61.5t20.5 -51.5t37 -47t42.5 -39t54.5 -37t56 -33t62.5 -33q11 -6 17 -9q45 -22 67 -34t63 -35t63.5 -40t54 -43t49 -52t35.5 -58t25.5 -69.5t7.5 -79.5 q0 -147 -95.5 -249t-258.5 -130l12 -181h-141l10 172q-95 2 -193.5 26.5t-177.5 66.5z" />
<glyph unicode="%" horiz-adv-x="1746" d="M127 1057q0 182 79.5 280.5t227.5 98.5q147 0 226 -98.5t79 -280.5t-79 -280.5t-226 -98.5q-148 0 -227.5 98.5t-79.5 280.5zM231 1057q0 -139 53.5 -215t151.5 -76q95 0 147 76t52 215q0 140 -52.5 215.5t-150.5 75.5q-97 0 -149 -75.5t-52 -215.5zM414 0l815 1413h102 l-815 -1413h-102zM1006 356q0 183 79 281t228 98q148 0 226.5 -98t78.5 -281q0 -182 -79 -280.5t-226 -98.5q-149 0 -228 98.5t-79 280.5zM1110 356q0 -139 53.5 -214.5t151.5 -75.5q95 0 146.5 75t51.5 215t-52 215.5t-150 75.5q-97 0 -149 -75.5t-52 -215.5z" />
<glyph unicode="&#x26;" horiz-adv-x="1390" d="M96 352q0 288 338 441q-149 168 -149 331q0 142 95 227t263 85q176 0 334 -93l-25 -120q-161 102 -307 102q-106 0 -167.5 -55.5t-61.5 -147.5q0 -145 149 -297l414 -422q85 172 121 424h119q-48 -314 -160 -510l307 -317h-160l-217 217q-187 -240 -469 -240 q-195 0 -309.5 101t-114.5 274zM225 365q0 -127 83 -203t229 -76q237 0 381 211l-406 416q-140 -56 -213.5 -144t-73.5 -204z" />
<glyph unicode="'" horiz-adv-x="448" d="M145 1391h156l-37 -398h-82z" />
<glyph unicode="(" horiz-adv-x="780" d="M145 633q0 266 130 485.5t366 351.5l55 -79q-200 -128 -308.5 -325t-108.5 -433t109 -435.5t308 -326.5l-55 -80q-236 132 -366 352.5t-130 489.5z" />
<glyph unicode=")" horiz-adv-x="780" d="M84 -129q200 128 309 327t109 435t-109 433t-309 325l55 79q236 -132 366 -351.5t130 -485.5q0 -269 -130 -489.5t-366 -352.5z" />
<glyph unicode="*" horiz-adv-x="792" d="M78 1190l26 86l254 -88l-8 268h90l-8 -268l252 88l29 -84l-252 -78l160 -211l-72 -51l-152 215l-153 -217l-70 51l158 211z" />
<glyph unicode="+" d="M121 532v103h409v391h109v-391h405v-103h-405v-409h-109v409h-409z" />
<glyph unicode="," horiz-adv-x="444" d="M78 -238l92 420h168l-188 -440z" />
<glyph unicode="-" horiz-adv-x="755" d="M127 553v117h502v-117h-502z" />
<glyph unicode="." horiz-adv-x="481" d="M135 84q0 104 105 104q104 0 104 -104q0 -51 -26.5 -79t-77.5 -28t-78 28t-27 79z" />
<glyph unicode="/" horiz-adv-x="1054" d="M-72 -258l967 1671h131l-967 -1671h-131z" />
<glyph unicode="0" horiz-adv-x="1292" d="M143 696q0 346 129.5 532.5t372.5 186.5t373.5 -186.5t130.5 -532.5t-130.5 -532.5t-373.5 -186.5t-372.5 186.5t-129.5 532.5zM274 696q0 -291 95.5 -446.5t275.5 -155.5t276.5 156t96.5 446t-96.5 446t-276.5 156t-275.5 -155.5t-95.5 -446.5z" />
<glyph unicode="1" horiz-adv-x="786" d="M68 1239l331 156h117v-1395h-131v1260l-303 -132z" />
<glyph unicode="2" horiz-adv-x="1118" d="M127 86q315 264 493.5 520.5t178.5 454.5q0 115 -68 176t-192 61q-182 0 -367 -149l-25 113q97 73 202 113t202 40q183 0 281 -91t98 -259q0 -205 -158 -452t-446 -500h657v-113h-829z" />
<glyph unicode="3" horiz-adv-x="1091" d="M96 80l23 125q168 -111 358 -111q166 0 256 73t90 208q0 140 -107 218.5t-292 78.5h-62l-20 108h86q173 0 269 74t96 203q0 116 -70.5 178.5t-198.5 62.5q-209 0 -383 -129l-14 123q194 123 403 123q189 0 292.5 -91t103.5 -259q0 -114 -68.5 -203.5t-195.5 -134.5 q141 -35 216.5 -127t75.5 -229q0 -189 -122 -291.5t-349 -102.5q-195 0 -387 103z" />
<glyph unicode="4" horiz-adv-x="1216" d="M72 324v96l684 975h164v-963h210v-108h-210v-324h-129v324h-719zM217 432h571v817z" />
<glyph unicode="5" horiz-adv-x="1110" d="M115 61l22 119q162 -84 352 -84q175 0 270 85t95 243q0 146 -82.5 223.5t-239.5 77.5q-153 0 -284 -59l-80 14l49 715h707v-115h-594l-31 -481q103 39 244 39q214 0 327 -107.5t113 -306.5q0 -213 -126.5 -328.5t-352.5 -115.5q-189 0 -389 81z" />
<glyph unicode="6" d="M133 571q0 308 185.5 528t523.5 316l24 -125q-254 -64 -410.5 -217.5t-191.5 -372.5l8 -4q179 131 373 131q198 0 307 -107.5t109 -303.5q0 -210 -117 -324.5t-332 -114.5q-230 0 -354.5 154.5t-124.5 439.5zM258 563q0 -226 91.5 -348.5t260.5 -122.5q155 0 238.5 83.5 t83.5 238.5q0 145 -79 224t-224 79q-95 0 -191 -40t-180 -114z" />
<glyph unicode="7" horiz-adv-x="1087" d="M115 1280v115h864v-99l-573 -1296h-140l565 1280h-716z" />
<glyph unicode="8" horiz-adv-x="1155" d="M106 342q0 126 80.5 231t229.5 164q-240 108 -240 336q0 160 108 251t306 91q192 0 298.5 -87.5t106.5 -242.5q0 -229 -247 -356q147 -54 224 -152t77 -231q0 -172 -123 -270.5t-342 -98.5q-222 0 -350 98.5t-128 266.5zM236 350q0 -121 92.5 -190.5t253.5 -69.5 q159 0 246 68t87 192q0 125 -94.5 200t-296.5 136q-137 -55 -212.5 -141t-75.5 -195zM305 1067q0 -115 81.5 -185t250.5 -114q106 48 168.5 132t62.5 183q0 104 -72.5 163t-205.5 59q-137 0 -211 -63.5t-74 -174.5z" />
<glyph unicode="9" d="M115 969q0 215 121 330.5t346 115.5q222 0 341 -156.5t119 -445.5q0 -313 -191 -530.5t-536 -305.5l-28 125q265 63 426 208.5t198 355.5l-6 4q-182 -131 -375 -131q-199 0 -307 112t-108 318zM244 971q0 -155 78.5 -238.5t224.5 -83.5q199 0 371 152q0 241 -87 371.5 t-247 130.5q-164 0 -252 -86t-88 -246z" />
<glyph unicode=":" horiz-adv-x="501" d="M145 84q0 104 105 104q104 0 104 -104q0 -51 -26.5 -79t-77.5 -28t-78 28t-27 79zM145 883q0 104 105 104q104 0 104 -104q0 -105 -104 -105q-51 0 -78 27t-27 78z" />
<glyph unicode=";" horiz-adv-x="501" d="M76 -238l92 420h168l-189 -440zM145 883q0 104 105 104q104 0 104 -104q0 -105 -104 -105q-51 0 -78 27t-27 78z" />
<glyph unicode="&#x3c;" d="M121 545v100l923 494v-125l-806 -418l806 -422v-121z" />
<glyph unicode="=" d="M121 344v102h923v-102h-923zM121 739v103h923v-103h-923z" />
<glyph unicode="&#x3e;" d="M121 53v123l807 420l-807 422v121l923 -494v-100z" />
<glyph unicode="?" horiz-adv-x="1007" d="M96 1309q174 127 398 127q178 0 284.5 -85t106.5 -255q0 -79 -24.5 -142.5t-76.5 -116t-117 -94.5t-163 -90l-10 -276h-80l-11 334q119 58 192 110t116 118.5t43 145.5q0 110 -71.5 172t-201.5 62q-96 0 -194 -34t-172 -95zM354 84q0 104 105 104q104 0 104 -104 q0 -51 -26.5 -79t-77.5 -28t-78 28t-27 79z" />
<glyph unicode="@" horiz-adv-x="1757" d="M117 432q0 265 100.5 462t296.5 306t467 109q318 0 487.5 -161.5t169.5 -481.5q0 -247 -96.5 -388t-273.5 -141q-102 0 -162.5 50t-69.5 141q-157 -189 -297 -189q-93 0 -143.5 74t-50.5 221q0 223 114 358.5t312 135.5q111 0 243 -58l-65 -428q-8 -19 -8 -73 q0 -154 143 -154q133 0 206 118.5t73 325.5q0 293 -148.5 438.5t-437.5 145.5q-245 0 -423 -101t-269.5 -283t-91.5 -427q0 -625 628 -625q255 0 416 82l23 -49q-176 -98 -453 -98q-337 0 -513.5 171.5t-176.5 518.5zM651 442q0 -211 121 -211q110 0 272 207l58 371 q-73 29 -139 29q-145 0 -228.5 -109t-83.5 -287z" />
<glyph unicode="A" horiz-adv-x="1345" d="M49 0l533 1413h184l530 -1413h-141l-156 422h-653l-158 -422h-139zM387 535h571l-278 755h-12z" />
<glyph unicode="B" horiz-adv-x="1282" d="M254 0v1413h451q185 0 286 -91.5t101 -260.5q0 -118 -60.5 -205.5t-169.5 -130.5q135 -31 208 -123.5t73 -234.5q0 -177 -115 -272t-326 -95h-448zM389 119h309q148 0 229 67t81 191q0 137 -90 211t-256 74h-273v-543zM389 768h273q143 0 221 70t78 200q0 123 -69 190.5 t-194 67.5h-309v-528z" />
<glyph unicode="C" horiz-adv-x="1345" d="M156 709q0 349 164 538t464 189q258 0 426 -131l-57 -97q-170 103 -367 103q-235 0 -363 -157.5t-128 -448.5t128 -447t374 -156q211 0 397 125l53 -98q-192 -152 -465 -152q-298 0 -462 191t-164 541z" />
<glyph unicode="D" horiz-adv-x="1533" d="M254 0v1413h457q320 0 492.5 -183t172.5 -521q0 -340 -173 -524.5t-492 -184.5h-457zM389 119h318q254 0 392 153t138 437q0 281 -138 434t-392 153h-318v-1177z" />
<glyph unicode="E" horiz-adv-x="1230" d="M254 0v1413h778v-117h-643v-522h561v-119h-561v-536h662v-119h-797z" />
<glyph unicode="F" horiz-adv-x="1163" d="M254 0v1413h758v-117h-623v-544h555v-119h-555v-633h-135z" />
<glyph unicode="G" horiz-adv-x="1533" d="M156 709q0 349 164 538t464 189q258 0 426 -131l-55 -97q-170 103 -369 103q-235 0 -363 -157.5t-128 -448.5q0 -290 128.5 -446.5t373.5 -156.5q97 0 196.5 29.5t173.5 79.5v551h131v-615q-244 -170 -516 -170q-298 0 -462 191t-164 541z" />
<glyph unicode="H" horiz-adv-x="1574" d="M254 0v1413h135v-639h795v639h135v-1413h-135v657h-795v-657h-135z" />
<glyph unicode="I" horiz-adv-x="645" d="M254 0v1413h135v-1413h-135z" />
<glyph unicode="J" horiz-adv-x="765" d="M31 123q74 -21 149 -21q116 0 164.5 63.5t48.5 203.5v1044h135v-1044q0 -194 -83.5 -293t-260.5 -99q-63 0 -137 19z" />
<glyph unicode="K" horiz-adv-x="1327" d="M254 0v1413h135v-641h12l623 641h176l-661 -674l708 -739h-174l-672 692h-12v-692h-135z" />
<glyph unicode="L" horiz-adv-x="1058" d="M254 0v1413h135v-1294h606v-119h-741z" />
<glyph unicode="M" horiz-adv-x="1886" d="M223 0l47 1413h189l479 -1196h12l488 1196h186l39 -1413h-133l-33 1221h-10l-479 -1170h-131l-476 1170h-12l-37 -1221h-129z" />
<glyph unicode="N" horiz-adv-x="1574" d="M254 0v1413h172l748 -1216h10v1216h135v-1413h-168l-750 1221h-12v-1221h-135z" />
<glyph unicode="O" horiz-adv-x="1615" d="M156 711q0 348 165.5 536.5t471.5 188.5q319 0 492 -188.5t173 -536.5q0 -352 -173 -543t-492 -191q-306 0 -471.5 191t-165.5 543zM297 711q0 -291 129.5 -450t368.5 -159q252 0 389 159t137 450q0 288 -137 444t-389 156q-239 0 -368.5 -155.5t-129.5 -444.5z" />
<glyph unicode="P" horiz-adv-x="1259" d="M254 0v1413h448q204 0 321.5 -114t117.5 -312q0 -201 -117.5 -315.5t-321.5 -114.5h-313v-557h-135zM389 674h311q139 0 219 83t80 228t-80 228t-219 83h-311v-622z" />
<glyph unicode="Q" horiz-adv-x="1615" d="M156 711q0 348 165.5 536.5t471.5 188.5q319 0 492 -188.5t173 -536.5q0 -271 -104.5 -449t-302.5 -246l307 -112l-25 -129l-454 207q-67 -5 -86 -5q-306 0 -471.5 191t-165.5 543zM297 711q0 -290 130 -449.5t368 -159.5q252 0 389 159t137 450q0 288 -137 444t-389 156 q-238 0 -368 -156t-130 -444z" />
<glyph unicode="R" horiz-adv-x="1294" d="M254 0v1413h448q204 0 321.5 -114t117.5 -312q0 -162 -78.5 -269.5t-218.5 -142.5l354 -575h-145l-340 559h-11h-313v-559h-135zM389 678h311q140 0 219.5 82t79.5 227t-79.5 227t-219.5 82h-311v-618z" />
<glyph unicode="S" horiz-adv-x="1122" d="M135 70l45 120q153 -90 326 -90q143 0 238.5 68t95.5 188q0 34 -8.5 64.5t-19.5 53.5t-35 47t-41 39t-52.5 36t-54.5 31.5t-61 31.5q-19 10 -29 15q-51 26 -76 39t-71 40.5t-70 47.5t-56.5 53t-49 65t-28.5 75t-12 91q0 159 113 255t299 96q88 0 178 -21t145 -53 l-28 -121q-64 35 -142 53.5t-145 18.5q-128 0 -204.5 -59.5t-76.5 -166.5q0 -32 9 -61.5t20.5 -51.5t37 -47t42.5 -39t54.5 -37t56 -33t62.5 -33q11 -6 17 -9q45 -22 67 -34t63 -35t63.5 -40t54 -43t49 -52t35.5 -58t25.5 -69.5t7.5 -79.5q0 -171 -127.5 -279.5 t-335.5 -108.5q-97 0 -198.5 24.5t-182.5 68.5z" />
<glyph unicode="T" horiz-adv-x="1175" d="M61 1296v117h1053v-117h-459v-1296h-135v1296h-459z" />
<glyph unicode="U" horiz-adv-x="1517" d="M236 537v876h135v-878q0 -207 101 -320t288 -113q186 0 286.5 113t100.5 320v878h135v-876q0 -269 -136 -414.5t-386 -145.5q-252 0 -388 145.5t-136 414.5z" />
<glyph unicode="V" horiz-adv-x="1333" d="M49 1413h146l471 -1278h10l469 1278h139l-530 -1413h-174z" />
<glyph unicode="W" horiz-adv-x="2043" d="M49 1413h148l350 -1263h12l395 1263h174l371 -1263h10l349 1263h137l-412 -1413h-168l-377 1262h-10l-399 -1262h-168z" />
<glyph unicode="X" horiz-adv-x="1349" d="M78 0l514 743l-467 670h160l385 -567h10l389 567h143l-462 -668l522 -745h-158l-442 643h-8l-441 -643h-145z" />
<glyph unicode="Y" horiz-adv-x="1239" d="M49 1413h156l411 -686h11l415 686h148l-502 -819v-594h-135v594z" />
<glyph unicode="Z" horiz-adv-x="1255" d="M139 0v125l830 1171h-791v117h938v-123l-827 -1171h848v-119h-998z" />
<glyph unicode="[" horiz-adv-x="825" d="M207 -217v1630h491v-94h-372v-1440h372v-96h-491z" />
<glyph unicode="\" horiz-adv-x="1054" d="M29 1413h131l966 -1671h-131z" />
<glyph unicode="]" horiz-adv-x="825" d="M125 -121h373v1440h-373v94h491v-1630h-491v96z" />
<glyph unicode="^" horiz-adv-x="935" d="M57 707l369 706h84l369 -706h-123l-287 559l-287 -559h-125z" />
<glyph unicode="_" horiz-adv-x="978" d="M8 -123h961v-92h-961v92z" />
<glyph unicode="`" horiz-adv-x="1228" d="M92 1331l141 45l205 -309h-100z" />
<glyph unicode="a" horiz-adv-x="1001" d="M106 246q0 172 158.5 265t450.5 93v-96q-231 0 -356.5 -66t-125.5 -186q0 -76 46.5 -124t128.5 -48q75 0 159.5 39t149.5 104v486q0 78 -51.5 122t-153.5 44q-153 0 -322 -88l-34 92q86 51 186.5 77.5t187.5 26.5q139 0 223.5 -73.5t84.5 -196.5v-717h-99l-14 121 q-71 -65 -165 -104.5t-181 -39.5q-122 0 -197.5 75t-75.5 194z" />
<glyph unicode="b" horiz-adv-x="1124" d="M184 0v1495h121v-641q127 133 309 133q188 0 295 -137.5t107 -370.5q0 -235 -107.5 -368.5t-296.5 -133.5q-100 0 -182 38t-133 110l-16 -125h-97zM305 242q51 -74 125.5 -114t161.5 -40q141 0 220 102.5t79 290.5q0 186 -78.5 291t-216.5 105q-86 0 -163 -40.5 t-128 -113.5v-481z" />
<glyph unicode="c" horiz-adv-x="960" d="M106 483q0 242 114 373t321 131q200 0 309 -115l-23 -120q-107 125 -280 125q-151 0 -233.5 -102.5t-82.5 -291.5q0 -190 82 -292.5t230 -102.5q179 0 305 145l24 -116q-124 -140 -333 -140q-205 0 -319 132t-114 374z" />
<glyph unicode="d" horiz-adv-x="1124" d="M106 475q0 237 107 374.5t295 137.5q182 0 309 -133v641h121v-1495h-96l-17 125q-51 -72 -133 -110t-184 -38q-192 0 -297 132.5t-105 365.5zM233 485q0 -195 82 -296t220 -101q83 0 157.5 40t124.5 114v481q-51 73 -127.5 113.5t-163.5 40.5q-136 0 -214.5 -105 t-78.5 -287z" />
<glyph unicode="e" horiz-adv-x="1013" d="M106 481q0 242 113.5 374t312.5 132q373 0 373 -450v-54h-672q0 -195 82 -295t234 -100q189 0 315 145l19 -116q-127 -140 -344 -140q-205 0 -319 131.5t-114 372.5zM240 582h540q0 142 -61.5 218.5t-181.5 76.5q-135 0 -208 -79.5t-89 -215.5z" />
<glyph unicode="f" horiz-adv-x="587" d="M59 862l35 105h119v327q0 106 56.5 165t160.5 59q59 0 115 -29l12 -103q-62 23 -121 23q-49 0 -75.5 -30.5t-26.5 -86.5v-325h198v-105h-198v-862h-121v862h-154z" />
<glyph unicode="g" horiz-adv-x="1011" d="M37 -133q0 118 77.5 187.5t192.5 90.5q-44 14 -69 42.5t-25 66.5q0 41 23 70.5t63 40.5q-85 38 -130.5 113t-45.5 179q0 154 96.5 242t265.5 88q163 0 260 -82l158 84l33 -106l-135 -41q47 -77 47 -185q0 -154 -96.5 -241.5t-266.5 -87.5q-39 0 -57 2l-33 -2 q-30 0 -48.5 -16.5t-18.5 -41.5q0 -31 42.5 -47t147.5 -30q48 -7 83.5 -14t81.5 -19.5t79 -27t67.5 -38t56 -52t35 -68t13.5 -87.5q0 -147 -114 -222t-337 -75q-220 0 -333 70.5t-113 206.5zM150 -113q0 -95 88.5 -145.5t250.5 -50.5q158 0 243 49.5t85 142.5 q0 91 -87.5 136t-285.5 71q-138 -7 -216 -64t-78 -139zM240 657q0 -109 65 -171t180 -62q114 0 180 62t66 171q0 110 -63 172t-183 62t-182.5 -61.5t-62.5 -172.5z" />
<glyph unicode="h" horiz-adv-x="1095" d="M184 0v1495h121v-655q71 70 160 108.5t182 38.5q130 0 206.5 -73.5t76.5 -200.5v-713h-121v688q0 86 -54.5 136t-142.5 50q-78 0 -158 -42t-149 -117v-715h-121z" />
<glyph unicode="i" horiz-adv-x="489" d="M154 1186q0 44 24.5 67t69.5 23q92 0 92 -90t-92 -90q-45 0 -69.5 23t-24.5 67zM184 0v967h121v-967h-121z" />
<glyph unicode="j" horiz-adv-x="503" d="M18 -291q27 -8 76 -8q50 0 76.5 30t26.5 85v1151h122v-1151q0 -108 -57 -167t-162 -59q-30 0 -63 11zM168 1186q0 44 24.5 67t69.5 23q92 0 92 -90t-92 -90q-45 0 -69.5 23t-24.5 67z" />
<glyph unicode="k" horiz-adv-x="942" d="M184 0v1495h121v-932h12l414 404h154l-445 -435l480 -532h-156l-447 502h-12v-502h-121z" />
<glyph unicode="l" horiz-adv-x="489" d="M184 0v1495h121v-1495h-121z" />
<glyph unicode="m" horiz-adv-x="1720" d="M184 0v967h97l14 -142q69 77 161.5 119.5t190.5 42.5q99 0 168.5 -45t97.5 -125q66 78 162 124t197 46q130 0 206 -73.5t76 -200.5v-713h-120v688q0 86 -54 136t-141 50q-78 0 -158.5 -42t-150.5 -117v-2v-713h-121v688q0 86 -54 136t-141 50q-80 0 -160 -42t-149 -117 v-715h-121z" />
<glyph unicode="n" horiz-adv-x="1095" d="M184 0v967h97l14 -142q69 77 161.5 119.5t190.5 42.5q130 0 206.5 -73.5t76.5 -200.5v-713h-121v688q0 86 -54 136t-141 50q-80 0 -160 -42t-149 -117v-715h-121z" />
<glyph unicode="o" horiz-adv-x="1089" d="M106 483q0 243 114 373.5t325 130.5q209 0 322.5 -130.5t113.5 -373.5t-113.5 -374.5t-322.5 -131.5q-211 0 -325 131.5t-114 374.5zM233 483q0 -190 81 -292.5t231 -102.5q151 0 232 102.5t81 292.5t-81 292t-232 102q-150 0 -231 -102t-81 -292z" />
<glyph unicode="p" horiz-adv-x="1124" d="M184 -410v1377h97l14 -121q130 141 319 141q184 0 293 -138t109 -370q0 -234 -108 -368t-296 -134q-94 0 -173.5 35t-133.5 99v-521h-121zM305 242q51 -74 125.5 -114t161.5 -40q139 0 218 103t79 290q0 186 -78 291t-215 105q-87 0 -163.5 -40.5t-127.5 -113.5v-481z " />
<glyph unicode="q" horiz-adv-x="1124" d="M106 475q0 237 107 374.5t295 137.5q192 0 319 -141l15 121h96v-1377h-121v523q-52 -66 -132 -101t-177 -35q-192 0 -297 132.5t-105 365.5zM233 485q0 -195 82 -296t220 -101q83 0 157.5 40t124.5 114v481q-51 73 -127.5 113.5t-163.5 40.5q-136 0 -214.5 -105 t-78.5 -287z" />
<glyph unicode="r" horiz-adv-x="675" d="M184 0v967h97l14 -140q68 73 156.5 116.5t156.5 43.5l8 -110q-169 -12 -311 -154v-723h-121z" />
<glyph unicode="s" horiz-adv-x="882" d="M98 66l15 112q58 -38 158 -64t184 -26q106 0 165.5 41.5t59.5 122.5q0 31 -14.5 57.5t-37 45.5t-58 36.5t-68 29.5t-76.5 25q-54 15 -91 28.5t-81.5 37t-72 50.5t-46 68.5t-18.5 92.5q0 128 93 196t236 68q74 0 157.5 -17.5t137.5 -45.5l-12 -107q-61 26 -140 46t-140 20 q-92 0 -151.5 -42t-59.5 -112q0 -26 7.5 -46.5t28 -38t35 -28t51.5 -24t53 -18.5t62 -19q56 -16 96 -30t87 -38.5t75.5 -53t48 -71.5t19.5 -96q0 -137 -95.5 -213t-263.5 -76q-94 0 -191.5 26t-152.5 63z" />
<glyph unicode="t" horiz-adv-x="626" d="M57 858l35 109h119v354h121v-354h198v-109h-198v-637q0 -56 26.5 -86.5t75.5 -30.5q55 0 105 17l39 -88q-75 -35 -150 -35q-104 0 -160.5 57.5t-56.5 163.5v639h-154z" />
<glyph unicode="u" horiz-adv-x="1105" d="M174 254v713h121v-688q0 -87 54.5 -138t142.5 -51q78 0 158 43t149 119v715h121v-967h-97l-14 141q-70 -77 -162 -120.5t-190 -43.5q-130 0 -206.5 74.5t-76.5 202.5z" />
<glyph unicode="v" horiz-adv-x="948" d="M39 967h133l309 -850l301 850h127l-356 -967h-150z" />
<glyph unicode="w" horiz-adv-x="1452" d="M39 967h133l244 -850l258 850h119l247 -850l248 850h125l-299 -967h-156l-231 784l-238 -784h-157z" />
<glyph unicode="x" horiz-adv-x="966" d="M66 0l337 492l-327 475h143l262 -389l271 389h129l-330 -463l348 -504h-143l-277 410l-278 -410h-135z" />
<glyph unicode="y" horiz-adv-x="948" d="M39 967h135l307 -850l301 850h127l-379 -1028q-19 -52 -30 -81.5t-30 -72t-35 -66.5t-40 -52t-49 -42.5t-58.5 -24.5t-72.5 -10q-28 0 -70 11l-18 108q33 -8 70 -8q49 0 79.5 18.5t62.5 73.5t73 166z" />
<glyph unicode="z" horiz-adv-x="927" d="M98 0v117l582 741h-545v109h692v-103l-587 -755h589v-109h-731z" />
<glyph unicode="{" horiz-adv-x="864" d="M86 553v90h61q71 0 109.5 57.5t38.5 163.5q0 46 -12.5 139t-12.5 134q0 134 77 205t218 71h191v-92h-172q-93 0 -142 -47t-49 -139q0 -33 11.5 -131t11.5 -140q0 -207 -170 -264v-4q82 -29 126 -98.5t44 -167.5q0 -41 -11.5 -139t-11.5 -132q0 -182 189 -182h174v-94 h-191q-141 0 -218 70t-77 202q0 39 12.5 134t12.5 143q0 106 -38.5 163.5t-109.5 57.5h-61z" />
<glyph unicode="|" horiz-adv-x="645" d="M266 -387v1964h115v-1964h-115z" />
<glyph unicode="}" horiz-adv-x="864" d="M106 -123h175q93 0 141.5 46t48.5 136q0 34 -11 132t-11 139q0 99 43 168t126 98v4q-83 28 -126 95t-43 169q0 42 11 140t11 131q0 91 -49 138.5t-141 47.5h-175v92h191q142 0 218.5 -71t76.5 -205q0 -41 -11.5 -134t-11.5 -139q0 -106 38.5 -163.5t109.5 -57.5h59v-90 h-59q-71 0 -109.5 -57.5t-38.5 -163.5q0 -48 11.5 -143t11.5 -134q0 -133 -76.5 -202.5t-218.5 -69.5h-191v94z" />
<glyph unicode="~" horiz-adv-x="1019" d="M121 561q55 65 116 98t113 33q31 0 68 -10.5t53.5 -17.5t60.5 -27q96 -45 140 -45q83 0 170 78l55 -58q-50 -60 -111.5 -91.5t-115.5 -31.5q-70 0 -176 54q-88 45 -146 45q-82 0 -172 -84z" />
<glyph unicode="&#xa1;" horiz-adv-x="561" d="M176 924q0 104 105 104q104 0 104 -104q0 -105 -104 -105q-51 0 -78 27t-27 78zM203 -410l35 1039h86l34 -1039h-155z" />
<glyph unicode="&#xa2;" horiz-adv-x="960" d="M106 707q0 230 103 360.5t291 142.5l-13 203h121l-10 -203q162 -15 252 -112l-23 -123q-108 127 -280 127q-151 0 -233.5 -103t-82.5 -292q0 -190 81.5 -292t230.5 -102q181 0 305 146l24 -117q-104 -119 -274 -137l10 -205h-121l13 205q-187 12 -290.5 143t-103.5 359z " />
<glyph unicode="&#xa3;" d="M137 0v88q160 259 168 569h-168v105h166q-1 25 -7.5 112t-6.5 132q0 206 129 318t368 112q114 0 224 -35l-17 -113q-121 31 -202 31q-180 0 -276.5 -83t-96.5 -237q0 -33 5.5 -123.5t6.5 -113.5h481l-16 -105h-463q-5 -140 -43.5 -291.5t-103.5 -261.5h719v-104h-867z " />
<glyph unicode="&#xa4;" horiz-adv-x="993" d="M78 336l153 137q-53 77 -53 199q0 121 53 198l-153 138l82 79l137 -151q79 51 199 51q119 0 198 -51l137 151l82 -79l-153 -138q53 -77 53 -198q0 -122 -53 -199l153 -137l-82 -82l-137 154q-79 -54 -198 -54q-120 0 -199 54l-137 -154zM279 672q0 -107 56.5 -165 t162.5 -58q103 0 159 58t56 165t-56.5 165t-162.5 58q-103 0 -159 -58t-56 -165z" />
<glyph unicode="&#xa5;" horiz-adv-x="1236" d="M49 1413h154l411 -686h11l415 686h148l-496 -809h336v-94h-342v-186h342v-95h-342v-229h-133v229h-346v95h346v186h-346v94h340z" />
<glyph unicode="&#xa6;" horiz-adv-x="647" d="M266 367h115v-754h-115v754zM266 809v768h115v-768h-115z" />
<glyph unicode="&#xa7;" horiz-adv-x="1153" d="M117 703v16q0 84 38.5 143t114.5 123q-41 36 -60.5 74.5t-19.5 91.5q0 132 109.5 208.5t302.5 76.5q158 0 307 -45l-26 -115q-120 49 -267 49q-127 0 -212 -41.5t-85 -122.5q0 -41 21 -70t75.5 -49t87.5 -28t115 -23q6 -1 9 -2q43 -8 66.5 -13t64 -14t64 -17.5t56.5 -22 t52.5 -27.5t42.5 -34.5t35 -43.5t20 -53t8 -64q0 -147 -151 -272q80 -61 80 -164q0 -142 -117 -214.5t-318 -72.5q-159 0 -348 64l33 117q142 -66 322 -66q128 0 212.5 41t84.5 121q0 28 -10 50t-34.5 39t-46 28t-64.5 22t-69.5 16l-79.5 15q-175 33 -247 64 q-158 67 -166 215zM242 725q0 -39 18 -68t55 -48t75 -30.5t95 -23.5q20 -4 98 -17t125 -24t85 -27q52 30 86 86.5t34 118.5q0 26 -11 48.5t-26 38t-45.5 30t-52.5 22.5t-65 17.5t-66.5 13.5t-71.5 12q-152 27 -213 52q-65 -54 -92.5 -97.5t-27.5 -103.5z" />
<glyph unicode="&#xa8;" horiz-adv-x="1228" d="M186 1186q0 44 25 67t70 23q92 0 92 -90t-92 -90q-45 0 -70 23t-25 67zM543 1186q0 44 24.5 67t69.5 23q92 0 92 -90t-92 -90q-45 0 -69.5 23t-24.5 67z" />
<glyph unicode="&#xa9;" horiz-adv-x="1658" d="M117 707q0 349 183.5 539t524.5 190t526 -190t185 -539t-184 -539.5t-523 -190.5q-342 0 -527 190.5t-185 539.5zM193 707q0 -318 165 -490t471 -172q302 0 465.5 172t163.5 490t-164.5 489.5t-470.5 171.5q-302 0 -466 -171.5t-164 -489.5zM479 713q0 201 96 309 t273 108q125 0 242 -71l-19 -103q-108 82 -223 82q-126 0 -194 -84t-68 -241t68.5 -241.5t195.5 -84.5q115 0 240 92l12 -96q-119 -86 -258 -86q-175 0 -270 108.5t-95 307.5z" />
<glyph unicode="&#xaa;" horiz-adv-x="827" d="M152 942q0 114 103 175t300 67v49q0 59 -35.5 91t-101.5 32q-114 0 -209 -53l-27 63q109 70 246 70q107 0 164 -51.5t57 -147.5v-457h-74l-14 78q-113 -92 -217 -92q-92 0 -142 45.5t-50 130.5zM158 524v82h493v-82h-493zM244 948q0 -49 30 -75.5t86 -26.5q102 0 195 84 v184q-150 -2 -230.5 -44.5t-80.5 -121.5z" />
<glyph unicode="&#xab;" horiz-adv-x="1052" d="M86 483l336 484h102l-288 -484l288 -483h-102zM506 483l332 484h106l-289 -484l289 -483h-106z" />
<glyph unicode="&#xac;" d="M121 655v103h923v-479h-92v376h-831z" />
<glyph unicode="&#xad;" horiz-adv-x="755" d="M127 553v117h502v-117h-502z" />
<glyph unicode="&#xae;" horiz-adv-x="1171" d="M119 958q0 229 121.5 353.5t345.5 124.5t344.5 -124.5t120.5 -353.5q0 -230 -120.5 -354.5t-344.5 -124.5t-345.5 124.5t-121.5 354.5zM184 958q0 -201 104.5 -310t299.5 -109q193 0 297 109t104 310t-103.5 308.5t-297.5 107.5q-195 0 -299.5 -107.5t-104.5 -308.5z M440 711v526h140q88 0 136 -40.5t48 -113.5q0 -53 -30 -90.5t-85 -54.5l158 -227h-84l-145 213h-64v-213h-74zM512 983h59q57 0 88 25t31 71t-30 71.5t-87 25.5h-61v-193z" />
<glyph unicode="&#xaf;" horiz-adv-x="1228" d="M205 1122v103h497v-103h-497z" />
<glyph unicode="&#xb0;" horiz-adv-x="892" d="M129 1120q0 141 87.5 228.5t229.5 87.5t230 -87.5t88 -228.5q0 -142 -87.5 -229.5t-230.5 -87.5q-142 0 -229.5 87.5t-87.5 229.5zM225 1120q0 -103 62 -166t162 -63q98 0 158.5 63t60.5 166q0 101 -62 163.5t-162 62.5q-98 0 -158.5 -62.5t-60.5 -163.5z" />
<glyph unicode="&#xb1;" d="M121 0v104h923v-104h-923zM121 598v102h409v326h109v-326h405v-102h-405v-340h-109v340h-409z" />
<glyph unicode="&#xb2;" horiz-adv-x="833" d="M127 774q151 125 245.5 251t94.5 214q0 51 -33 79t-90 28q-86 0 -188 -76l-19 88q104 78 221 78q104 0 159.5 -49.5t55.5 -139.5q0 -102 -80 -221t-219 -240h324v-88h-451z" />
<glyph unicode="&#xb3;" horiz-adv-x="796" d="M96 729l17 94q85 -55 186 -55q80 0 123 33t43 94q0 64 -51.5 99.5t-141.5 35.5h-39l-8 80h51q82 0 127.5 34t45.5 93q0 52 -34.5 80.5t-97.5 28.5q-102 0 -194 -64l-12 88q97 66 221 66q108 0 166.5 -48.5t58.5 -138.5q0 -61 -35 -107t-100 -69q72 -20 110.5 -68 t38.5 -118q0 -101 -67 -156t-193 -55q-112 0 -215 53z" />
<glyph unicode="&#xb4;" horiz-adv-x="1228" d="M205 1067l207 309l135 -43l-244 -266h-98z" />
<glyph unicode="&#xb5;" horiz-adv-x="1130" d="M197 -410v1377h120v-688q0 -93 54.5 -141t140.5 -48q81 0 166 43t143 119v715h121v-967h-96l-12 141q-64 -75 -158.5 -119.5t-188.5 -44.5q-134 0 -196 95l20 -482h-114z" />
<glyph unicode="&#xb6;" horiz-adv-x="1071" d="M90 1053q0 172 111 265t315 93h338v-1411h-100v1329h-185v-1329h-100v682q-187 17 -283 111t-96 260z" />
<glyph unicode="&#xb7;" horiz-adv-x="466" d="M129 580q0 104 104 104q105 0 105 -104q0 -51 -27 -78t-78 -27q-104 0 -104 105z" />
<glyph unicode="&#xb8;" horiz-adv-x="1228" d="M176 -387l39 78q44 -17 80 -17q47 0 76.5 22t29.5 56q0 51 -65 51q-31 0 -60 -10l-38 37l63 188l102 -18l-63 -133q24 8 57 8q113 0 113 -104q0 -83 -59.5 -132t-151.5 -49q-49 0 -123 23z" />
<glyph unicode="&#xb9;" horiz-adv-x="669" d="M68 1341l176 84h94v-727h-105v623l-153 -68z" />
<glyph unicode="&#xba;" horiz-adv-x="825" d="M123 1087q0 167 75.5 258t213.5 91q139 0 213.5 -90.5t74.5 -258.5t-74.5 -259t-213.5 -91q-138 0 -213.5 91.5t-75.5 258.5zM143 524v82h539v-82h-539zM221 1087q0 -128 49.5 -197t141.5 -69q93 0 142.5 69t49.5 197t-49.5 196.5t-142.5 68.5q-92 0 -141.5 -68.5 t-49.5 -196.5z" />
<glyph unicode="&#xbb;" horiz-adv-x="1052" d="M106 0l291 483l-291 484h107l332 -484l-332 -483h-107zM528 0l291 483l-291 484h103l336 -484l-336 -483h-103z" />
<glyph unicode="&#xbc;" horiz-adv-x="1548" d="M154 1341l176 84h94v-729h-105v625l-153 -68zM295 0l815 1413h102l-815 -1413h-102zM838 154v71l342 502h129v-496h108v-77h-108v-154h-105v154h-366zM940 231h264v385z" />
<glyph unicode="&#xbd;" horiz-adv-x="1662" d="M154 1341l176 84h94v-729h-105v625l-153 -68zM293 0l815 1413h102l-815 -1413h-102zM997 76q151 125 245.5 251t94.5 214q0 51 -32.5 78.5t-90.5 27.5q-86 0 -188 -76l-18 88q104 78 221 78q104 0 159.5 -49t55.5 -139q0 -102 -80 -221t-219 -240h323v-88h-450z" />
<glyph unicode="&#xbe;" horiz-adv-x="1632" d="M162 729l16 94q85 -55 187 -55q80 0 122.5 33t42.5 94q0 64 -51 99.5t-141 35.5h-39l-8 80h51q83 0 127.5 33.5t44.5 93.5q0 52 -34 80.5t-97 28.5q-103 0 -195 -64l-12 88q97 66 221 66q109 0 167.5 -49t58.5 -140q0 -59 -35.5 -105t-100.5 -69q72 -20 111 -68t39 -118 q0 -101 -67 -156t-193 -55q-112 0 -215 53zM381 0l815 1413h102l-815 -1413h-102zM922 154v71l342 502h129v-496h108v-77h-108v-154h-105v154h-366zM1024 231h264v385z" />
<glyph unicode="&#xbf;" horiz-adv-x="925" d="M92 -88q0 78 24 141t76 116t117.5 95t163.5 90l10 275h78l10 -334q-178 -88 -263 -173t-85 -202q0 -109 71 -170t202 -61q97 0 194.5 33.5t171.5 93.5l19 -117q-174 -127 -398 -127q-179 0 -285 85t-106 255zM414 924q0 104 104 104q105 0 105 -104q0 -51 -27 -78 t-78 -27q-104 0 -104 105z" />
<glyph unicode="&#xc0;" horiz-adv-x="1345" d="M49 0l533 1413h184l530 -1413h-141l-156 422h-653l-158 -422h-139zM387 535h571l-278 755h-12zM440 1778l142 45l204 -310h-100z" />
<glyph unicode="&#xc1;" horiz-adv-x="1345" d="M49 0l533 1413h184l530 -1413h-141l-156 422h-653l-158 -422h-139zM387 535h571l-278 755h-12zM555 1513l207 310l135 -43l-244 -267h-98z" />
<glyph unicode="&#xc2;" horiz-adv-x="1345" d="M49 0l533 1413h184l530 -1413h-141l-156 422h-653l-158 -422h-139zM387 535h571l-278 755h-12zM403 1513l213 310h107l213 -310h-107l-159 205l-160 -205h-107z" />
<glyph unicode="&#xc3;" horiz-adv-x="1345" d="M49 0l533 1413h184l530 -1413h-141l-156 422h-653l-158 -422h-139zM377 1516q0 93 41 150.5t106 57.5q49 0 151 -50t138 -50q29 0 51.5 30t30.5 77l70 -2q0 -91 -42 -150t-108 -59q-48 0 -148 49t-137 49q-30 0 -51.5 -29.5t-29.5 -77.5zM387 535h571l-278 755h-12z" />
<glyph unicode="&#xc4;" horiz-adv-x="1345" d="M49 0l533 1413h184l530 -1413h-141l-156 422h-653l-158 -422h-139zM387 535h571l-278 755h-12zM399 1632q0 44 25 67t70 23q92 0 92 -90t-92 -90q-45 0 -70 23t-25 67zM756 1632q0 44 24.5 67t69.5 23q92 0 92 -90t-92 -90q-45 0 -69.5 23t-24.5 67z" />
<glyph unicode="&#xc5;" horiz-adv-x="1345" d="M49 0l533 1413h184l530 -1413h-141l-156 422h-653l-158 -422h-139zM387 535h571l-278 755h-12zM477 1679q0 85 52 134t143 49q89 0 140.5 -49t51.5 -134q0 -88 -51.5 -138t-140.5 -50q-91 0 -143 50t-52 138zM569 1679q0 -51 26.5 -77.5t76.5 -26.5q104 0 104 104 q0 46 -26.5 71.5t-77.5 25.5q-49 0 -76 -25.5t-27 -71.5z" />
<glyph unicode="&#xc6;" horiz-adv-x="1923" d="M49 0l817 1413h109h751v-117h-643v-522h559v-119h-559v-536h662v-119h-797v422h-510l-241 -422h-148zM504 535h444v755h-10z" />
<glyph unicode="&#xc7;" horiz-adv-x="1345" d="M156 709q0 349 164 538t464 189q258 0 426 -131l-57 -97q-170 103 -367 103q-235 0 -363 -157.5t-128 -448.5t128 -447t374 -156q211 0 397 125l53 -98q-173 -137 -418 -149l-53 -113q24 8 58 8q112 0 112 -104q0 -83 -59.5 -132t-151.5 -49q-49 0 -123 23l39 78 q44 -17 80 -17q47 0 77 22t30 56q0 51 -66 51q-30 0 -59 -10l-39 37l51 150q-272 19 -420.5 208t-148.5 521z" />
<glyph unicode="&#xc8;" horiz-adv-x="1230" d="M254 0v1413h778v-117h-643v-522h561v-119h-561v-536h662v-119h-797zM422 1778l141 45l205 -310h-100z" />
<glyph unicode="&#xc9;" horiz-adv-x="1230" d="M254 0v1413h778v-117h-643v-522h561v-119h-561v-536h662v-119h-797zM537 1513l206 310l136 -43l-244 -267h-98z" />
<glyph unicode="&#xca;" horiz-adv-x="1230" d="M254 0v1413h778v-117h-643v-522h561v-119h-561v-536h662v-119h-797zM385 1513l213 310h107l213 -310h-107l-160 205l-159 -205h-107z" />
<glyph unicode="&#xcb;" horiz-adv-x="1230" d="M254 0v1413h778v-117h-643v-522h561v-119h-561v-536h662v-119h-797zM381 1632q0 44 24.5 67t69.5 23q92 0 92 -90t-92 -90q-45 0 -69.5 23t-24.5 67zM737 1632q0 44 24.5 67t69.5 23t69 -23t24 -67t-24 -67t-69 -23t-69.5 23t-24.5 67z" />
<glyph unicode="&#xcc;" horiz-adv-x="645" d="M92 1778l141 45l205 -310h-100zM254 0v1413h135v-1413h-135z" />
<glyph unicode="&#xcd;" horiz-adv-x="645" d="M207 1513l207 310l135 -43l-244 -267h-98zM254 0v1413h135v-1413h-135z" />
<glyph unicode="&#xce;" horiz-adv-x="645" d="M55 1513l213 310h107l213 -310h-107l-159 205l-160 -205h-107zM254 0v1413h135v-1413h-135z" />
<glyph unicode="&#xcf;" horiz-adv-x="645" d="M51 1632q0 44 24.5 67t69.5 23t69 -23t24 -67t-24 -67t-69 -23t-69.5 23t-24.5 67zM254 0v1413h135v-1413h-135zM408 1632q0 44 24.5 67t69.5 23q92 0 92 -90t-92 -90q-45 0 -69.5 23t-24.5 67z" />
<glyph unicode="&#xd0;" horiz-adv-x="1533" d="M39 670v108h215v635h457q320 0 492.5 -183t172.5 -521q0 -340 -173 -524.5t-492 -184.5h-457v670h-215zM389 119h318q254 0 392 153t138 437q0 281 -138 434t-392 153h-318v-518h371v-108h-371v-551z" />
<glyph unicode="&#xd1;" horiz-adv-x="1574" d="M254 0v1413h172l748 -1216h10v1216h135v-1413h-168l-750 1221h-12v-1221h-135zM494 1516q0 93 41 150.5t106 57.5q49 0 151 -50t138 -50q29 0 51.5 30t30.5 77l69 -2q0 -91 -41.5 -150t-107.5 -59q-48 0 -148 49t-137 49q-30 0 -52 -29.5t-30 -77.5z" />
<glyph unicode="&#xd2;" horiz-adv-x="1615" d="M156 711q0 348 165.5 536.5t471.5 188.5q319 0 492 -188.5t173 -536.5q0 -352 -173 -543t-492 -191q-306 0 -471.5 191t-165.5 543zM297 711q0 -291 129.5 -450t368.5 -159q252 0 389 159t137 450q0 288 -137 444t-389 156q-239 0 -368.5 -155.5t-129.5 -444.5zM578 1778 l141 45l205 -310h-101z" />
<glyph unicode="&#xd3;" horiz-adv-x="1615" d="M156 711q0 348 165.5 536.5t471.5 188.5q319 0 492 -188.5t173 -536.5q0 -352 -173 -543t-492 -191q-306 0 -471.5 191t-165.5 543zM297 711q0 -291 129.5 -450t368.5 -159q252 0 389 159t137 450q0 288 -137 444t-389 156q-239 0 -368.5 -155.5t-129.5 -444.5zM692 1513 l207 310l135 -43l-243 -267h-99z" />
<glyph unicode="&#xd4;" horiz-adv-x="1615" d="M156 711q0 348 165.5 536.5t471.5 188.5q319 0 492 -188.5t173 -536.5q0 -352 -173 -543t-492 -191q-306 0 -471.5 191t-165.5 543zM297 711q0 -291 129.5 -450t368.5 -159q252 0 389 159t137 450q0 288 -137 444t-389 156q-239 0 -368.5 -155.5t-129.5 -444.5zM541 1513 l213 310h106l213 -310h-106l-160 205l-160 -205h-106z" />
<glyph unicode="&#xd5;" horiz-adv-x="1615" d="M156 711q0 348 165.5 536.5t471.5 188.5q319 0 492 -188.5t173 -536.5q0 -352 -173 -543t-492 -191q-306 0 -471.5 191t-165.5 543zM297 711q0 -291 129.5 -450t368.5 -159q252 0 389 159t137 450q0 288 -137 444t-389 156q-239 0 -368.5 -155.5t-129.5 -444.5zM514 1516 q0 93 41.5 150.5t106.5 57.5q49 0 150.5 -50t137.5 -50q29 0 51.5 30t30.5 77l70 -2q0 -91 -42 -150t-108 -59q-48 0 -147.5 49t-136.5 49q-30 0 -52 -29.5t-30 -77.5z" />
<glyph unicode="&#xd6;" horiz-adv-x="1615" d="M156 711q0 348 165.5 536.5t471.5 188.5q319 0 492 -188.5t173 -536.5q0 -352 -173 -543t-492 -191q-306 0 -471.5 191t-165.5 543zM297 711q0 -291 129.5 -450t368.5 -159q252 0 389 159t137 450q0 288 -137 444t-389 156q-239 0 -368.5 -155.5t-129.5 -444.5zM537 1632 q0 44 24.5 67t69.5 23q92 0 92 -90t-92 -90q-45 0 -69.5 23t-24.5 67zM893 1632q0 44 24.5 67t69.5 23q92 0 92 -90t-92 -90q-45 0 -69.5 23t-24.5 67z" />
<glyph unicode="&#xd7;" horiz-adv-x="1163" d="M168 926l74 73l342 -344l340 342l69 -69l-342 -340l344 -342l-73 -74l-342 344l-340 -342l-70 70l342 340z" />
<glyph unicode="&#xd8;" horiz-adv-x="1615" d="M156 711q0 348 165.5 536.5t471.5 188.5q268 0 438 -138l94 115h143l-159 -194q149 -187 149 -508q0 -352 -173 -543t-492 -191q-242 0 -402 123l-82 -100h-143l147 178q-157 189 -157 533zM297 711q0 -266 106 -420l742 903q-132 117 -350 117q-239 0 -368.5 -155.5 t-129.5 -444.5zM479 207q124 -105 316 -105q252 0 389 159t137 450q0 249 -102 399z" />
<glyph unicode="&#xd9;" horiz-adv-x="1517" d="M236 537v876h135v-878q0 -207 101 -320t288 -113q186 0 286.5 113t100.5 320v878h135v-876q0 -269 -136 -414.5t-386 -145.5q-252 0 -388 145.5t-136 414.5zM528 1778l142 45l204 -310h-100z" />
<glyph unicode="&#xda;" horiz-adv-x="1517" d="M236 537v876h135v-878q0 -207 101 -320t288 -113q186 0 286.5 113t100.5 320v878h135v-876q0 -269 -136 -414.5t-386 -145.5q-252 0 -388 145.5t-136 414.5zM643 1513l207 310l135 -43l-244 -267h-98z" />
<glyph unicode="&#xdb;" horiz-adv-x="1517" d="M236 537v876h135v-878q0 -207 101 -320t288 -113q186 0 286.5 113t100.5 320v878h135v-876q0 -269 -136 -414.5t-386 -145.5q-252 0 -388 145.5t-136 414.5zM492 1513l213 310h106l213 -310h-106l-160 205l-160 -205h-106z" />
<glyph unicode="&#xdc;" horiz-adv-x="1517" d="M236 537v876h135v-878q0 -207 101 -320t288 -113q186 0 286.5 113t100.5 320v878h135v-876q0 -269 -136 -414.5t-386 -145.5q-252 0 -388 145.5t-136 414.5zM487 1632q0 44 25 67t70 23q92 0 92 -90t-92 -90q-45 0 -70 23t-25 67zM844 1632q0 44 24.5 67t69.5 23 q92 0 92 -90t-92 -90q-45 0 -69.5 23t-24.5 67z" />
<glyph unicode="&#xdd;" horiz-adv-x="1239" d="M49 1413h156l411 -686h11l415 686h148l-502 -819v-594h-135v594zM504 1513l207 310l135 -43l-244 -267h-98z" />
<glyph unicode="&#xde;" horiz-adv-x="1259" d="M254 0v1413h135v-250h313q204 0 321.5 -114t117.5 -312q0 -201 -117.5 -315.5t-321.5 -114.5h-313v-307h-135zM389 424h313q138 0 218.5 83.5t80.5 227.5q0 145 -80.5 228.5t-218.5 83.5h-313v-623z" />
<glyph unicode="&#xdf;" horiz-adv-x="1216" d="M254 0v1096q0 164 83 252t238 88q158 0 244 -81.5t86 -232.5q0 -177 -182 -362q185 -50 285 -159t100 -263q0 -172 -93.5 -266.5t-264.5 -94.5q-105 0 -201 52v106q107 -49 199 -49q112 0 172.5 66t60.5 188q0 125 -98 213.5t-279 128.5l-14 82q92 89 141 178t49 164 q0 103 -53.5 159t-153.5 56q-95 0 -146.5 -59.5t-51.5 -169.5v-1092h-121z" />
<glyph unicode="&#xe0;" horiz-adv-x="1001" d="M106 246q0 172 158.5 265t450.5 93v-96q-231 0 -356.5 -66t-125.5 -186q0 -76 46.5 -124t128.5 -48q75 0 159.5 39t149.5 104v486q0 78 -51.5 122t-153.5 44q-153 0 -322 -88l-34 92q86 51 186.5 77.5t187.5 26.5q139 0 223.5 -73.5t84.5 -196.5v-717h-99l-14 121 q-71 -65 -165 -104.5t-181 -39.5q-122 0 -197.5 75t-75.5 194zM270 1331l142 45l204 -309h-100z" />
<glyph unicode="&#xe1;" horiz-adv-x="1001" d="M106 246q0 172 158.5 265t450.5 93v-96q-231 0 -356.5 -66t-125.5 -186q0 -76 46.5 -124t128.5 -48q75 0 159.5 39t149.5 104v486q0 78 -51.5 122t-153.5 44q-153 0 -322 -88l-34 92q86 51 186.5 77.5t187.5 26.5q139 0 223.5 -73.5t84.5 -196.5v-717h-99l-14 121 q-71 -65 -165 -104.5t-181 -39.5q-122 0 -197.5 75t-75.5 194zM385 1067l207 309l135 -43l-244 -266h-98z" />
<glyph unicode="&#xe2;" horiz-adv-x="1001" d="M106 246q0 172 158.5 265t450.5 93v-96q-231 0 -356.5 -66t-125.5 -186q0 -76 46.5 -124t128.5 -48q75 0 159.5 39t149.5 104v486q0 78 -51.5 122t-153.5 44q-153 0 -322 -88l-34 92q86 51 186.5 77.5t187.5 26.5q139 0 223.5 -73.5t84.5 -196.5v-717h-99l-14 121 q-71 -65 -165 -104.5t-181 -39.5q-122 0 -197.5 75t-75.5 194zM233 1067l213 309h107l213 -309h-107l-159 205l-160 -205h-107z" />
<glyph unicode="&#xe3;" horiz-adv-x="1001" d="M106 246q0 172 158.5 265t450.5 93v-96q-231 0 -356.5 -66t-125.5 -186q0 -76 46.5 -124t128.5 -48q75 0 159.5 39t149.5 104v486q0 78 -51.5 122t-153.5 44q-153 0 -322 -88l-34 92q86 51 186.5 77.5t187.5 26.5q139 0 223.5 -73.5t84.5 -196.5v-717h-99l-14 121 q-71 -65 -165 -104.5t-181 -39.5q-122 0 -197.5 75t-75.5 194zM207 1069q0 93 41 151t106 58q49 0 151 -50t138 -50q29 0 51.5 29.5t30.5 76.5l70 -2q0 -91 -42 -150t-108 -59q-48 0 -148 49t-137 49q-30 0 -51.5 -29t-29.5 -77z" />
<glyph unicode="&#xe4;" horiz-adv-x="1001" d="M106 246q0 172 158.5 265t450.5 93v-96q-231 0 -356.5 -66t-125.5 -186q0 -76 46.5 -124t128.5 -48q75 0 159.5 39t149.5 104v486q0 78 -51.5 122t-153.5 44q-153 0 -322 -88l-34 92q86 51 186.5 77.5t187.5 26.5q139 0 223.5 -73.5t84.5 -196.5v-717h-99l-14 121 q-71 -65 -165 -104.5t-181 -39.5q-122 0 -197.5 75t-75.5 194zM229 1186q0 44 25 67t70 23q92 0 92 -90t-92 -90q-45 0 -70 23t-25 67zM586 1186q0 44 24.5 67t69.5 23q92 0 92 -90t-92 -90q-45 0 -69.5 23t-24.5 67z" />
<glyph unicode="&#xe5;" horiz-adv-x="1001" d="M106 246q0 172 158.5 265t450.5 93v-96q-231 0 -356.5 -66t-125.5 -186q0 -76 46.5 -124t128.5 -48q75 0 159.5 39t149.5 104v486q0 78 -51.5 122t-153.5 44q-153 0 -322 -88l-34 92q86 51 186.5 77.5t187.5 26.5q139 0 223.5 -73.5t84.5 -196.5v-717h-99l-14 121 q-71 -65 -165 -104.5t-181 -39.5q-122 0 -197.5 75t-75.5 194zM307 1233q0 85 52 133.5t143 48.5q89 0 140.5 -48.5t51.5 -133.5q0 -88 -51.5 -138.5t-140.5 -50.5q-91 0 -143 50.5t-52 138.5zM399 1233q0 -51 26.5 -78t76.5 -27q104 0 104 105q0 46 -26.5 71t-77.5 25 q-49 0 -76 -25t-27 -71z" />
<glyph unicode="&#xe6;" horiz-adv-x="1622" d="M106 246q0 172 158.5 265t450.5 93v109q0 80 -51 123t-152 43q-156 0 -322 -88l-36 92q88 51 187.5 77.5t186.5 26.5q102 0 177 -43.5t104 -118.5q113 162 330 162q374 0 374 -450q0 -30 -6 -54h-667q0 -195 82 -295t233 -100q192 0 315 145l21 -116q-130 -140 -346 -140 q-217 0 -330 150q-189 -150 -395 -150q-151 0 -232.5 70t-81.5 199zM233 256q0 -83 55 -127.5t156 -44.5q84 0 160 32t160 97q-49 109 -49 293q-232 0 -357 -65t-125 -185zM846 584h540q0 141 -61.5 217t-181.5 76q-135 0 -208 -79t-89 -214z" />
<glyph unicode="&#xe7;" horiz-adv-x="960" d="M106 483q0 242 114 373t321 131q200 0 309 -115l-23 -120q-107 125 -280 125q-151 0 -233.5 -102.5t-82.5 -291.5q0 -190 82 -292.5t230 -102.5q179 0 305 145l24 -116q-113 -125 -297 -137l-53 -113q24 8 58 8q112 0 112 -104q0 -83 -59.5 -132t-151.5 -49 q-49 0 -123 23l39 78q44 -17 80 -17q47 0 77 22t30 56q0 51 -66 51q-30 0 -59 -10l-39 37l51 152q-174 22 -269.5 151.5t-95.5 349.5z" />
<glyph unicode="&#xe8;" horiz-adv-x="1013" d="M106 481q0 242 113.5 374t312.5 132q373 0 373 -450v-54h-672q0 -195 82 -295t234 -100q189 0 315 145l19 -116q-127 -140 -344 -140q-205 0 -319 131.5t-114 372.5zM240 582h540q0 142 -61.5 218.5t-181.5 76.5q-135 0 -208 -79.5t-89 -215.5zM276 1331l142 45l205 -309 h-101z" />
<glyph unicode="&#xe9;" horiz-adv-x="1013" d="M106 481q0 242 113.5 374t312.5 132q373 0 373 -450v-54h-672q0 -195 82 -295t234 -100q189 0 315 145l19 -116q-127 -140 -344 -140q-205 0 -319 131.5t-114 372.5zM240 582h540q0 142 -61.5 218.5t-181.5 76.5q-135 0 -208 -79.5t-89 -215.5zM391 1067l207 309l135 -43 l-244 -266h-98z" />
<glyph unicode="&#xea;" horiz-adv-x="1013" d="M106 481q0 242 113.5 374t312.5 132q373 0 373 -450v-54h-672q0 -195 82 -295t234 -100q189 0 315 145l19 -116q-127 -140 -344 -140q-205 0 -319 131.5t-114 372.5zM240 582h540q0 142 -61.5 218.5t-181.5 76.5q-135 0 -208 -79.5t-89 -215.5zM240 1067l213 309h106 l213 -309h-106l-160 205l-160 -205h-106z" />
<glyph unicode="&#xeb;" horiz-adv-x="1013" d="M106 481q0 242 113.5 374t312.5 132q373 0 373 -450v-54h-672q0 -195 82 -295t234 -100q189 0 315 145l19 -116q-127 -140 -344 -140q-205 0 -319 131.5t-114 372.5zM236 1186q0 44 24.5 67t69.5 23q92 0 92 -90t-92 -90q-45 0 -69.5 23t-24.5 67zM240 582h540 q0 142 -61.5 218.5t-181.5 76.5q-135 0 -208 -79.5t-89 -215.5zM592 1186q0 44 24.5 67t69.5 23q92 0 92 -90t-92 -90q-45 0 -69.5 23t-24.5 67z" />
<glyph unicode="&#xec;" horiz-adv-x="489" d="M14 1331l142 45l204 -309h-100zM184 0v967h121v-967h-121z" />
<glyph unicode="&#xed;" horiz-adv-x="489" d="M129 1067l207 309l135 -43l-244 -266h-98zM184 0v967h121v-967h-121z" />
<glyph unicode="&#xee;" horiz-adv-x="489" d="M-23 1067l213 309h107l213 -309h-107l-159 205l-160 -205h-107zM184 0v967h121v-967h-121z" />
<glyph unicode="&#xef;" horiz-adv-x="489" d="M-27 1186q0 44 25 67t70 23q92 0 92 -90t-92 -90q-45 0 -70 23t-25 67zM184 0v967h121v-967h-121zM330 1186q0 44 24.5 67t69.5 23q92 0 92 -90t-92 -90q-45 0 -69.5 23t-24.5 67z" />
<glyph unicode="&#xf0;" horiz-adv-x="1067" d="M106 424q0 209 108 322.5t306 113.5q126 0 305 -137l9 4q-38 261 -246 432l-109 -162h-104l141 213q-110 71 -235 109l26 117q163 -50 277 -125l82 125h108l-119 -176q148 -119 225.5 -289.5t77.5 -380.5q0 -294 -105 -453.5t-298 -159.5q-217 0 -333 116t-116 331z M233 424q0 -161 83 -247.5t237 -86.5q135 0 209 134t74 382q-180 144 -304 144q-143 0 -221 -85t-78 -241z" />
<glyph unicode="&#xf1;" horiz-adv-x="1095" d="M184 0v967h97l14 -142q69 77 161.5 119.5t190.5 42.5q130 0 206.5 -73.5t76.5 -200.5v-713h-121v688q0 86 -54 136t-141 50q-80 0 -160 -42t-149 -117v-715h-121zM244 1069q0 93 41 151t106 58q49 0 151 -50t138 -50q29 0 51.5 29.5t30.5 76.5l69 -2q0 -91 -41.5 -150 t-107.5 -59q-48 0 -148 49t-137 49q-30 0 -52 -29t-30 -77z" />
<glyph unicode="&#xf2;" horiz-adv-x="1089" d="M106 483q0 243 114 373.5t325 130.5q209 0 322.5 -130.5t113.5 -373.5t-113.5 -374.5t-322.5 -131.5q-211 0 -325 131.5t-114 374.5zM233 483q0 -190 81 -292.5t231 -102.5q151 0 232 102.5t81 292.5t-81 292t-232 102q-150 0 -231 -102t-81 -292zM313 1331l142 45 l204 -309h-100z" />
<glyph unicode="&#xf3;" horiz-adv-x="1089" d="M106 483q0 243 114 373.5t325 130.5q209 0 322.5 -130.5t113.5 -373.5t-113.5 -374.5t-322.5 -131.5q-211 0 -325 131.5t-114 374.5zM233 483q0 -190 81 -292.5t231 -102.5q151 0 232 102.5t81 292.5t-81 292t-232 102q-150 0 -231 -102t-81 -292zM428 1067l207 309 l135 -43l-244 -266h-98z" />
<glyph unicode="&#xf4;" horiz-adv-x="1089" d="M106 483q0 243 114 373.5t325 130.5q209 0 322.5 -130.5t113.5 -373.5t-113.5 -374.5t-322.5 -131.5q-211 0 -325 131.5t-114 374.5zM233 483q0 -190 81 -292.5t231 -102.5q151 0 232 102.5t81 292.5t-81 292t-232 102q-150 0 -231 -102t-81 -292zM276 1067l213 309h107 l213 -309h-107l-159 205l-160 -205h-107z" />
<glyph unicode="&#xf5;" horiz-adv-x="1089" d="M106 483q0 243 114 373.5t325 130.5q209 0 322.5 -130.5t113.5 -373.5t-113.5 -374.5t-322.5 -131.5q-211 0 -325 131.5t-114 374.5zM233 483q0 -190 81 -292.5t231 -102.5q151 0 232 102.5t81 292.5t-81 292t-232 102q-150 0 -231 -102t-81 -292zM250 1069q0 93 41 151 t106 58q49 0 151 -50t138 -50q29 0 51.5 29.5t30.5 76.5l70 -2q0 -91 -42 -150t-108 -59q-48 0 -148 49t-137 49q-30 0 -51.5 -29t-29.5 -77z" />
<glyph unicode="&#xf6;" horiz-adv-x="1089" d="M106 483q0 243 114 373.5t325 130.5q209 0 322.5 -130.5t113.5 -373.5t-113.5 -374.5t-322.5 -131.5q-211 0 -325 131.5t-114 374.5zM233 483q0 -190 81 -292.5t231 -102.5q151 0 232 102.5t81 292.5t-81 292t-232 102q-150 0 -231 -102t-81 -292zM272 1186q0 44 25 67 t70 23q92 0 92 -90t-92 -90q-45 0 -70 23t-25 67zM629 1186q0 44 24.5 67t69.5 23q92 0 92 -90t-92 -90q-45 0 -69.5 23t-24.5 67z" />
<glyph unicode="&#xf7;" d="M121 532v103h923v-103h-923zM498 199q0 40 24 65t62 25q39 0 62.5 -25t23.5 -65t-23 -64t-63 -24q-38 0 -62 24t-24 64zM498 969q0 40 24 65t62 25q39 0 62.5 -25t23.5 -65t-23 -64t-63 -24q-38 0 -62 24t-24 64z" />
<glyph unicode="&#xf8;" horiz-adv-x="1089" d="M106 0l101 127q-101 132 -101 356q0 243 114 373.5t325 130.5q162 0 270 -82l49 62h117l-100 -127q100 -127 100 -357q0 -243 -113.5 -374.5t-322.5 -131.5q-168 0 -275 84l-49 -61h-115zM233 483q0 -155 54 -252l454 580q-75 66 -196 66q-150 0 -231 -102t-81 -292z M346 158q76 -70 199 -70q151 0 232 102.5t81 292.5q0 160 -57 256z" />
<glyph unicode="&#xf9;" horiz-adv-x="1105" d="M174 254v713h121v-688q0 -87 54.5 -138t142.5 -51q78 0 158 43t149 119v715h121v-967h-97l-14 141q-70 -77 -162 -120.5t-190 -43.5q-130 0 -206.5 74.5t-76.5 202.5zM322 1331l141 45l205 -309h-101z" />
<glyph unicode="&#xfa;" horiz-adv-x="1105" d="M174 254v713h121v-688q0 -87 54.5 -138t142.5 -51q78 0 158 43t149 119v715h121v-967h-97l-14 141q-70 -77 -162 -120.5t-190 -43.5q-130 0 -206.5 74.5t-76.5 202.5zM436 1067l207 309l135 -43l-243 -266h-99z" />
<glyph unicode="&#xfb;" horiz-adv-x="1105" d="M174 254v713h121v-688q0 -87 54.5 -138t142.5 -51q78 0 158 43t149 119v715h121v-967h-97l-14 141q-70 -77 -162 -120.5t-190 -43.5q-130 0 -206.5 74.5t-76.5 202.5zM285 1067l213 309h106l213 -309h-106l-160 205l-160 -205h-106z" />
<glyph unicode="&#xfc;" horiz-adv-x="1105" d="M174 254v713h121v-688q0 -87 54.5 -138t142.5 -51q78 0 158 43t149 119v715h121v-967h-97l-14 141q-70 -77 -162 -120.5t-190 -43.5q-130 0 -206.5 74.5t-76.5 202.5zM281 1186q0 44 24.5 67t69.5 23q92 0 92 -90t-92 -90q-45 0 -69.5 23t-24.5 67zM637 1186 q0 44 24.5 67t69.5 23q92 0 92 -90t-92 -90q-45 0 -69.5 23t-24.5 67z" />
<glyph unicode="&#xfd;" horiz-adv-x="948" d="M39 967h135l307 -850l301 850h127l-379 -1028q-19 -52 -30 -81.5t-30 -72t-35 -66.5t-40 -52t-49 -42.5t-58.5 -24.5t-72.5 -10q-28 0 -70 11l-18 108q33 -8 70 -8q49 0 79.5 18.5t62.5 73.5t73 166zM358 1067l207 309l135 -43l-243 -266h-99z" />
<glyph unicode="&#xfe;" horiz-adv-x="1124" d="M184 -410v1823h121v-557q126 131 309 131q184 0 293 -138t109 -370q0 -234 -108 -368t-296 -134q-94 0 -173.5 35t-133.5 99v-521h-121zM305 242q51 -74 125.5 -114t161.5 -40q139 0 218 103t79 290q0 186 -78 291t-215 105q-87 0 -163.5 -40.5t-127.5 -113.5v-481z" />
<glyph unicode="&#xff;" horiz-adv-x="948" d="M39 967h135l307 -850l301 850h127l-379 -1028q-19 -52 -30 -81.5t-30 -72t-35 -66.5t-40 -52t-49 -42.5t-58.5 -24.5t-72.5 -10q-28 0 -70 11l-18 108q33 -8 70 -8q49 0 79.5 18.5t62.5 73.5t73 166zM203 1186q0 44 24.5 67t69.5 23q92 0 92 -90t-92 -90q-45 0 -69.5 23 t-24.5 67zM559 1186q0 44 24.5 67t69.5 23q92 0 92 -90t-92 -90q-45 0 -69.5 23t-24.5 67z" />
<glyph unicode="&#x152;" horiz-adv-x="2295" d="M156 713q0 346 164.5 534.5t465.5 188.5q379 0 537 -267v244h774v-117h-643v-522h561v-119h-561v-536h662v-119h-793v248q-162 -271 -537 -271q-301 0 -465.5 192t-164.5 544zM297 713q0 -292 129.5 -451.5t368.5 -159.5q252 0 389 159.5t137 451.5q0 287 -137 442.5 t-389 155.5q-239 0 -368.5 -155.5t-129.5 -442.5z" />
<glyph unicode="&#x153;" horiz-adv-x="1763" d="M106 483q0 243 114 373.5t325 130.5q267 0 375 -217q51 106 143.5 161.5t218.5 55.5q373 0 373 -450q0 -38 -2 -54h-672q0 -195 82.5 -295t234.5 -100q191 0 314 145l20 -116q-127 -140 -344 -140q-262 0 -370 218q-51 -106 -146.5 -162t-226.5 -56q-211 0 -325 131.5 t-114 374.5zM233 483q0 -190 81 -292.5t231 -102.5q151 0 232 102.5t81 292.5t-81 292t-232 102q-150 0 -231 -102t-81 -292zM989 584h541q0 141 -62 217t-182 76q-135 0 -208 -79t-89 -214z" />
<glyph unicode="&#x178;" horiz-adv-x="1239" d="M49 1413h156l411 -686h11l415 686h148l-502 -819v-594h-135v594zM348 1632q0 44 24.5 67t69.5 23t69 -23t24 -67t-24 -67t-69 -23t-69.5 23t-24.5 67zM705 1632q0 44 24.5 67t69.5 23q92 0 92 -90t-92 -90q-45 0 -69.5 23t-24.5 67z" />
<glyph unicode="&#x2c6;" horiz-adv-x="1228" d="M205 1067l213 309h106l213 -309h-106l-160 205l-160 -205h-106z" />
<glyph unicode="&#x2dc;" horiz-adv-x="1228" d="M176 1069q0 93 41.5 151t106.5 58q49 0 150.5 -50t137.5 -50q29 0 51.5 29.5t30.5 76.5l70 -2q0 -91 -42 -150t-108 -59q-48 0 -147.5 49t-136.5 49q-30 0 -52 -29t-30 -77z" />
<glyph unicode="&#x2000;" horiz-adv-x="931" />
<glyph unicode="&#x2001;" horiz-adv-x="1862" />
<glyph unicode="&#x2002;" horiz-adv-x="931" />
<glyph unicode="&#x2003;" horiz-adv-x="1862" />
<glyph unicode="&#x2004;" horiz-adv-x="620" />
<glyph unicode="&#x2005;" horiz-adv-x="465" />
<glyph unicode="&#x2006;" horiz-adv-x="310" />
<glyph unicode="&#x2007;" horiz-adv-x="310" />
<glyph unicode="&#x2008;" horiz-adv-x="232" />
<glyph unicode="&#x2009;" horiz-adv-x="372" />
<glyph unicode="&#x200a;" horiz-adv-x="103" />
<glyph unicode="&#x2010;" horiz-adv-x="755" d="M127 553v117h502v-117h-502z" />
<glyph unicode="&#x2011;" horiz-adv-x="755" d="M127 553v117h502v-117h-502z" />
<glyph unicode="&#x2012;" horiz-adv-x="755" d="M127 553v117h502v-117h-502z" />
<glyph unicode="&#x2013;" horiz-adv-x="940" d="M127 553v117h686v-117h-686z" />
<glyph unicode="&#x2014;" horiz-adv-x="1626" d="M127 553v117h1372v-117h-1372z" />
<glyph unicode="&#x2018;" horiz-adv-x="464" d="M113 938l139 475h102l-73 -475h-168z" />
<glyph unicode="&#x2019;" horiz-adv-x="464" d="M109 938l73 475h168l-137 -475h-104z" />
<glyph unicode="&#x201a;" horiz-adv-x="1228" d="M78 -238l92 420h168l-188 -440z" />
<glyph unicode="&#x201c;" horiz-adv-x="782" d="M113 938l139 475h102l-73 -475h-168zM430 938l139 475h103l-74 -475h-168z" />
<glyph unicode="&#x201d;" horiz-adv-x="782" d="M109 938l73 475h168l-137 -475h-104zM426 938l74 475h168l-138 -475h-104z" />
<glyph unicode="&#x201e;" horiz-adv-x="1228" d="M78 -238l92 420h168l-188 -440z" />
<glyph unicode="&#x2022;" horiz-adv-x="870" d="M209 717q0 120 53 172.5t174 52.5q120 0 173 -52.5t53 -172.5q0 -121 -53 -174.5t-173 -53.5q-121 0 -174 53t-53 175z" />
<glyph unicode="&#x2026;" horiz-adv-x="1400" d="M135 84q0 104 105 104q104 0 104 -104q0 -51 -26.5 -79t-77.5 -28t-78 28t-27 79zM596 84q0 104 104 104q105 0 105 -104q0 -51 -27 -79t-78 -28t-77.5 28t-26.5 79zM1055 84q0 104 104 104q105 0 105 -104q0 -51 -27 -79t-78 -28t-77.5 28t-26.5 79z" />
<glyph unicode="&#x202f;" horiz-adv-x="372" />
<glyph unicode="&#x2039;" horiz-adv-x="632" d="M86 483l332 484h106l-288 -484l288 -483h-106z" />
<glyph unicode="&#x203a;" horiz-adv-x="632" d="M106 0l291 483l-291 484h107l332 -484l-332 -483h-107z" />
<glyph unicode="&#x205f;" horiz-adv-x="465" />
<glyph unicode="&#x20ac;" horiz-adv-x="1345" d="M-2 510l20 94h142q-4 66 -4 105q0 34 4 96h-107l21 94h96q41 260 199.5 398.5t414.5 138.5q258 0 426 -131l-34 -109q-184 115 -390 115q-192 0 -313.5 -106t-161.5 -306h789l-31 -94h-770q-4 -66 -4 -100q0 -35 4 -101h723l-29 -94h-682q39 -198 162.5 -303t323.5 -105 q211 0 397 125l53 -98q-192 -152 -465 -152q-253 0 -410 138t-200 395h-174z" />
<glyph unicode="&#x2122;" horiz-adv-x="1507" d="M78 1335v78h534v-78h-221v-628h-92v628h-221zM715 707l53 706h109l221 -590h10l221 590h105l55 -706h-88l-41 546h-10l-209 -546h-84l-207 546h-10l-41 -546h-84z" />
<glyph unicode="&#x25fc;" horiz-adv-x="962" d="M0 0v963h963v-963h-963z" />
</font>
</defs>
</svg>
