<?xml version="1.0" standalone="no"?>
<!DOCTYPE svg PUBLIC "-//W3C//DTD SVG 1.1//EN" "http://www.w3.org/Graphics/SVG/1.1/DTD/svg11.dtd" >
<svg xmlns="http://www.w3.org/2000/svg" xmlns:xlink="http://www.w3.org/1999/xlink" version="1.1">
<metadata></metadata>
<defs>
<font id="rns_sanzsemibold" horiz-adv-x="1228" >
<font-face units-per-em="2048" ascent="1638" descent="-410" />
<missing-glyph horiz-adv-x="458" />
<glyph unicode="&#xfb01;" horiz-adv-x="1171" d="M57 807l43 168h107v278q0 128 70.5 197.5t199.5 69.5q79 0 137 -33l19 -160q-58 27 -125 27q-100 0 -100 -109v-270h612v-975h-201v807h-411v-807h-201v807h-150zM799 1212q0 119 123 119q120 0 120 -119q0 -116 -120 -116q-123 0 -123 116z" />
<glyph unicode="&#xfb02;" horiz-adv-x="1171" d="M57 807l43 168h107v278q0 128 70.5 197.5t199.5 69.5q79 0 137 -33l19 -160q-58 27 -125 27q-100 0 -100 -109v-270h411v520h201v-1495h-201v807h-411v-807h-201v807h-150z" />
<glyph horiz-adv-x="0" />
<glyph horiz-adv-x="682" />
<glyph unicode=" "  horiz-adv-x="458" />
<glyph unicode="&#x09;" horiz-adv-x="458" />
<glyph unicode="&#xa0;" horiz-adv-x="458" />
<glyph unicode="!" horiz-adv-x="587" d="M152 119q0 141 143 141q69 0 105 -36t36 -105q0 -70 -36 -107t-105 -37q-143 0 -143 144zM164 1413h258l-60 -991h-137z" />
<glyph unicode="&#x22;" horiz-adv-x="921" d="M125 1384h254l-51 -491h-152zM541 1384h256l-54 -491h-151z" />
<glyph unicode="#" horiz-adv-x="1335" d="M88 336v172h248l57 360h-254l-16 172h297l59 373h133l-59 -373h338l59 373h133l-59 -373h223v-172h-250l-57 -360h258l14 -172h-301l-53 -336h-133l53 336h-338l-53 -336h-133l53 336h-219zM469 508h338l57 360h-338z" />
<glyph unicode="$" horiz-adv-x="1165" d="M109 70l59 204q172 -98 375 -98q119 0 192.5 51t73.5 144q0 39 -15 72t-35.5 56.5t-59 48t-69 40t-80.5 39.5q-9 4 -13 6q-52 25 -80.5 39t-77 41.5t-76 49t-63 56t-54 69t-32 80t-13.5 95.5q0 148 96.5 244t256.5 123l-15 167h228l-15 -163q89 -8 172.5 -29t134.5 -51 l-55 -199q-68 36 -160.5 59t-167.5 23q-106 0 -167.5 -45.5t-61.5 -128.5q0 -27 8.5 -51.5t19.5 -43t35.5 -39.5t41 -33.5t53 -33t54 -29.5t60.5 -30q42 -19 63 -29t60.5 -30t61.5 -34.5t55 -38t52 -44t41.5 -50t34.5 -59.5t20 -67t8 -78q0 -150 -97 -252t-268 -133l17 -183 h-228l15 172q-104 6 -208.5 31t-176.5 62z" />
<glyph unicode="%" horiz-adv-x="1763" d="M109 1049q0 189 82 289t239 100t238.5 -99t81.5 -288t-82 -289t-238 -100t-238.5 99.5t-82.5 287.5zM258 1049q0 -127 44.5 -195t127.5 -68q82 0 125 68.5t43 196.5t-43.5 196t-126.5 68t-126.5 -68.5t-43.5 -197.5zM403 0l816 1413h143l-815 -1413h-144zM1014 362 q0 189 82.5 289.5t238.5 100.5q155 0 237.5 -99.5t82.5 -287.5q0 -189 -82.5 -289.5t-237.5 -100.5q-157 0 -239 99t-82 288zM1165 362q0 -128 44.5 -196t127.5 -68q82 0 125 69t43 198q0 128 -44 195t-128 67q-82 0 -125 -68.5t-43 -196.5z" />
<glyph unicode="&#x26;" horiz-adv-x="1374" d="M82 354q0 275 311 437q-135 156 -135 323q0 151 99.5 237.5t283.5 86.5q189 0 354 -92l-34 -187q-173 98 -302 98q-87 0 -135.5 -42t-48.5 -115q0 -115 119 -240l356 -381q66 147 94 359h185q-43 -312 -154 -504l303 -334h-260l-168 176q-90 -100 -195 -150.5t-241 -50.5 q-201 0 -316.5 100t-115.5 279zM295 379q0 -108 69 -172t191 -64q176 0 289 156l-340 365q-209 -102 -209 -285z" />
<glyph unicode="'" horiz-adv-x="501" d="M125 1384h254l-51 -491h-152z" />
<glyph unicode="(" horiz-adv-x="776" d="M125 639q0 269 135.5 492t372.5 344l86 -113q-172 -131 -265.5 -319t-93.5 -404q0 -219 94.5 -416.5t264.5 -326.5l-86 -113q-238 121 -373 349.5t-135 506.5z" />
<glyph unicode=")" horiz-adv-x="776" d="M57 -104q170 129 264.5 326.5t94.5 416.5q0 216 -93.5 404t-265.5 319l86 113q237 -121 372.5 -344t135.5 -492q0 -278 -135 -506.5t-373 -349.5z" />
<glyph unicode="*" horiz-adv-x="786" d="M70 1178l36 118l234 -84l-8 246h125l-11 -246l232 84l39 -118l-234 -70l152 -193l-100 -73l-140 202l-139 -204l-100 71l149 197z" />
<glyph unicode="+" horiz-adv-x="1167" d="M119 500v170h377v358h176v-358h377v-170h-377v-381h-176v381h-377z" />
<glyph unicode="," horiz-adv-x="481" d="M68 -231l86 485h247l-208 -518z" />
<glyph unicode="-" horiz-adv-x="745" d="M109 516v199h530v-199h-530z" />
<glyph unicode="." horiz-adv-x="512" d="M115 119q0 141 143 141q69 0 105 -36t36 -105q0 -70 -36 -107t-105 -37q-143 0 -143 144z" />
<glyph unicode="/" horiz-adv-x="1087" d="M-72 -264l934 1677h203l-936 -1677h-201z" />
<glyph unicode="0" horiz-adv-x="1294" d="M111 696q0 351 136.5 536t397.5 185q262 0 399.5 -185t137.5 -536t-137.5 -536t-399.5 -185q-261 0 -397.5 185t-136.5 536zM332 696q0 -263 79 -397.5t234 -134.5q157 0 237.5 135t80.5 397q0 263 -80.5 398t-237.5 135q-155 0 -234 -135t-79 -398z" />
<glyph unicode="1" horiz-adv-x="813" d="M55 1235l338 162h197v-1397h-219v1178l-291 -123z" />
<glyph unicode="2" horiz-adv-x="1120" d="M109 158q277 232 456.5 471t179.5 405q0 93 -59 144t-164 51q-166 0 -356 -142l-37 183q198 147 426 147q200 0 308 -94.5t108 -267.5q0 -202 -149 -424t-408 -447h602v-184h-866z" />
<glyph unicode="3" horiz-adv-x="1105" d="M82 74l29 192q181 -102 356 -102q149 0 227 59t78 170q0 118 -92.5 182t-259.5 64h-76l-16 164h98q152 0 234.5 60.5t82.5 168.5q0 94 -63 145.5t-180 51.5q-191 0 -365 -117l-26 182q180 123 421 123q215 0 328 -91.5t113 -264.5q0 -115 -65 -202t-189 -132 q136 -38 208 -128t72 -222q0 -195 -128.5 -298.5t-372.5 -103.5q-211 0 -414 99z" />
<glyph unicode="4" horiz-adv-x="1234" d="M57 303v150l641 944h269v-930h200v-164h-200v-303h-222v303h-688zM270 467h478v700z" />
<glyph unicode="5" horiz-adv-x="1118" d="M94 61l29 193q180 -86 364 -86q154 0 235 69t81 201q0 119 -69.5 182.5t-203.5 63.5q-129 0 -243 -51l-140 24l54 740h755v-185h-577l-27 -381q105 31 219 31q217 0 331 -110.5t114 -315.5q0 -223 -132.5 -339.5t-381.5 -116.5q-202 0 -408 81z" />
<glyph unicode="6" horiz-adv-x="1163" d="M104 563q0 328 201.5 554t546.5 300l37 -194q-225 -49 -370.5 -172.5t-192.5 -305.5l10 -8q162 113 342 113q194 0 299.5 -108.5t105.5 -307.5q0 -219 -125 -339t-350 -120q-242 0 -373 153.5t-131 434.5zM313 520q0 -178 74.5 -273t214.5 -95q129 0 197.5 69.5 t68.5 200.5q0 125 -65.5 191.5t-188.5 66.5q-190 0 -301 -160z" />
<glyph unicode="7" horiz-adv-x="1089" d="M94 1212v185h905v-183l-536 -1214h-238l543 1212h-674z" />
<glyph unicode="8" horiz-adv-x="1177" d="M88 352q0 114 74 215t209 166q-217 118 -217 326q0 170 115.5 264t328.5 94q206 0 319 -90.5t113 -253.5q0 -100 -55.5 -186.5t-159.5 -151.5q134 -56 205.5 -151t71.5 -219q0 -185 -131 -287.5t-367 -102.5q-238 0 -372 100t-134 277zM301 371q2 -108 78.5 -168 t214.5 -60q129 0 200.5 58t71.5 164q0 104 -82.5 170t-255.5 118q-109 -48 -168 -120t-59 -162zM360 1053q0 -97 69.5 -157.5t211.5 -98.5q87 41 136.5 112t49.5 154q0 90 -59.5 140t-171.5 50q-114 0 -175 -52.5t-61 -147.5z" />
<glyph unicode="9" horiz-adv-x="1167" d="M88 958q0 224 125 341.5t356 117.5q243 0 370.5 -154.5t127.5 -439.5q0 -167 -55 -310.5t-155.5 -250t-240 -180t-309.5 -107.5l-39 195q230 47 379 165.5t199 293.5l-10 8q-162 -113 -342 -113q-195 0 -300.5 113.5t-105.5 320.5zM305 965q0 -131 65.5 -201t188.5 -70 q187 0 301 160q0 187 -71 287t-205 100q-135 0 -207 -71t-72 -205z" />
<glyph unicode=":" horiz-adv-x="532" d="M125 119q0 141 143 141q69 0 105.5 -36t36.5 -105q0 -70 -36.5 -107t-105.5 -37q-143 0 -143 144zM125 858q0 141 143 141q69 0 105.5 -36t36.5 -105q0 -70 -36.5 -106.5t-105.5 -36.5q-143 0 -143 143z" />
<glyph unicode=";" horiz-adv-x="532" d="M63 -231l87 485h247l-209 -518zM125 858q0 141 143 141q69 0 105.5 -36t36.5 -105q0 -70 -36.5 -106.5t-105.5 -36.5q-143 0 -143 143z" />
<glyph unicode="&#x3c;" horiz-adv-x="1167" d="M119 522v154l930 477v-213l-727 -342l727 -344v-211z" />
<glyph unicode="=" horiz-adv-x="1167" d="M119 299v170h930v-170h-930zM119 713v170h930v-170h-930z" />
<glyph unicode="&#x3e;" horiz-adv-x="1167" d="M119 43v213l727 342l-727 346v209l930 -477v-154z" />
<glyph unicode="?" horiz-adv-x="1017" d="M78 1305q196 133 430 133q191 0 305.5 -98t114.5 -267q0 -152 -101 -253.5t-305 -180.5l-10 -221h-135l-15 319q178 72 262.5 145t84.5 175q0 88 -60 138t-170 50q-92 0 -191.5 -34.5t-181.5 -96.5zM305 119q0 69 37 105t107 36q69 0 105 -36t36 -105q0 -70 -36 -107 t-105 -37q-71 0 -107.5 36.5t-36.5 107.5z" />
<glyph unicode="@" horiz-adv-x="1761" d="M102 434q0 409 232.5 647t648.5 238q331 0 504.5 -165t173.5 -490q0 -255 -101.5 -396t-287.5 -141q-105 0 -170 47t-84 135q-80 -93 -151.5 -136.5t-145.5 -43.5q-97 0 -151 74.5t-54 222.5q0 234 124.5 375t338.5 141q135 0 272 -61l-65 -435q-8 -19 -8 -65 q0 -143 135 -143q121 0 185.5 109.5t64.5 305.5q0 582 -584 582q-245 0 -421.5 -99t-266.5 -278t-90 -422q0 -314 156 -466t466 -152q249 0 410 82l31 -68q-178 -96 -455 -96q-346 0 -526.5 172.5t-180.5 525.5zM688 453q0 -183 105 -183t227 174l53 342q-51 23 -110 23 q-129 0 -202 -97t-73 -259z" />
<glyph unicode="A" horiz-adv-x="1429" d="M43 0l516 1413h313l517 -1413h-265l-120 350h-592l-121 -350h-248zM475 530h467l-225 660h-15z" />
<glyph unicode="B" horiz-adv-x="1316" d="M219 0v1413h514q196 0 303 -93t107 -263q0 -115 -60.5 -199.5t-171.5 -124.5q137 -31 212 -122.5t75 -229.5q0 -183 -124 -282t-353 -99h-502zM457 199h248q121 0 186 54.5t65 156.5q0 110 -72 169.5t-204 59.5h-223v-440zM457 786h223q117 0 179.5 57t62.5 163 q0 101 -56 154.5t-161 53.5h-248v-428z" />
<glyph unicode="C" horiz-adv-x="1312" d="M135 705q0 352 172 542.5t486 190.5q126 0 234 -31.5t181 -87.5l-84 -178q-154 88 -323 88q-204 0 -313 -135.5t-109 -391.5q0 -254 107 -386t321 -132q182 0 344 103l82 -181q-186 -131 -442 -131q-313 0 -484.5 190.5t-171.5 539.5z" />
<glyph unicode="D" horiz-adv-x="1527" d="M219 0v1413h498q325 0 500.5 -183t175.5 -521q0 -340 -175.5 -524.5t-500.5 -184.5h-498zM457 199h239q217 0 335 132t118 378q0 243 -118 374t-335 131h-239v-1015z" />
<glyph unicode="E" horiz-adv-x="1232" d="M219 0v1413h838v-199h-600v-403h520v-197h-520v-415h616v-199h-854z" />
<glyph unicode="F" horiz-adv-x="1179" d="M219 0v1413h821v-199h-583v-434h522v-196h-522v-584h-238z" />
<glyph unicode="G" horiz-adv-x="1529" d="M135 705q0 352 172 542.5t486 190.5q125 0 233 -32t182 -87l-69 -178q-161 88 -338 88q-204 0 -313 -135.5t-109 -391.5q0 -253 109 -385.5t319 -132.5q82 0 163 21.5t138 58.5v500h223v-614q-236 -175 -540 -175q-313 0 -484.5 190.5t-171.5 539.5z" />
<glyph unicode="H" horiz-adv-x="1568" d="M219 0v1413h238v-600h653v600h238v-1413h-238v614h-653v-614h-238z" />
<glyph unicode="I" horiz-adv-x="677" d="M219 0v1413h238v-1413h-238z" />
<glyph unicode="J" horiz-adv-x="835" d="M35 203q74 -19 151 -19q109 0 159 61t50 187v981h238v-981q0 -223 -111.5 -340t-331.5 -117q-56 0 -137 15z" />
<glyph unicode="K" horiz-adv-x="1388" d="M219 0v1413h238v-618h14l522 618h285l-571 -674l616 -739h-289l-563 662h-14v-662h-238z" />
<glyph unicode="L" horiz-adv-x="1071" d="M219 0v1413h238v-1214h549v-199h-787z" />
<glyph unicode="M" horiz-adv-x="1867" d="M188 0l45 1413h297l400 -1001h14l408 1001h290l39 -1413h-235l-27 1038h-16l-383 -927h-186l-379 927h-17l-30 -1038h-220z" />
<glyph unicode="N" horiz-adv-x="1568" d="M219 0v1413h262l615 -1016h14v1016h238v-1413h-244l-633 1038h-14v-1038h-238z" />
<glyph unicode="O" horiz-adv-x="1611" d="M135 707q0 350 172.5 540.5t489.5 190.5q327 0 504.5 -190.5t177.5 -540.5t-177.5 -541t-504.5 -191q-317 0 -489.5 191t-172.5 541zM379 707q0 -252 108.5 -387.5t309.5 -135.5q211 0 323.5 135.5t112.5 387.5q0 253 -112.5 387.5t-323.5 134.5q-201 0 -309.5 -134.5 t-108.5 -387.5z" />
<glyph unicode="P" horiz-adv-x="1288" d="M219 0v1413h469q235 0 366.5 -120.5t131.5 -334.5q0 -216 -131.5 -336t-366.5 -120h-231v-502h-238zM457 700h227q120 0 188 68.5t68 189.5q0 120 -68 188t-188 68h-227v-514z" />
<glyph unicode="Q" horiz-adv-x="1611" d="M135 707q0 350 172.5 540.5t489.5 190.5q327 0 504.5 -190.5t177.5 -540.5q0 -256 -96 -428.5t-279 -247.5l276 -72l-39 -184l-469 202q-25 -2 -75 -2q-317 0 -489.5 191t-172.5 541zM379 707q0 -251 108.5 -387t309.5 -136q209 0 322.5 136t113.5 387t-113.5 386.5 t-322.5 135.5q-201 0 -309.5 -135.5t-108.5 -386.5z" />
<glyph unicode="R" horiz-adv-x="1325" d="M219 0v1413h469q235 0 366.5 -120.5t131.5 -334.5q0 -156 -72 -263.5t-205 -155.5l348 -539h-260l-297 504h-12h-231v-504h-238zM457 702h227q120 0 188 67.5t68 188.5t-68 188.5t-188 67.5h-227v-512z" />
<glyph unicode="S" horiz-adv-x="1165" d="M109 70l59 204q172 -98 375 -98q119 0 192.5 51t73.5 144q0 39 -15 72t-35.5 56.5t-59 48t-69 40t-80.5 39.5q-9 4 -13 6q-52 25 -80.5 39t-77 41.5t-76 49t-63 56t-54 69t-32 80t-13.5 95.5q0 175 130.5 275t336.5 100q104 0 215 -23.5t176 -60.5l-55 -199 q-68 36 -160.5 59t-167.5 23q-106 0 -167.5 -45.5t-61.5 -128.5q0 -27 8.5 -51.5t19.5 -43t35.5 -39.5t41 -33.5t53 -33t54 -29.5t60.5 -30q42 -19 63 -29t60.5 -30t61.5 -34.5t55 -38t52 -44t41.5 -50t34.5 -59.5t20 -67t8 -78q0 -180 -136 -289t-366 -109q-113 0 -237 26 t-207 69z" />
<glyph unicode="T" horiz-adv-x="1202" d="M61 1214v199h1080v-199h-422v-1214h-238v1214h-420z" />
<glyph unicode="U" horiz-adv-x="1523" d="M203 549v864h237v-872q0 -172 83.5 -264.5t238.5 -92.5q154 0 236.5 92.5t82.5 264.5v872h238v-864q0 -275 -145 -424.5t-412 -149.5q-268 0 -413.5 149.5t-145.5 424.5z" />
<glyph unicode="V" horiz-adv-x="1380" d="M43 1413h250l395 -1153h14l394 1153h241l-508 -1413h-290z" />
<glyph unicode="W" horiz-adv-x="2039" d="M43 1413h260l287 -1100h14l318 1100h254l301 -1100h14l281 1100h227l-393 -1413h-269l-301 1085h-14l-320 -1085h-266z" />
<glyph unicode="X" horiz-adv-x="1392" d="M66 0l481 731l-451 682h275l321 -502h13l323 502h240l-439 -663l500 -750h-270l-371 569h-12l-365 -569h-245z" />
<glyph unicode="Y" horiz-adv-x="1335" d="M43 1413h268l355 -629h14l358 629h254l-506 -856v-557h-237v557z" />
<glyph unicode="Z" horiz-adv-x="1273" d="M127 0v195l747 1019h-714v199h989v-186l-752 -1028h772v-199h-1042z" />
<glyph unicode="[" horiz-adv-x="833" d="M180 -217v1630h549v-137h-350v-1356h350v-137h-549z" />
<glyph unicode="\" horiz-adv-x="1087" d="M23 1413h200l936 -1677h-203z" />
<glyph unicode="]" horiz-adv-x="833" d="M104 -80h351v1356h-351v137h549v-1630h-549v137z" />
<glyph unicode="^" horiz-adv-x="968" d="M45 707l356 706h166l357 -706h-191l-248 526l-249 -526h-191z" />
<glyph unicode="_" horiz-adv-x="964" d="M6 -104h952v-111h-952v111z" />
<glyph unicode="`" d="M63 1331l259 53l174 -311h-158z" />
<glyph unicode="a" horiz-adv-x="1013" d="M88 250q0 176 153 270t437 94v86q0 66 -45 102t-135 36q-149 0 -320 -84l-45 141q88 50 196 77t203 27q163 0 255 -83.5t92 -231.5v-684h-168l-19 119q-65 -67 -152 -105.5t-175 -38.5q-127 0 -202 75.5t-75 199.5zM295 279q0 -66 39.5 -107t109.5 -41q58 0 121 28.5 t113 78.5v254q-185 0 -284 -55t-99 -158z" />
<glyph unicode="b" horiz-adv-x="1126" d="M152 0v1495h200v-612q110 116 287 116q188 0 291.5 -136t103.5 -376q0 -242 -104.5 -377t-288.5 -135q-198 0 -305 154l-23 -129h-161zM352 258q88 -111 228 -111q118 0 182.5 88.5t64.5 251.5q0 162 -64 252t-181 90q-67 0 -128 -29.5t-102 -82.5v-459z" />
<glyph unicode="c" horiz-adv-x="950" d="M92 487q0 246 119 379t338 133q209 0 315 -106l-49 -168q-96 104 -246 104q-132 0 -203 -89t-71 -253q0 -165 69.5 -252.5t198.5 -87.5q150 0 271 121l47 -168q-122 -125 -334 -125q-217 0 -336 133.5t-119 378.5z" />
<glyph unicode="d" horiz-adv-x="1126" d="M92 485q0 241 103.5 377.5t291.5 136.5q177 0 287 -116v612h201v-1495h-164l-23 129q-107 -154 -305 -154q-185 0 -288 135t-103 375zM299 489q0 -167 67 -254.5t183 -87.5q65 0 124.5 29t100.5 82v459q-41 52 -102 82t-127 30q-116 0 -181 -90t-65 -250z" />
<glyph unicode="e" horiz-adv-x="1036" d="M92 487q0 245 119 378.5t332 133.5q200 0 300.5 -118.5t100.5 -343.5q0 -55 -4 -82h-641q0 -152 74 -230t209 -78q184 0 315 115l23 -164q-135 -123 -373 -123q-217 0 -336 133.5t-119 378.5zM301 582h436q0 119 -51 183t-149 64q-108 0 -167.5 -66.5t-68.5 -180.5z" />
<glyph unicode="f" horiz-adv-x="663" d="M57 807l43 168h107v278q0 128 70.5 197.5t199.5 69.5q78 0 139 -33l17 -160q-58 27 -125 27q-100 0 -100 -109v-270h192v-168h-192v-807h-201v807h-150z" />
<glyph unicode="g" horiz-adv-x="1032" d="M29 -137q0 189 221 260q-78 28 -78 115q0 44 30 78t83 51q-174 85 -174 295q0 160 103 248.5t288 88.5q176 0 278 -79l166 81l39 -143l-127 -37q35 -68 35 -159q0 -160 -102.5 -249t-288.5 -89q-37 0 -53 2l-5 -2q-46 0 -71 -14.5t-25 -39.5q0 -29 47 -43.5t168 -23.5 q414 -31 414 -297q0 -156 -124 -236t-366 -80q-222 0 -340 70t-118 203zM201 -94q0 -77 83.5 -119.5t231.5 -42.5q125 0 194.5 37t69.5 104q0 19 -5 34.5t-17.5 28t-25.5 22.5t-37 18.5t-43.5 14.5t-54 13.5t-59.5 12t-68.5 12.5t-72.5 14q-93 -9 -144.5 -49t-51.5 -100z M301 664q0 -95 54 -149t149 -54t149 54t54 149q0 96 -52 149t-151 53t-151 -53t-52 -149z" />
<glyph unicode="h" horiz-adv-x="1087" d="M152 0v1495h200v-637q144 141 322 141q127 0 202.5 -72t75.5 -196v-731h-200v664q0 71 -44.5 114t-115.5 43q-60 0 -123 -34.5t-117 -94.5v-692h-200z" />
<glyph unicode="i" horiz-adv-x="503" d="M131 1212q0 119 123 119q59 0 90 -30.5t31 -88.5q0 -116 -121 -116q-123 0 -123 116zM152 0v975h200v-975h-200z" />
<glyph unicode="j" horiz-adv-x="514" d="M-20 -229q30 -9 75 -9q51 0 78 28t27 81v1104h200v-1104q0 -137 -71 -209t-207 -72q-37 0 -74 11zM139 1212q0 119 123 119q59 0 90 -30.5t31 -88.5q0 -116 -121 -116q-123 0 -123 116z" />
<glyph unicode="k" horiz-adv-x="999" d="M152 0v1495h200v-899h15l340 379h243l-395 -440l418 -535h-240l-366 469h-15v-469h-200z" />
<glyph unicode="l" horiz-adv-x="503" d="M152 0v1495h200v-1495h-200z" />
<glyph unicode="m" horiz-adv-x="1687" d="M152 0v975h161l19 -139q150 163 342 163q99 0 168.5 -45t95.5 -125q54 78 145.5 124t190.5 46q128 0 203 -72t75 -196v-731h-200v664q0 71 -44 114t-114 43q-60 0 -123.5 -34.5t-118.5 -94.5v-692h-200v664q0 71 -44 114t-114 43q-60 0 -124.5 -34.5t-117.5 -94.5v-692 h-200z" />
<glyph unicode="n" horiz-adv-x="1087" d="M152 0v975h161l19 -139q150 163 342 163q128 0 203 -72t75 -196v-731h-200v664q0 71 -44 114t-114 43q-60 0 -124.5 -34.5t-117.5 -94.5v-692h-200z" />
<glyph unicode="o" horiz-adv-x="1101" d="M92 487q0 246 119.5 379t339.5 133q221 0 341 -133t120 -379t-120 -379t-341 -133q-220 0 -339.5 133t-119.5 379zM295 487q0 -166 66 -253t192 -87q125 0 190.5 87t65.5 253t-66 254t-190 88q-126 0 -192 -88t-66 -254z" />
<glyph unicode="p" horiz-adv-x="1126" d="M152 -410v1385h161l21 -113q115 137 305 137q177 0 287 -137.5t110 -374.5q0 -242 -104.5 -377t-288.5 -135q-185 0 -291 136v-521h-200zM352 260q84 -113 228 -113q118 0 183.5 88.5t65.5 251.5q0 161 -64.5 251.5t-180.5 90.5q-68 0 -129 -29.5t-103 -84.5v-455z" />
<glyph unicode="q" horiz-adv-x="1126" d="M92 485q0 241 103.5 377.5t291.5 136.5q194 0 306 -137l18 113h164v-1385h-201v519q-107 -134 -291 -134q-185 0 -288 135t-103 375zM299 489q0 -167 67 -254.5t183 -87.5q65 0 124.5 29t100.5 82v459q-41 52 -102 82t-127 30q-116 0 -181 -90t-65 -250z" />
<glyph unicode="r" horiz-adv-x="714" d="M152 0v975h161l23 -137q67 75 151.5 118t161.5 43l17 -170q-88 -5 -169.5 -39t-144.5 -92v-698h-200z" />
<glyph unicode="s" horiz-adv-x="911" d="M90 68l16 176q64 -41 173.5 -71t193.5 -30t131 31t47 92q0 26 -13 47.5t-32 36.5t-51.5 30t-60 24t-70.5 22q-55 17 -92 30.5t-85 38.5t-76.5 53.5t-48.5 72t-20 96.5q0 140 96 211t251 71q80 0 171.5 -18.5t165.5 -50.5l-14 -166q-66 31 -154 54.5t-153 23.5 q-72 0 -117 -31t-45 -84q0 -23 10 -41.5t25.5 -31t40.5 -23.5t49.5 -19t58.5 -18l21 -6q45 -13 78.5 -24.5t75 -29.5t70.5 -40.5t55.5 -52.5t39.5 -69.5t13 -86.5q0 -151 -105 -230.5t-284 -79.5q-100 0 -200.5 26t-160.5 67z" />
<glyph unicode="t" horiz-adv-x="679" d="M49 805l43 170h107v346h200v-346h193v-170h-193v-543q0 -108 101 -108q60 0 94 14l49 -137q-85 -43 -174 -43q-129 0 -199.5 69.5t-70.5 196.5v551h-150z" />
<glyph unicode="u" horiz-adv-x="1095" d="M143 244v731h201v-662q0 -72 44 -114.5t114 -42.5q61 0 124.5 34.5t116.5 94.5v690h201v-975h-164l-18 139q-148 -164 -340 -164q-128 0 -203.5 73t-75.5 196z" />
<glyph unicode="v" horiz-adv-x="999" d="M33 975h221l258 -756l248 756h207l-355 -975h-227z" />
<glyph unicode="w" horiz-adv-x="1478" d="M33 975h219l192 -746l213 746h191l201 -748l196 748h203l-297 -975h-223l-191 694l-194 -694h-230z" />
<glyph unicode="x" horiz-adv-x="1001" d="M51 0l328 492l-322 483h234l213 -338l223 338h201l-316 -459l338 -516h-227l-231 358l-232 -358h-209z" />
<glyph unicode="y" horiz-adv-x="999" d="M33 975h223l256 -756l248 756h207l-369 -1014q-31 -91 -63 -154t-74.5 -114.5t-98 -77t-126.5 -25.5q-39 0 -99 11l-26 170q35 -9 69 -9q36 0 63 7.5t55.5 28.5t53 64.5t45.5 110.5z" />
<glyph unicode="z" horiz-adv-x="946" d="M90 0v176l531 629h-506v170h743v-166l-532 -639h540v-170h-776z" />
<glyph unicode="{" horiz-adv-x="892" d="M72 532v132h59q70 0 107.5 54.5t37.5 155.5q0 40 -8 132t-8 127q0 136 79 208t220 72h244v-133h-158q-85 0 -129.5 -42.5t-44.5 -125.5q0 -27 9 -117t9 -127q0 -211 -190 -268v-4q94 -29 142 -98.5t48 -171.5q0 -36 -9 -126t-9 -116q0 -164 174 -164h158v-135h-244 q-142 0 -220.5 70.5t-78.5 205.5q0 35 8 129t8 134q0 101 -37 154.5t-108 53.5h-59z" />
<glyph unicode="|" horiz-adv-x="647" d="M233 -377v1954h181v-1954h-181z" />
<glyph unicode="}" horiz-adv-x="892" d="M92 -80h158q174 0 174 164q0 26 -9 116t-9 126q0 102 48 171.5t142 98.5v4q-190 57 -190 268q0 37 9 127t9 117q0 83 -44.5 125.5t-129.5 42.5h-158v133h242q143 0 222 -72t79 -208q0 -35 -9.5 -127t-9.5 -132q0 -101 38.5 -155.5t109.5 -54.5h59v-132h-59 q-71 0 -109.5 -53.5t-38.5 -154.5q0 -40 9.5 -134t9.5 -129q0 -135 -79 -205.5t-222 -70.5h-242v135z" />
<glyph unicode="~" horiz-adv-x="1060" d="M119 569q55 74 122.5 113t131.5 39q27 0 61.5 -9t51 -15.5t59.5 -24.5q7 -3 25.5 -10t27.5 -10t24.5 -8.5t26 -8t24 -4.5t25.5 -2q83 0 168 73l76 -94q-55 -71 -120 -109t-128 -38q-72 0 -176 49q-4 1 -22 8t-23.5 9t-20.5 7.5t-22.5 7t-19.5 4.5t-22.5 4t-20.5 1 q-89 0 -170 -78z" />
<glyph unicode="&#xa1;" horiz-adv-x="587" d="M152 899q0 141 143 141q69 0 105 -36t36 -105q0 -143 -141 -143q-143 0 -143 143zM164 -410l61 1006h137l60 -1006h-258z" />
<glyph unicode="&#xa2;" horiz-adv-x="950" d="M92 709q0 222 98.5 353.5t280.5 154.5l-16 196h186l-18 -196q156 -18 241 -103l-49 -168q-97 105 -246 105q-132 0 -203 -89t-71 -253q0 -165 69.5 -253.5t198.5 -88.5q149 0 271 122l47 -167q-95 -99 -258 -121l18 -201h-186l16 201q-182 23 -280.5 154t-98.5 354z" />
<glyph unicode="&#xa3;" horiz-adv-x="1163" d="M123 0v139q151 227 172 479h-172v177h168q-2 19 -7 63.5t-7.5 79.5t-2.5 70q0 209 127.5 319.5t370.5 110.5q136 0 258 -45l-29 -187q-119 39 -215 39q-145 0 -222 -67t-77 -193q0 -24 4 -90t5 -100h440l-27 -177h-415q-20 -271 -125 -444h653v-174h-899z" />
<glyph unicode="&#xa4;" horiz-adv-x="1040" d="M70 334l159 133q-47 80 -47 199q0 118 47 198l-159 133l118 119l136 -160q76 43 194 43t197 -45l137 162l119 -119l-162 -135q45 -82 45 -196q0 -115 -45 -197l162 -135l-119 -119l-137 162q-79 -45 -197 -45t-194 43l-136 -160zM332 666q0 -95 47.5 -145t138.5 -50 q90 0 138.5 50t48.5 145t-49 144.5t-140 49.5q-90 0 -137 -49.5t-47 -144.5z" />
<glyph unicode="&#xa5;" horiz-adv-x="1327" d="M43 1413h260l354 -629h15l358 629h254l-479 -811h303v-115h-330v-159h330v-115h-330v-213h-229v213h-332v115h332v159h-332v115h305z" />
<glyph unicode="&#xa6;" horiz-adv-x="649" d="M233 -377v770h181v-770h-181zM233 809v768h181v-768h-181z" />
<glyph unicode="&#xa7;" horiz-adv-x="1118" d="M98 709q0 86 37 144t111 122q-74 74 -74 172q0 135 114 213t302 78q155 0 307 -45l-35 -168q-118 51 -254 51q-99 0 -165 -32t-66 -93q0 -26 17.5 -48t40 -36t64.5 -28t69.5 -20.5t76.5 -17.5q54 -13 78.5 -19.5t73.5 -21.5t73.5 -28t59 -36.5t51.5 -48.5t30 -61t13 -79 q0 -73 -33 -138.5t-112 -132.5q73 -60 73 -168q0 -144 -118.5 -218.5t-327.5 -74.5q-147 0 -318 56l37 172q131 -64 291 -64q99 0 165 32t66 93q0 32 -17.5 55t-62 41t-75 27t-101.5 25q-5 1 -8 2q-40 9 -60.5 14t-59 15.5t-59.5 19t-53 23t-50.5 29t-40 35t-33 43.5 t-19.5 52.5t-8 63.5zM276 741q0 -20 7 -37.5t17 -30t30 -24.5t35.5 -19.5t45.5 -17t48.5 -14.5t54.5 -14q14 -3 60 -12.5t67.5 -14.5t55 -15t57.5 -20q37 26 61.5 67t24.5 85q0 37 -21.5 64.5t-64.5 45.5t-82.5 28t-100.5 23q-11 2 -16 3q-138 27 -193 55q-46 -42 -66 -76 t-20 -76z" />
<glyph unicode="&#xa8;" d="M160 1212q0 119 123 119q120 0 120 -119q0 -116 -120 -116q-123 0 -123 116zM547 1212q0 119 123 119q59 0 90 -30.5t31 -88.5q0 -116 -121 -116q-123 0 -123 116z" />
<glyph unicode="&#xa9;" horiz-adv-x="1669" d="M98 707q0 351 188.5 541t536.5 190q349 0 538 -190.5t189 -540.5q0 -351 -188.5 -541.5t-536.5 -190.5q-349 0 -538 191t-189 541zM197 707q0 -315 162.5 -481.5t467.5 -166.5q302 0 463.5 167t161.5 481t-163 480.5t-466 166.5q-302 0 -464 -166.5t-162 -480.5zM465 713 q0 203 100.5 310t290.5 107q125 0 242 -63l-25 -145q-106 73 -211 73q-112 0 -170.5 -72.5t-58.5 -209.5t61 -210t176 -73q101 0 222 78l18 -135q-118 -76 -256 -76q-189 0 -289 107t-100 309z" />
<glyph unicode="&#xaa;" horiz-adv-x="829" d="M131 940q0 225 399 240v39q0 106 -129 106q-101 0 -202 -49l-33 98q116 64 264 64q120 0 183 -54t63 -157v-451h-125l-14 82q-108 -94 -218 -94q-92 0 -140 45.5t-48 130.5zM137 516v111h539v-111h-539zM274 956q0 -41 24.5 -63.5t70.5 -22.5q84 0 161 68v164 q-124 -4 -190 -42t-66 -104z" />
<glyph unicode="&#xab;" horiz-adv-x="1112" d="M68 487l325 488h174l-262 -488l262 -487h-174zM520 487l320 488h180l-262 -488l262 -487h-180z" />
<glyph unicode="&#xac;" horiz-adv-x="1167" d="M119 623v170h930v-514h-142v344h-788z" />
<glyph unicode="&#xad;" horiz-adv-x="745" d="M109 516v199h530v-199h-530z" />
<glyph unicode="&#xae;" horiz-adv-x="1165" d="M111 954q0 232 123 358t350 126t350 -126t123 -358q0 -233 -123 -359t-350 -126t-350 126t-123 359zM190 954q0 -199 101.5 -305t292.5 -106q192 0 292.5 105.5t100.5 305.5t-100.5 305t-292.5 105q-191 0 -292.5 -105.5t-101.5 -304.5zM418 707v526h168q92 0 143 -42 t51 -118q0 -103 -106 -145l143 -221h-121l-118 198h-54v-198h-106zM522 981h49q51 0 78 22.5t27 63.5t-27 63.5t-76 22.5h-51v-172z" />
<glyph unicode="&#xaf;" d="M209 1110v158h516v-158h-516z" />
<glyph unicode="&#xb0;" horiz-adv-x="903" d="M117 1104q0 151 92.5 242.5t243.5 91.5t243 -91.5t92 -242.5t-92 -242.5t-243 -91.5t-243.5 91.5t-92.5 242.5zM250 1104q0 -95 56.5 -154t148.5 -59q90 0 145 58.5t55 154.5q0 95 -56 153t-148 58q-91 0 -146 -58t-55 -153z" />
<glyph unicode="&#xb1;" horiz-adv-x="1167" d="M119 0v170h930v-170h-930zM119 578v170h377v280h176v-280h377v-170h-377v-285h-176v285h-377z" />
<glyph unicode="&#xb2;" horiz-adv-x="794" d="M109 795q138 114 234.5 232t96.5 196q0 43 -28.5 66.5t-79.5 23.5q-82 0 -189 -74l-24 121q107 78 235 78q115 0 176.5 -52.5t61.5 -146.5q0 -192 -285 -432h307v-123h-479z" />
<glyph unicode="&#xb3;" horiz-adv-x="768" d="M80 713l18 127q102 -54 191 -54q151 0 151 107q0 55 -45.5 84t-128.5 29h-47l-6 108h57q75 0 114.5 28t39.5 79q0 44 -31.5 68t-91.5 24q-91 0 -190 -60l-19 119q94 66 234 66q124 0 189 -50t65 -145q0 -61 -34.5 -107t-99.5 -69q146 -48 146 -188q0 -106 -72 -163 t-209 -57q-120 0 -231 54z" />
<glyph unicode="&#xb4;" d="M209 1073l184 311l230 -47l-265 -264h-149z" />
<glyph unicode="&#xb5;" horiz-adv-x="1136" d="M176 -410v1385h201v-662q0 -79 43 -118t115 -39q65 0 130 34t111 95v690h201v-975h-164l-18 145q-49 -79 -129 -124.5t-170 -45.5q-122 0 -183 93l37 -478h-174z" />
<glyph unicode="&#xb6;" horiz-adv-x="1099" d="M84 1014q0 191 121.5 294t345.5 103h360v-1411h-133v1309h-168v-1309h-133v604q-192 22 -292.5 127.5t-100.5 282.5z" />
<glyph unicode="&#xb7;" horiz-adv-x="518" d="M117 588q0 143 143 143q141 0 141 -143q0 -69 -36 -105.5t-105 -36.5q-70 0 -106.5 36.5t-36.5 105.5z" />
<glyph unicode="&#xb8;" d="M156 -379l39 80q47 -18 81 -18q46 0 74.5 19.5t28.5 51.5q0 49 -64 49q-36 0 -61 -10l-37 35l59 184l121 -12l-59 -123q15 6 47 6q125 0 125 -112q0 -82 -61.5 -131.5t-155.5 -49.5q-70 0 -137 31z" />
<glyph unicode="&#xb9;" horiz-adv-x="645" d="M53 1337l185 90h133v-743h-150v598l-151 -65z" />
<glyph unicode="&#xba;" horiz-adv-x="829" d="M104 1087q0 170 79.5 260.5t230.5 90.5t230 -90.5t79 -260.5t-79 -260t-230 -90t-230.5 90t-79.5 260zM125 516v111h580v-111h-580zM252 1087q0 -112 42 -171.5t120 -59.5t119.5 59.5t41.5 171.5t-41.5 172t-119.5 60t-120 -60t-42 -172z" />
<glyph unicode="&#xbb;" horiz-adv-x="1112" d="M92 0l262 487l-262 488h180l320 -488l-320 -487h-180zM547 0l262 487l-262 488h174l326 -488l-326 -487h-174z" />
<glyph unicode="&#xbc;" horiz-adv-x="1558" d="M121 1339l184 88h133v-747h-149v602l-152 -65zM287 0l815 1413h143l-815 -1413h-143zM848 145v99l332 499h178v-491h106v-107h-106v-145h-148v145h-362zM983 252h225v340z" />
<glyph unicode="&#xbd;" horiz-adv-x="1650" d="M121 1339l184 88h133v-747h-149v602l-152 -65zM279 0l815 1413h143l-815 -1413h-143zM989 111q139 115 235.5 232.5t96.5 195.5q0 43 -29 66.5t-80 23.5q-81 0 -188 -74l-25 121q107 78 236 78q115 0 176.5 -52.5t61.5 -146.5q0 -192 -285 -432h307v-123h-479z" />
<glyph unicode="&#xbe;" horiz-adv-x="1632" d="M127 713l18 127q102 -54 191 -54q151 0 151 107q0 55 -46 85t-128 30h-47l-6 106h57q74 0 114 28.5t40 80.5q0 43 -31.5 66.5t-91.5 23.5q-96 0 -190 -60l-19 119q94 66 234 66q124 0 189 -49.5t65 -143.5q0 -127 -133 -178q145 -48 145 -188q0 -106 -72 -163t-209 -57 q-120 0 -231 54zM358 0l816 1413h143l-815 -1413h-144zM920 145v99l331 499h179v-491h106v-107h-106v-145h-148v145h-362zM1055 252h225v340z" />
<glyph unicode="&#xbf;" horiz-adv-x="935" d="M63 -57q0 152 100.5 254.5t303.5 179.5l12 223h133l17 -321q-177 -72 -261.5 -144.5t-84.5 -173.5q0 -90 59.5 -139t169.5 -49q92 0 192 33.5t181 95.5l28 -191q-199 -133 -430 -133q-192 0 -306 98t-114 267zM401 899q0 69 36.5 105t105.5 36q143 0 143 -141 q0 -143 -143 -143q-69 0 -105.5 36.5t-36.5 106.5z" />
<glyph unicode="&#xc0;" horiz-adv-x="1429" d="M43 0l516 1413h313l517 -1413h-265l-120 350h-592l-121 -350h-248zM424 1769l258 54l174 -312h-158zM475 530h467l-225 660h-15z" />
<glyph unicode="&#xc1;" horiz-adv-x="1429" d="M43 0l516 1413h313l517 -1413h-265l-120 350h-592l-121 -350h-248zM475 530h467l-225 660h-15zM578 1511l184 312l229 -47l-264 -265h-149z" />
<glyph unicode="&#xc2;" horiz-adv-x="1429" d="M43 0l516 1413h313l517 -1413h-265l-120 350h-592l-121 -350h-248zM418 1511l209 312h172l209 -312h-150l-145 177l-148 -177h-147zM475 530h467l-225 660h-15z" />
<glyph unicode="&#xc3;" horiz-adv-x="1429" d="M43 0l516 1413h313l517 -1413h-265l-120 350h-592l-121 -350h-248zM397 1520q0 118 45 178.5t117 60.5q54 0 157 -44t134 -44q29 0 52 26.5t32 69.5l96 -12q-3 -107 -50 -174.5t-120 -67.5q-48 0 -144.5 44.5t-131.5 44.5q-30 0 -52 -27t-30 -72zM475 530h467l-225 660 h-15z" />
<glyph unicode="&#xc4;" horiz-adv-x="1429" d="M43 0l516 1413h313l517 -1413h-265l-120 350h-592l-121 -350h-248zM397 1651q0 118 123 118q121 0 121 -118q0 -117 -121 -117q-123 0 -123 117zM475 530h467l-225 660h-15zM784 1651q0 118 123 118q121 0 121 -118q0 -117 -121 -117q-123 0 -123 117z" />
<glyph unicode="&#xc5;" horiz-adv-x="1429" d="M43 0l516 1413h313l517 -1413h-265l-120 350h-592l-121 -350h-248zM475 530h467l-225 660h-15zM489 1688q0 94 60 147t164 53q103 0 162 -53t59 -147q0 -95 -59 -150t-162 -55q-104 0 -164 55t-60 150zM612 1688q0 -48 26 -74.5t75 -26.5q47 0 72.5 26.5t25.5 74.5 q0 46 -25.5 70t-72.5 24q-101 0 -101 -94z" />
<glyph unicode="&#xc6;" horiz-adv-x="1968" d="M43 0l799 1413h147h805v-199h-600v-403h518v-197h-518v-415h616v-199h-854v350h-473l-192 -350h-248zM582 530h374v660h-14z" />
<glyph unicode="&#xc7;" horiz-adv-x="1312" d="M135 705q0 352 172 542.5t486 190.5q126 0 234 -31.5t181 -87.5l-84 -178q-154 88 -323 88q-204 0 -313 -135.5t-109 -391.5q0 -254 107 -386t321 -132q182 0 344 103l82 -181q-173 -122 -408 -131l-47 -98q15 6 47 6q125 0 125 -112q0 -82 -61.5 -131.5t-155.5 -49.5 q-70 0 -137 31l39 80q47 -18 82 -18q46 0 74 19.5t28 51.5q0 49 -63 49q-37 0 -62 -10l-37 35l50 152q-275 25 -423.5 213t-148.5 512z" />
<glyph unicode="&#xc8;" horiz-adv-x="1232" d="M219 0v1413h838v-199h-600v-403h520v-197h-520v-415h616v-199h-854zM354 1769l258 54l174 -312h-157z" />
<glyph unicode="&#xc9;" horiz-adv-x="1232" d="M219 0v1413h838v-199h-600v-403h520v-197h-520v-415h616v-199h-854zM508 1511l184 312l230 -47l-265 -265h-149z" />
<glyph unicode="&#xca;" horiz-adv-x="1232" d="M219 0v1413h838v-199h-600v-403h520v-197h-520v-415h616v-199h-854zM348 1511l209 312h172l209 -312h-150l-145 177l-147 -177h-148z" />
<glyph unicode="&#xcb;" horiz-adv-x="1232" d="M219 0v1413h838v-199h-600v-403h520v-197h-520v-415h616v-199h-854zM328 1651q0 118 123 118q120 0 120 -118q0 -117 -120 -117q-123 0 -123 117zM715 1651q0 118 123 118q120 0 120 -118q0 -117 -120 -117q-123 0 -123 117z" />
<glyph unicode="&#xcc;" horiz-adv-x="677" d="M49 1769l258 54l174 -312h-157zM219 0v1413h238v-1413h-238z" />
<glyph unicode="&#xcd;" horiz-adv-x="677" d="M203 1511l184 312l229 -47l-264 -265h-149zM219 0v1413h238v-1413h-238z" />
<glyph unicode="&#xce;" horiz-adv-x="677" d="M43 1511l209 312h172l209 -312h-150l-145 177l-148 -177h-147zM219 0v1413h238v-1413h-238z" />
<glyph unicode="&#xcf;" horiz-adv-x="677" d="M23 1651q0 118 122 118q121 0 121 -118q0 -117 -121 -117q-122 0 -122 117zM219 0v1413h238v-1413h-238zM410 1651q0 118 122 118q121 0 121 -118q0 -117 -121 -117q-122 0 -122 117z" />
<glyph unicode="&#xd0;" horiz-adv-x="1527" d="M37 633v170h182v610h498q325 0 500.5 -183t175.5 -521q0 -340 -175.5 -524.5t-500.5 -184.5h-498v633h-182zM457 199h239q217 0 335 132t118 378q0 243 -118 374t-335 131h-239v-411h313v-170h-313v-434z" />
<glyph unicode="&#xd1;" horiz-adv-x="1568" d="M219 0v1413h262l615 -1016h14v1016h238v-1413h-244l-633 1038h-14v-1038h-238zM469 1520q0 118 45 178.5t117 60.5q54 0 157 -44t134 -44q29 0 52 26.5t32 69.5l96 -12q-3 -107 -50 -174.5t-120 -67.5q-48 0 -145 44.5t-132 44.5q-30 0 -52 -27t-30 -72z" />
<glyph unicode="&#xd2;" horiz-adv-x="1611" d="M135 707q0 350 172.5 540.5t489.5 190.5q327 0 504.5 -190.5t177.5 -540.5t-177.5 -541t-504.5 -191q-317 0 -489.5 191t-172.5 541zM379 707q0 -252 108.5 -387.5t309.5 -135.5q211 0 323.5 135.5t112.5 387.5q0 253 -112.5 387.5t-323.5 134.5q-201 0 -309.5 -134.5 t-108.5 -387.5zM516 1769l258 54l174 -312h-157z" />
<glyph unicode="&#xd3;" horiz-adv-x="1611" d="M135 707q0 350 172.5 540.5t489.5 190.5q327 0 504.5 -190.5t177.5 -540.5t-177.5 -541t-504.5 -191q-317 0 -489.5 191t-172.5 541zM379 707q0 -252 108.5 -387.5t309.5 -135.5q211 0 323.5 135.5t112.5 387.5q0 253 -112.5 387.5t-323.5 134.5q-201 0 -309.5 -134.5 t-108.5 -387.5zM670 1511l184 312l229 -47l-264 -265h-149z" />
<glyph unicode="&#xd4;" horiz-adv-x="1611" d="M135 707q0 350 172.5 540.5t489.5 190.5q327 0 504.5 -190.5t177.5 -540.5t-177.5 -541t-504.5 -191q-317 0 -489.5 191t-172.5 541zM379 707q0 -252 108.5 -387.5t309.5 -135.5q211 0 323.5 135.5t112.5 387.5q0 253 -112.5 387.5t-323.5 134.5q-201 0 -309.5 -134.5 t-108.5 -387.5zM510 1511l209 312h172l209 -312h-150l-145 177l-148 -177h-147z" />
<glyph unicode="&#xd5;" horiz-adv-x="1611" d="M135 707q0 350 172.5 540.5t489.5 190.5q327 0 504.5 -190.5t177.5 -540.5t-177.5 -541t-504.5 -191q-317 0 -489.5 191t-172.5 541zM379 707q0 -252 108.5 -387.5t309.5 -135.5q211 0 323.5 135.5t112.5 387.5q0 253 -112.5 387.5t-323.5 134.5q-201 0 -309.5 -134.5 t-108.5 -387.5zM489 1520q0 118 45 178.5t117 60.5q54 0 157 -44t134 -44q29 0 52 26.5t32 69.5l96 -12q-3 -107 -50 -174.5t-120 -67.5q-48 0 -144.5 44.5t-131.5 44.5q-30 0 -52 -27t-30 -72z" />
<glyph unicode="&#xd6;" horiz-adv-x="1611" d="M135 707q0 350 172.5 540.5t489.5 190.5q327 0 504.5 -190.5t177.5 -540.5t-177.5 -541t-504.5 -191q-317 0 -489.5 191t-172.5 541zM379 707q0 -252 108.5 -387.5t309.5 -135.5q211 0 323.5 135.5t112.5 387.5q0 253 -112.5 387.5t-323.5 134.5q-201 0 -309.5 -134.5 t-108.5 -387.5zM489 1651q0 118 123 118q121 0 121 -118q0 -117 -121 -117q-123 0 -123 117zM877 1651q0 118 122 118q121 0 121 -118q0 -117 -121 -117q-122 0 -122 117z" />
<glyph unicode="&#xd7;" horiz-adv-x="1163" d="M150 899l118 119l316 -318l313 316l117 -115l-318 -313l320 -316l-121 -118l-315 317l-314 -315l-114 114l317 314z" />
<glyph unicode="&#xd8;" horiz-adv-x="1611" d="M135 707q0 350 172.5 540.5t489.5 190.5q257 0 420 -117l73 92h195l-158 -194q152 -191 152 -512q0 -350 -177.5 -541t-504.5 -191q-239 0 -396 109l-67 -84h-193l150 184q-156 191 -156 523zM379 707q0 -197 70 -328l622 764q-109 86 -274 86q-201 0 -309.5 -134.5 t-108.5 -387.5zM547 260q102 -76 250 -76q211 0 323.5 135.5t112.5 387.5q0 188 -66 317z" />
<glyph unicode="&#xd9;" horiz-adv-x="1523" d="M203 549v864h237v-872q0 -172 83.5 -264.5t238.5 -92.5q154 0 236.5 92.5t82.5 264.5v872h238v-864q0 -275 -145 -424.5t-412 -149.5q-268 0 -413.5 149.5t-145.5 424.5zM473 1769l258 54l174 -312h-157z" />
<glyph unicode="&#xda;" horiz-adv-x="1523" d="M203 549v864h237v-872q0 -172 83.5 -264.5t238.5 -92.5q154 0 236.5 92.5t82.5 264.5v872h238v-864q0 -275 -145 -424.5t-412 -149.5q-268 0 -413.5 149.5t-145.5 424.5zM627 1511l184 312l229 -47l-264 -265h-149z" />
<glyph unicode="&#xdb;" horiz-adv-x="1523" d="M203 549v864h237v-872q0 -172 83.5 -264.5t238.5 -92.5q154 0 236.5 92.5t82.5 264.5v872h238v-864q0 -275 -145 -424.5t-412 -149.5q-268 0 -413.5 149.5t-145.5 424.5zM467 1511l209 312h172l209 -312h-150l-145 177l-148 -177h-147z" />
<glyph unicode="&#xdc;" horiz-adv-x="1523" d="M203 549v864h237v-872q0 -172 83.5 -264.5t238.5 -92.5q154 0 236.5 92.5t82.5 264.5v872h238v-864q0 -275 -145 -424.5t-412 -149.5q-268 0 -413.5 149.5t-145.5 424.5zM446 1651q0 118 123 118q121 0 121 -118q0 -117 -121 -117q-123 0 -123 117zM834 1651 q0 118 122 118q121 0 121 -118q0 -117 -121 -117q-122 0 -122 117z" />
<glyph unicode="&#xdd;" horiz-adv-x="1335" d="M43 1413h268l355 -629h14l358 629h254l-506 -856v-557h-237v557zM532 1511l185 312l229 -47l-264 -265h-150z" />
<glyph unicode="&#xde;" horiz-adv-x="1288" d="M219 0v1413h238v-227h233q233 0 364.5 -120.5t131.5 -334.5q0 -215 -131.5 -336t-364.5 -121h-233v-274h-238zM457 473h227q121 0 188.5 68t67.5 190q0 120 -67.5 188t-188.5 68h-227v-514z" />
<glyph unicode="&#xdf;" horiz-adv-x="1241" d="M219 0v1073q0 178 92 271.5t267 93.5q184 0 281 -90t97 -261q0 -157 -155 -329q169 -56 258.5 -161.5t89.5 -250.5q0 -180 -97 -275.5t-280 -95.5q-118 0 -211 43v158q93 -35 178 -35q97 0 148 55t51 158q0 106 -83 182t-239 111l-18 107q158 155 158 303q0 94 -44.5 144 t-129.5 50q-78 0 -120 -49.5t-42 -144.5v-1057h-201z" />
<glyph unicode="&#xe0;" horiz-adv-x="1013" d="M88 250q0 176 153 270t437 94v86q0 66 -45 102t-135 36q-149 0 -320 -84l-45 141q88 50 196 77t203 27q163 0 255 -83.5t92 -231.5v-684h-168l-19 119q-65 -67 -152 -105.5t-175 -38.5q-127 0 -202 75.5t-75 199.5zM219 1331l258 53l174 -311h-157zM295 279 q0 -66 39.5 -107t109.5 -41q58 0 121 28.5t113 78.5v254q-185 0 -284 -55t-99 -158z" />
<glyph unicode="&#xe1;" horiz-adv-x="1013" d="M88 250q0 176 153 270t437 94v86q0 66 -45 102t-135 36q-149 0 -320 -84l-45 141q88 50 196 77t203 27q163 0 255 -83.5t92 -231.5v-684h-168l-19 119q-65 -67 -152 -105.5t-175 -38.5q-127 0 -202 75.5t-75 199.5zM295 279q0 -66 39.5 -107t109.5 -41q58 0 121 28.5 t113 78.5v254q-185 0 -284 -55t-99 -158zM373 1073l184 311l229 -47l-264 -264h-149z" />
<glyph unicode="&#xe2;" horiz-adv-x="1013" d="M88 250q0 176 153 270t437 94v86q0 66 -45 102t-135 36q-149 0 -320 -84l-45 141q88 50 196 77t203 27q163 0 255 -83.5t92 -231.5v-684h-168l-19 119q-65 -67 -152 -105.5t-175 -38.5q-127 0 -202 75.5t-75 199.5zM213 1073l209 311h172l209 -311h-150l-145 176 l-148 -176h-147zM295 279q0 -66 39.5 -107t109.5 -41q58 0 121 28.5t113 78.5v254q-185 0 -284 -55t-99 -158z" />
<glyph unicode="&#xe3;" horiz-adv-x="1013" d="M88 250q0 176 153 270t437 94v86q0 66 -45 102t-135 36q-149 0 -320 -84l-45 141q88 50 196 77t203 27q163 0 255 -83.5t92 -231.5v-684h-168l-19 119q-65 -67 -152 -105.5t-175 -38.5q-127 0 -202 75.5t-75 199.5zM193 1081q0 118 45 179t116 61q54 0 157 -44t134 -44 q29 0 52 26.5t32 69.5l96 -12q-3 -107 -50 -174.5t-120 -67.5q-48 0 -144.5 44t-131.5 44q-30 0 -52 -26.5t-30 -71.5zM295 279q0 -66 39.5 -107t109.5 -41q58 0 121 28.5t113 78.5v254q-185 0 -284 -55t-99 -158z" />
<glyph unicode="&#xe4;" horiz-adv-x="1013" d="M88 250q0 176 153 270t437 94v86q0 66 -45 102t-135 36q-149 0 -320 -84l-45 141q88 50 196 77t203 27q163 0 255 -83.5t92 -231.5v-684h-168l-19 119q-65 -67 -152 -105.5t-175 -38.5q-127 0 -202 75.5t-75 199.5zM193 1212q0 119 122 119q59 0 90 -30.5t31 -88.5 q0 -116 -121 -116q-122 0 -122 116zM295 279q0 -66 39.5 -107t109.5 -41q58 0 121 28.5t113 78.5v254q-185 0 -284 -55t-99 -158zM580 1212q0 119 122 119q59 0 90 -30.5t31 -88.5q0 -116 -121 -116q-122 0 -122 116z" />
<glyph unicode="&#xe5;" horiz-adv-x="1013" d="M88 250q0 176 153 270t437 94v86q0 66 -45 102t-135 36q-149 0 -320 -84l-45 141q88 50 196 77t203 27q163 0 255 -83.5t92 -231.5v-684h-168l-19 119q-65 -67 -152 -105.5t-175 -38.5q-127 0 -202 75.5t-75 199.5zM285 1249q0 94 59.5 147.5t163.5 53.5q103 0 162 -53.5 t59 -147.5q0 -95 -59 -150t-162 -55q-104 0 -163.5 55t-59.5 150zM295 279q0 -66 39.5 -107t109.5 -41q58 0 121 28.5t113 78.5v254q-185 0 -284 -55t-99 -158zM408 1249q0 -48 25.5 -74t74.5 -26q47 0 72.5 26.5t25.5 73.5q0 46 -25.5 70t-72.5 24q-100 0 -100 -94z" />
<glyph unicode="&#xe6;" horiz-adv-x="1617" d="M88 250q0 176 153 270t437 94v86q0 66 -45.5 102t-136.5 36q-150 0 -318 -84l-45 141q87 50 194 77t203 27t169 -34t110 -95q114 129 315 129q199 0 300.5 -118.5t101.5 -343.5q0 -49 -8 -82h-637q0 -152 73.5 -230t208.5 -78q185 0 316 115l22 -164q-135 -123 -373 -123 q-225 0 -344 146q-165 -146 -378 -146q-154 0 -236 71t-82 204zM295 279q0 -71 45 -109.5t129 -38.5q130 0 252 96q-44 96 -47 262q-183 0 -281 -54.5t-98 -155.5zM885 584h436q0 118 -51.5 181.5t-149.5 63.5q-108 0 -167 -65.5t-68 -179.5z" />
<glyph unicode="&#xe7;" horiz-adv-x="950" d="M92 487q0 246 119 379t338 133q209 0 315 -106l-49 -168q-96 104 -246 104q-132 0 -203 -89t-71 -253q0 -165 69.5 -252.5t198.5 -87.5q150 0 271 121l47 -168q-110 -113 -299 -125l-47 -98q15 6 47 6q125 0 125 -112q0 -82 -62 -131.5t-156 -49.5q-70 0 -137 31l39 80 q47 -18 82 -18q46 0 74 19.5t28 51.5q0 49 -63 49q-36 0 -61 -10l-37 35l49 154q-179 25 -275 154.5t-96 350.5z" />
<glyph unicode="&#xe8;" horiz-adv-x="1036" d="M92 487q0 245 119 378.5t332 133.5q200 0 300.5 -118.5t100.5 -343.5q0 -55 -4 -82h-641q0 -152 74 -230t209 -78q184 0 315 115l23 -164q-135 -123 -373 -123q-217 0 -336 133.5t-119 378.5zM229 1331l258 53l175 -311h-158zM301 582h436q0 119 -51 183t-149 64 q-108 0 -167.5 -66.5t-68.5 -180.5z" />
<glyph unicode="&#xe9;" horiz-adv-x="1036" d="M92 487q0 245 119 378.5t332 133.5q200 0 300.5 -118.5t100.5 -343.5q0 -55 -4 -82h-641q0 -152 74 -230t209 -78q184 0 315 115l23 -164q-135 -123 -373 -123q-217 0 -336 133.5t-119 378.5zM301 582h436q0 119 -51 183t-149 64q-108 0 -167.5 -66.5t-68.5 -180.5z M383 1073l184 311l230 -47l-265 -264h-149z" />
<glyph unicode="&#xea;" horiz-adv-x="1036" d="M92 487q0 245 119 378.5t332 133.5q200 0 300.5 -118.5t100.5 -343.5q0 -55 -4 -82h-641q0 -152 74 -230t209 -78q184 0 315 115l23 -164q-135 -123 -373 -123q-217 0 -336 133.5t-119 378.5zM223 1073l209 311h172l209 -311h-149l-146 176l-147 -176h-148zM301 582h436 q0 119 -51 183t-149 64q-108 0 -167.5 -66.5t-68.5 -180.5z" />
<glyph unicode="&#xeb;" horiz-adv-x="1036" d="M92 487q0 245 119 378.5t332 133.5q200 0 300.5 -118.5t100.5 -343.5q0 -55 -4 -82h-641q0 -152 74 -230t209 -78q184 0 315 115l23 -164q-135 -123 -373 -123q-217 0 -336 133.5t-119 378.5zM203 1212q0 119 123 119q120 0 120 -119q0 -116 -120 -116q-123 0 -123 116z M301 582h436q0 119 -51 183t-149 64q-108 0 -167.5 -66.5t-68.5 -180.5zM590 1212q0 119 123 119q59 0 90 -30.5t31 -88.5q0 -116 -121 -116q-123 0 -123 116z" />
<glyph unicode="&#xec;" horiz-adv-x="503" d="M-35 1331l258 53l174 -311h-157zM152 0v975h200v-975h-200z" />
<glyph unicode="&#xed;" horiz-adv-x="503" d="M119 1073l184 311l229 -47l-264 -264h-149zM152 0v975h200v-975h-200z" />
<glyph unicode="&#xee;" horiz-adv-x="503" d="M-41 1073l209 311h172l209 -311h-150l-145 176l-148 -176h-147zM152 0v975h200v-975h-200z" />
<glyph unicode="&#xef;" horiz-adv-x="503" d="M-61 1212q0 119 122 119q59 0 90 -30.5t31 -88.5q0 -116 -121 -116q-122 0 -122 116zM152 0v975h200v-975h-200zM326 1212q0 119 123 119q120 0 120 -119q0 -116 -120 -116q-123 0 -123 116z" />
<glyph unicode="&#xf0;" horiz-adv-x="1087" d="M92 434q0 220 102.5 338.5t292.5 118.5q71 0 152.5 -35t153.5 -100l12 4q-13 112 -71 208t-154 167l-93 -129h-141l133 194q-100 51 -203 76l33 162q143 -29 269 -97l65 97h154l-115 -162q152 -113 233.5 -283t81.5 -381q0 -306 -113 -471.5t-323 -165.5 q-225 0 -347 119.5t-122 339.5zM295 434q0 -138 67 -212.5t193 -74.5q117 0 182 117.5t66 333.5q-156 125 -268 125q-115 0 -177.5 -75.5t-62.5 -213.5z" />
<glyph unicode="&#xf1;" horiz-adv-x="1087" d="M152 0v975h161l19 -139q150 163 342 163q128 0 203 -72t75 -196v-731h-200v664q0 71 -44 114t-114 43q-60 0 -124.5 -34.5t-117.5 -94.5v-692h-200zM223 1081q0 118 45.5 179t116.5 61q54 0 157 -44t134 -44q29 0 52 26.5t32 69.5l96 -12q-3 -107 -50 -174.5t-120 -67.5 q-48 0 -144.5 44t-131.5 44q-30 0 -52 -26.5t-30 -71.5z" />
<glyph unicode="&#xf2;" horiz-adv-x="1101" d="M92 487q0 246 119.5 379t339.5 133q221 0 341 -133t120 -379t-120 -379t-341 -133q-220 0 -339.5 133t-119.5 379zM262 1331l258 53l174 -311h-157zM295 487q0 -166 66 -253t192 -87q125 0 190.5 87t65.5 253t-66 254t-190 88q-126 0 -192 -88t-66 -254z" />
<glyph unicode="&#xf3;" horiz-adv-x="1101" d="M92 487q0 246 119.5 379t339.5 133q221 0 341 -133t120 -379t-120 -379t-341 -133q-220 0 -339.5 133t-119.5 379zM295 487q0 -166 66 -253t192 -87q125 0 190.5 87t65.5 253t-66 254t-190 88q-126 0 -192 -88t-66 -254zM416 1073l184 311l229 -47l-264 -264h-149z" />
<glyph unicode="&#xf4;" horiz-adv-x="1101" d="M92 487q0 246 119.5 379t339.5 133q221 0 341 -133t120 -379t-120 -379t-341 -133q-220 0 -339.5 133t-119.5 379zM256 1073l209 311h172l209 -311h-150l-145 176l-148 -176h-147zM295 487q0 -166 66 -253t192 -87q125 0 190.5 87t65.5 253t-66 254t-190 88 q-126 0 -192 -88t-66 -254z" />
<glyph unicode="&#xf5;" horiz-adv-x="1101" d="M92 487q0 246 119.5 379t339.5 133q221 0 341 -133t120 -379t-120 -379t-341 -133q-220 0 -339.5 133t-119.5 379zM236 1081q0 118 45 179t116 61q54 0 157 -44t134 -44q29 0 52 26.5t32 69.5l96 -12q-3 -107 -50 -174.5t-120 -67.5q-48 0 -144.5 44t-131.5 44 q-30 0 -52 -26.5t-30 -71.5zM295 487q0 -166 66 -253t192 -87q125 0 190.5 87t65.5 253t-66 254t-190 88q-126 0 -192 -88t-66 -254z" />
<glyph unicode="&#xf6;" horiz-adv-x="1101" d="M92 487q0 246 119.5 379t339.5 133q221 0 341 -133t120 -379t-120 -379t-341 -133q-220 0 -339.5 133t-119.5 379zM236 1212q0 119 122 119q59 0 90 -30.5t31 -88.5q0 -116 -121 -116q-122 0 -122 116zM295 487q0 -166 66 -253t192 -87q125 0 190.5 87t65.5 253t-66 254 t-190 88q-126 0 -192 -88t-66 -254zM623 1212q0 119 122 119q59 0 90 -30.5t31 -88.5q0 -116 -121 -116q-122 0 -122 116z" />
<glyph unicode="&#xf7;" horiz-adv-x="1167" d="M119 500v170h930v-170h-930zM471 186q0 51 31 82t82 31q52 0 83 -31t31 -82q0 -50 -31 -80t-83 -30q-51 0 -82 30t-31 80zM471 981q0 51 31 82t82 31q52 0 83 -31t31 -82q0 -50 -31 -80.5t-83 -30.5q-51 0 -82 30.5t-31 80.5z" />
<glyph unicode="&#xf8;" horiz-adv-x="1101" d="M92 0l103 129q-103 130 -103 358q0 246 119.5 379t339.5 133q164 0 274 -75l43 53h144l-105 -129q105 -132 105 -361q0 -246 -120 -379t-341 -133q-164 0 -277 78l-41 -53h-141zM295 487q0 -119 33 -192l383 481q-62 53 -158 53q-126 0 -192 -88t-66 -254zM393 201 q63 -54 160 -54q125 0 190.5 87t65.5 253q0 122 -33 195z" />
<glyph unicode="&#xf9;" horiz-adv-x="1095" d="M143 244v731h201v-662q0 -72 44 -114.5t114 -42.5q61 0 124.5 34.5t116.5 94.5v690h201v-975h-164l-18 139q-148 -164 -340 -164q-128 0 -203.5 73t-75.5 196zM260 1331l258 53l174 -311h-157z" />
<glyph unicode="&#xfa;" horiz-adv-x="1095" d="M143 244v731h201v-662q0 -72 44 -114.5t114 -42.5q61 0 124.5 34.5t116.5 94.5v690h201v-975h-164l-18 139q-148 -164 -340 -164q-128 0 -203.5 73t-75.5 196zM414 1073l184 311l229 -47l-264 -264h-149z" />
<glyph unicode="&#xfb;" horiz-adv-x="1095" d="M143 244v731h201v-662q0 -72 44 -114.5t114 -42.5q61 0 124.5 34.5t116.5 94.5v690h201v-975h-164l-18 139q-148 -164 -340 -164q-128 0 -203.5 73t-75.5 196zM254 1073l209 311h172l209 -311h-150l-145 176l-148 -176h-147z" />
<glyph unicode="&#xfc;" horiz-adv-x="1095" d="M143 244v731h201v-662q0 -72 44 -114.5t114 -42.5q61 0 124.5 34.5t116.5 94.5v690h201v-975h-164l-18 139q-148 -164 -340 -164q-128 0 -203.5 73t-75.5 196zM233 1212q0 119 123 119q59 0 90 -30.5t31 -88.5q0 -116 -121 -116q-123 0 -123 116zM621 1212q0 119 122 119 q59 0 90 -30.5t31 -88.5q0 -116 -121 -116q-122 0 -122 116z" />
<glyph unicode="&#xfd;" horiz-adv-x="999" d="M33 975h223l256 -756l248 756h207l-369 -1014q-31 -91 -63 -154t-74.5 -114.5t-98 -77t-126.5 -25.5q-39 0 -99 11l-26 170q35 -9 69 -9q36 0 63 7.5t55.5 28.5t53 64.5t45.5 110.5zM360 1073l185 311l229 -47l-264 -264h-150z" />
<glyph unicode="&#xfe;" horiz-adv-x="1126" d="M152 -410v1823h200v-530q110 116 287 116t287 -137.5t110 -374.5q0 -242 -104.5 -377t-288.5 -135q-185 0 -291 136v-521h-200zM352 260q84 -113 228 -113q118 0 183.5 88.5t65.5 251.5q0 161 -64.5 251.5t-180.5 90.5q-68 0 -129 -29.5t-103 -84.5v-455z" />
<glyph unicode="&#xff;" horiz-adv-x="999" d="M33 975h223l256 -756l248 756h207l-369 -1014q-31 -91 -63 -154t-74.5 -114.5t-98 -77t-126.5 -25.5q-39 0 -99 11l-26 170q35 -9 69 -9q36 0 63 7.5t55.5 28.5t53 64.5t45.5 110.5zM180 1212q0 119 123 119q59 0 90 -30.5t31 -88.5q0 -116 -121 -116q-123 0 -123 116z M567 1212q0 119 123 119q59 0 90 -30.5t31 -88.5q0 -116 -121 -116q-123 0 -123 116z" />
<glyph unicode="&#x152;" horiz-adv-x="2250" d="M135 711q0 348 167 537.5t470 189.5q335 0 475 -224v199h830v-199h-602v-403h520v-197h-520v-415h618v-199h-846v201q-142 -226 -475 -226q-303 0 -470 192t-167 544zM379 709q0 -253 108.5 -389t309.5 -136q211 0 323.5 135.5t112.5 389.5q0 252 -112.5 386t-323.5 134 q-201 0 -309.5 -134t-108.5 -386z" />
<glyph unicode="&#x153;" horiz-adv-x="1753" d="M92 487q0 246 119.5 379t339.5 133q249 0 360 -176q108 176 349 176q199 0 300 -118.5t101 -343.5q0 -57 -4 -82h-641q0 -152 73.5 -230t208.5 -78q185 0 316 115l22 -164q-135 -123 -372 -123q-240 0 -355 175q-112 -175 -358 -175q-220 0 -339.5 133t-119.5 379z M295 487q0 -166 66 -253t192 -87q125 0 190.5 87t65.5 253t-66 254t-190 88q-126 0 -192 -88t-66 -254zM1018 584h436q0 118 -51.5 181.5t-149.5 63.5q-108 0 -167 -65.5t-68 -179.5z" />
<glyph unicode="&#x178;" horiz-adv-x="1335" d="M43 1413h268l355 -629h14l358 629h254l-506 -856v-557h-237v557zM352 1651q0 118 123 118q121 0 121 -118q0 -117 -121 -117q-123 0 -123 117zM739 1651q0 118 123 118q121 0 121 -118q0 -117 -121 -117q-123 0 -123 117z" />
<glyph unicode="&#x2c6;" d="M209 1073l209 311h172l209 -311h-150l-145 176l-148 -176h-147z" />
<glyph unicode="&#x2dc;" d="M156 1081q0 118 45 179t116 61q54 0 157 -44t134 -44q29 0 52 26.5t32 69.5l96 -12q-3 -107 -50 -174.5t-120 -67.5q-48 0 -144.5 44t-131.5 44q-30 0 -52 -26.5t-30 -71.5z" />
<glyph unicode="&#x2000;" horiz-adv-x="944" />
<glyph unicode="&#x2001;" horiz-adv-x="1888" />
<glyph unicode="&#x2002;" horiz-adv-x="944" />
<glyph unicode="&#x2003;" horiz-adv-x="1888" />
<glyph unicode="&#x2004;" horiz-adv-x="629" />
<glyph unicode="&#x2005;" horiz-adv-x="472" />
<glyph unicode="&#x2006;" horiz-adv-x="314" />
<glyph unicode="&#x2007;" horiz-adv-x="314" />
<glyph unicode="&#x2008;" horiz-adv-x="236" />
<glyph unicode="&#x2009;" horiz-adv-x="377" />
<glyph unicode="&#x200a;" horiz-adv-x="104" />
<glyph unicode="&#x2010;" horiz-adv-x="745" d="M109 516v199h530v-199h-530z" />
<glyph unicode="&#x2011;" horiz-adv-x="745" d="M109 516v199h530v-199h-530z" />
<glyph unicode="&#x2012;" horiz-adv-x="745" d="M109 516v199h530v-199h-530z" />
<glyph unicode="&#x2013;" horiz-adv-x="933" d="M109 516v199h718v-199h-718z" />
<glyph unicode="&#x2014;" horiz-adv-x="1652" d="M109 516v199h1435v-199h-1435z" />
<glyph unicode="&#x2018;" horiz-adv-x="491" d="M84 856l147 557h160l-61 -557h-246z" />
<glyph unicode="&#x2019;" horiz-adv-x="491" d="M100 856l62 557h246l-150 -557h-158z" />
<glyph unicode="&#x201a;" d="M68 -231l86 485h247l-208 -518z" />
<glyph unicode="&#x201c;" horiz-adv-x="872" d="M84 856l147 557h160l-61 -557h-246zM467 856l147 557h160l-61 -557h-246z" />
<glyph unicode="&#x201d;" horiz-adv-x="872" d="M100 856l62 557h246l-150 -557h-158zM481 856l62 557h245l-149 -557h-158z" />
<glyph unicode="&#x201e;" d="M68 -231l86 485h247l-208 -518z" />
<glyph unicode="&#x2022;" horiz-adv-x="929" d="M190 713q0 151 62 213.5t213 62.5q150 0 212 -62.5t62 -213.5t-62 -214t-212 -63t-212.5 63t-62.5 214z" />
<glyph unicode="&#x2026;" horiz-adv-x="1488" d="M115 119q0 141 143 141q69 0 105 -36t36 -105q0 -70 -36 -107t-105 -37q-143 0 -143 144zM602 119q0 141 143 141q69 0 105.5 -36t36.5 -105q0 -70 -36.5 -107t-105.5 -37q-143 0 -143 144zM1090 119q0 141 143 141q69 0 105 -36t36 -105q0 -70 -36 -107t-105 -37 q-143 0 -143 144z" />
<glyph unicode="&#x202f;" horiz-adv-x="377" />
<glyph unicode="&#x2039;" horiz-adv-x="657" d="M68 487l319 488h180l-262 -488l262 -487h-180z" />
<glyph unicode="&#x203a;" horiz-adv-x="657" d="M92 0l262 487l-262 488h180l320 -488l-320 -487h-180z" />
<glyph unicode="&#x205f;" horiz-adv-x="472" />
<glyph unicode="&#x20ac;" horiz-adv-x="1312" d="M-8 510l22 113h123q-2 27 -2 82q0 54 2 81h-94l23 115h86q44 260 209 398.5t432 138.5q126 0 234 -31.5t181 -87.5l-57 -193q-168 103 -350 103q-160 0 -262.5 -83.5t-139.5 -244.5h691l-35 -115h-672q-4 -54 -4 -84q0 -54 2 -79h637l-35 -113h-586q35 -160 138.5 -243 t271.5 -83q182 0 344 103l82 -181q-186 -131 -442 -131q-266 0 -430.5 138t-208.5 397h-160z" />
<glyph unicode="&#x2122;" horiz-adv-x="1542" d="M70 1300v113h559v-113h-211v-593h-137v593h-211zM700 707l50 706h172l180 -532h10l180 532h162l55 -706h-133l-35 497h-10l-168 -497h-131l-164 497h-10l-33 -497h-125z" />
<glyph unicode="&#x25fc;" horiz-adv-x="972" d="M0 0v973h973v-973h-973z" />
</font>
</defs>
</svg>
